<svg width="20" height="20" viewBox="0 0 20 20" fill="none" xmlns="http://www.w3.org/2000/svg">
<path d="M9.99984 16.6667C10.4601 16.6667 10.8332 16.2936 10.8332 15.8333C10.8332 15.3731 10.4601 15 9.99984 15C9.5396 15 9.1665 15.3731 9.1665 15.8333C9.1665 16.2936 9.5396 16.6667 9.99984 16.6667Z" fill="#A9A9B0" stroke="#A9A9B0" stroke-linecap="round" stroke-linejoin="round"/>
<path d="M9.99984 10.8327C10.4601 10.8327 10.8332 10.4596 10.8332 9.99935C10.8332 9.53911 10.4601 9.16602 9.99984 9.16602C9.5396 9.16602 9.1665 9.53911 9.1665 9.99935C9.1665 10.4596 9.5396 10.8327 9.99984 10.8327Z" fill="#A9A9B0" stroke="#A9A9B0" stroke-linecap="round" stroke-linejoin="round"/>
<path d="M9.99984 5.00065C10.4601 5.00065 10.8332 4.62755 10.8332 4.16732C10.8332 3.70708 10.4601 3.33398 9.99984 3.33398C9.5396 3.33398 9.1665 3.70708 9.1665 4.16732C9.1665 4.62755 9.5396 5.00065 9.99984 5.00065Z" fill="#A9A9B0" stroke="#A9A9B0" stroke-linecap="round" stroke-linejoin="round"/>
</svg>
