<svg width="360" height="108" viewBox="0 0 360 108" fill="none" xmlns="http://www.w3.org/2000/svg">
<rect x="86" width="32" height="32" rx="16" fill="#FF7506"/>
<path d="M108.117 18.0743L107.283 16.691C107.108 16.3827 106.95 15.7993 106.95 15.4577V13.3493C106.95 11.391 105.8 9.69935 104.142 8.90768C103.708 8.14102 102.908 7.66602 101.992 7.66602C101.083 7.66602 100.267 8.15768 99.8333 8.93268C98.2083 9.74102 97.0833 11.416 97.0833 13.3493V15.4577C97.0833 15.7993 96.925 16.3827 96.75 16.6827L95.9083 18.0743C95.575 18.6327 95.5 19.2493 95.7083 19.816C95.9083 20.3743 96.3833 20.8077 97 21.016C98.6167 21.566 100.317 21.8327 102.017 21.8327C103.717 21.8327 105.417 21.566 107.033 21.0244C107.617 20.8327 108.067 20.391 108.283 19.816C108.5 19.241 108.442 18.6077 108.117 18.0743Z" fill="white"/>
<path d="M104.358 22.6743C104.008 23.641 103.083 24.3327 102 24.3327C101.342 24.3327 100.692 24.066 100.233 23.591C99.9667 23.341 99.7667 23.0077 99.65 22.666C99.7583 22.6827 99.8667 22.691 99.9833 22.7077C100.175 22.7327 100.375 22.7577 100.575 22.7743C101.05 22.816 101.533 22.841 102.017 22.841C102.492 22.841 102.967 22.816 103.433 22.7743C103.608 22.7577 103.783 22.7493 103.95 22.7243C104.083 22.7077 104.217 22.691 104.358 22.6743Z" fill="white"/>
</svg>
