<svg width="711" height="560" viewBox="0 0 711 560" fill="none" xmlns="http://www.w3.org/2000/svg">
<g clip-path="url(#clip0_31_4241)">
<path opacity="0.5" d="M416.965 256.568H277.925C267.217 256.568 258.536 247.905 258.536 237.224V98.5095C258.536 87.8283 267.217 79.166 277.925 79.166H416.965C427.673 79.166 436.354 87.8283 436.354 98.5095V237.224C436.354 247.905 427.673 256.568 416.965 256.568Z" stroke="#4598E6"/>
<path d="M388.84 216.451H306.05V220.53H388.84V216.451Z" fill="#E6E7F8"/>
<path d="M377.114 229.309H317.776V233.388H377.114V229.309Z" fill="#E6E7F8"/>
<path opacity="0.5" d="M687.571 426.631H489.703C477.038 426.631 466.771 416.389 466.771 403.753V163.917C466.771 151.284 477.035 141.039 489.703 141.039H687.571C700.236 141.039 710.503 151.281 710.503 163.917V403.753C710.5 416.389 700.236 426.631 687.571 426.631Z" stroke="#4598E6"/>
<path d="M596.644 309.611H577.232V313.196H596.644V309.611Z" fill="#4598E6"/>
<path d="M616.487 342.473H503.542V349.416H616.487V342.473Z" fill="#E6E7F8"/>
<path d="M594.875 375.811H503.542V382.754H594.875V375.811Z" fill="#E6E7F8"/>
<path d="M557.085 359.145H503.542V366.088H557.085V359.145Z" fill="#E6E7F8"/>
<path d="M646.035 169.121V172.628H666.732V192.009H670.247V169.121H646.035ZM505.487 192.009H509.003V172.628H529.7V169.121H505.487V192.009ZM666.735 292.004V311.391H646.038V314.898H670.251V292.004H666.735ZM508.999 292.004H505.484V314.898H529.696V311.391H508.999V292.004Z" fill="#4598E6"/>
<path d="M659.29 383.266C647.876 383.266 638.59 374.003 638.59 362.615C638.59 351.227 647.876 341.963 659.29 341.963C670.705 341.963 679.99 351.227 679.99 362.615C679.99 374.003 670.705 383.266 659.29 383.266ZM659.29 345.961C650.086 345.961 642.597 353.432 642.597 362.615C642.597 371.797 650.086 379.269 659.29 379.269C668.495 379.269 675.983 371.797 675.983 362.615C675.983 353.432 668.495 345.961 659.29 345.961Z" fill="#1391EE"/>
<path d="M657.972 370.742L648.567 361.359L651.398 358.535L657.972 365.09L667.183 355.9L670.013 358.725L657.972 370.742Z" fill="#1391EE"/>
<path d="M671.739 544.316C671.739 552.978 521.367 560 335.869 560C150.372 560 0 552.978 0 544.316C0 535.654 150.372 528.633 335.869 528.633C521.363 528.633 671.739 535.654 671.739 544.316Z" fill="#E6E7F8"/>
<path d="M393.481 148.144C389.511 137.669 379.975 132.856 375.473 131.358C373.869 130.827 371.008 129.893 367.991 128.919C362.553 127.167 356.614 125.26 356.614 125.26H337.853C337.853 125.26 331.357 127.431 324.455 129.846C324.455 129.853 324.448 129.853 324.448 129.853C318.088 132.078 311.393 134.503 309.132 135.636C304.416 137.984 296.483 154.776 294.88 156.701C294.052 157.692 290.371 164.233 286.75 171.539H306.959C309.094 167.879 310.738 165.041 310.738 165.041C310.738 165.041 312.017 167.838 313.566 171.539H378.307C379.331 167.243 379.968 161.828 379.968 161.828C379.968 161.828 383.436 166.533 387.22 171.539H405.879C401.35 163.946 395.719 154.059 393.481 148.144Z" fill="#FF9138"/>
<path d="M349.47 73.8328C349.47 73.8328 364.139 76.1395 361.905 99.0337C359.671 121.928 346.728 120.054 345.86 120.03C344.995 120.007 332.866 120.446 331.92 92.4925C331.92 92.4959 331.506 71.8238 349.47 73.8328Z" fill="#EEA886"/>
<path d="M362.133 92.5671C362.133 92.5671 363.74 90.8557 364.329 92.5874C364.919 94.3191 362.139 102.047 362.038 102.409C362.038 102.409 361.743 103.082 361.36 102.71C360.973 102.345 362.133 92.5671 362.133 92.5671Z" fill="#EEA886"/>
<path d="M332.313 92.2802C332.313 92.2802 330.74 90.5384 330.116 92.2599C329.493 93.9815 332.099 101.761 332.218 102.126C332.218 102.126 332.499 102.802 332.889 102.44C333.283 102.075 332.313 92.2802 332.313 92.2802Z" fill="#EEA886"/>
<path d="M362.126 96.0815L360.028 98.882C360.028 98.882 360.085 92.7399 359.75 91.7793C359.414 90.8154 358.899 87.8762 358.614 87.1829C358.333 86.4895 346.02 83.0464 335.141 88.1874C335.141 88.1874 335.619 92.6012 334.578 92.9969C333.537 93.3892 334.046 100.188 334.046 100.188L332.32 98.2427C332.32 98.2427 329.679 80.6281 330.33 78.7916C330.981 76.9551 333.063 65.9189 355.376 72.4702C355.376 72.4702 362.333 70.999 363.73 75.7916C365.126 80.5808 362.126 96.0815 362.126 96.0815Z" fill="#434343"/>
<path d="M358.434 124.852C358.427 124.831 356.552 123.928 356.552 123.928C355.637 121.889 356.319 113.288 356.319 113.288C356.319 113.288 337.636 108.543 338.171 112.172C338.703 115.797 336.561 124.226 336.561 124.226L326.977 128.975C326.977 128.975 337.188 156.33 348.925 152.799C360.661 149.271 365.092 127.987 365.092 127.987L358.434 124.852Z" fill="#EEA886"/>
<path d="M338.439 116.203C338.439 116.203 341.45 120.079 346.674 120.079C350.112 120.079 352.576 119.119 356 115.787C356 115.787 354.515 122.112 346.698 122.7C346.694 122.7 341.026 123.417 338.439 116.203Z" fill="#A77860"/>
<path d="M284.506 208.047C284.506 208.047 295.283 213.306 292.618 227.616C289.954 241.926 288.774 243.854 291.754 249.445C294.734 255.036 298.253 278.887 295.568 283.409C292.886 287.931 262.358 263.542 258.127 243.083C253.893 222.621 260.809 213.523 263.253 210.13C265.704 206.741 274.99 203.23 284.506 208.047Z" fill="#0E2D3D"/>
<path d="M280.441 540.136H282.885V528.644C282.885 528.644 287.675 531.83 290.682 536.237C293.689 540.644 297.822 540.268 304.117 539.984C310.413 539.703 310.131 537.173 309.565 533.612C309.003 530.051 302.612 528.924 300.544 528.363C298.476 527.801 293.784 519.735 292.276 517.77C290.218 515.091 289.13 512.521 289.13 512.521C289.13 512.521 287.957 507.741 282.129 512.521C276.305 517.3 277.996 526.486 278.654 527.331C279.312 528.173 280.441 540.136 280.441 540.136Z" fill="#163342"/>
<path d="M292.747 528.363C294.907 529.77 300.544 528.363 300.544 528.363C298.948 526.3 289.13 512.524 289.13 512.524C283.163 509.057 280.807 513.83 280.807 513.83C283.241 514.567 290.588 526.956 292.747 528.363Z" fill="#EEA886"/>
<path d="M355.566 316.325C355.566 316.325 359.478 317.073 360.814 315.24C361.949 313.681 364.546 312.483 365.346 312.115C366.414 311.621 369.13 308.881 369.767 310.221C370.404 311.56 365.512 314.949 364.628 315.866C363.743 316.782 369.425 317.185 370.408 318.077C371.388 318.967 370.181 328.319 366.316 327.592C362.448 326.864 358.797 323.54 358.091 323.546C357.386 323.553 355.257 323.127 355.257 323.127L355.566 316.325Z" fill="#EEA886"/>
<path d="M369.543 317.688C369.543 317.688 381.236 320.701 381.846 321.553C382.456 322.406 382.256 323.028 381.151 322.791C380.046 322.555 369.771 320.204 369.771 320.204C369.771 320.204 383.009 326.092 383.663 326.681C384.046 327.026 383.728 328.254 383.124 328.183C382.521 328.111 369.065 323.025 369.065 323.025C369.065 323.025 381.416 328.544 381.816 329.197C382.165 329.769 381.589 330.824 380.646 330.479C379.704 330.134 367.95 325.656 367.95 325.656C367.95 325.656 376.686 330.236 376.697 330.99C376.703 331.45 376.476 332.525 374.259 331.274C372.042 330.022 366.499 327.614 366.499 327.614L369.543 317.688Z" fill="#EEA886"/>
<path d="M248.787 540.92H250.289V532.485C250.289 532.485 252.964 535.228 254.185 539.259C255.405 543.291 259.778 544.485 266.45 544.299C273.122 544.113 273.213 541.485 272.651 537.548C272.088 533.611 266.45 531.548 266.45 531.548C263.914 529.299 257.619 519.97 257.619 519.97C257.619 519.97 253.578 518.892 250.408 521.445C247.238 523.999 248.225 529.765 248.316 531.264C248.411 532.765 248.787 540.92 248.787 540.92Z" fill="#163342"/>
<path d="M253.391 339.96C253.391 339.96 245.441 350.269 243.285 362.503C241.129 374.736 244.56 415.79 244.465 421.837C244.37 427.884 238.732 442.928 239.861 454.316C240.99 465.704 245.438 522.387 245.438 522.387L257.619 519.975C257.619 519.975 256.914 462.19 257.619 457.408C258.324 452.625 259.738 435.204 260.019 433.235C260.3 431.267 277.912 379.58 277.912 370.762C277.912 361.938 272.559 325.572 253.391 339.96Z" fill="#1D3B54"/>
<path d="M293.32 343.988C293.32 343.988 306.379 393.713 307.928 400.603C309.477 407.493 311.725 413.175 311.725 416.1C311.725 422.888 309.196 433.786 309.196 433.786L292.611 512.913H276.817C276.817 512.913 285.617 465.44 285.855 456.159C286.092 446.855 293.269 433.644 291.862 429.707C290.452 425.77 269.172 380.357 269.172 380.357C269.172 380.357 253.062 329.553 293.32 343.988Z" fill="#1D3B54"/>
<path d="M266.45 531.548L257.618 519.971L250.408 521.445C250.408 521.445 252.347 526.627 255.852 530.523C260.005 535.143 266.45 531.548 266.45 531.548Z" fill="#EEA886"/>
<path d="M287.926 259.486C287.926 259.486 293.31 259.994 297.378 264.343C301.446 268.693 305.264 275.626 306.331 277.946C307.396 280.267 322.333 301.761 323.109 302.244C323.885 302.728 331.391 305.231 336.368 306.902C344.043 309.479 359.434 315.059 359.434 315.059L356.38 324.712C356.38 324.712 327.445 315.266 320.197 313.483C311.335 311.305 290.937 285.195 290.937 285.195C290.937 285.195 275.722 267.411 287.926 259.486Z" fill="#285173"/>
<path d="M278.532 255.72C278.532 255.72 285.506 259.004 287.93 259.488C290.35 259.971 299.748 272.147 301.395 276.592C303.043 281.036 301.395 287.706 298.005 295.532C294.615 303.358 297.812 305.97 296.263 313.796C294.713 321.622 295.212 350.909 295.503 355.255C295.795 359.605 250.164 366.197 241.156 358.272C241.156 358.272 247.255 331.881 254.476 324.348C256.039 322.718 255.873 311.865 254.808 309.159C253.744 306.453 241.733 286.255 241.733 286.255C241.733 286.255 240.851 265.769 246.092 261.71C250.645 258.182 263.053 256.924 265.28 256.153C267.498 255.378 273.979 255.044 278.532 255.72Z" fill="#E6E7F8"/>
<path d="M281.861 247.69C281.861 247.69 281.655 249.604 281.414 252.195C281.322 253.219 281.221 254.349 281.126 255.509C280.848 258.979 280.627 262.707 280.76 264.611C280.76 264.611 273.511 271.859 265.27 256.155C265.27 256.155 268.735 249.678 266.124 240.864C263.517 232.043 281.861 247.69 281.861 247.69Z" fill="#EEA886"/>
<path d="M302.145 298.42C302.145 298.42 303.891 286.843 302.033 279.805C302.033 279.805 302.033 285.859 298.707 294.453L302.145 298.42Z" fill="#183C59"/>
<path d="M259.7 257.269C259.7 257.269 264.687 271.958 278.373 270.879C292.059 269.797 284.862 258.477 284.862 258.477C284.862 258.477 281.451 256.525 280.492 256.342C279.532 256.16 265.358 255.98 265.358 255.98L259.7 257.269Z" fill="#EEA886"/>
<path d="M284.862 258.473C284.862 258.473 292.032 278.255 292.032 298.42C292.032 318.585 292.608 351.429 295.114 361.803C297.615 372.176 304.741 404.253 304.741 404.253L310.325 401.371C310.325 401.371 296.9 350.175 295.886 346.485C294.873 342.791 296.656 303.794 297.619 300.527C298.582 297.26 302.677 282.727 302.04 278.695C301.236 273.611 296.47 266.089 288.767 259.623L284.862 258.473Z" fill="#285173"/>
<path d="M262.405 256.648C262.405 256.648 266.86 270.881 269.118 289.111C271.376 307.341 262.188 391.957 256.025 411.165L232.152 407.323C232.152 407.323 237.291 347.512 244.268 336.628C251.245 325.744 253.466 316.111 245.933 293.393C238.403 270.674 249.235 259.422 249.235 259.422C249.235 259.422 260.314 256.885 262.405 256.648Z" fill="#285173"/>
<path d="M288.164 317.008L259.215 367.031L227.036 348.497L254.727 297.75L288.164 317.008Z" fill="#616161"/>
<path d="M284.672 318.729L258.964 363.154L230.386 346.693L254.978 301.625L284.672 318.729Z" fill="white"/>
<path d="M275.189 314.738L276.993 311.62L265.439 304.967L263.182 307.825L275.189 314.738Z" fill="#616161"/>
<path d="M273.81 350.232C273.81 350.232 272.495 350.238 271.915 349.961C271.915 349.961 270.905 349.376 270.159 349.004C269.921 348.886 269.715 348.791 269.572 348.74C268.982 348.537 267.626 348.267 266.345 347.377C265.067 346.491 260.534 341.255 260.534 341.255L262.673 338.008L264.243 334.684C264.243 334.684 273.759 335.296 275.047 335.986C275.173 336.053 275.295 336.124 275.403 336.202C276.437 336.889 276.915 337.836 277.417 338.259C277.6 338.414 279.315 340.092 279.254 340.805C279.173 341.796 278.712 342.449 278.115 342.774C278.115 342.774 277.868 344.705 276.915 345.608C276.915 345.608 276.746 347.397 275.237 348.182C275.244 348.175 274.868 349.971 273.81 350.232Z" fill="#EEA886"/>
<path d="M254.195 259.488C254.195 259.488 245.404 256.975 240.366 266.638C235.329 276.301 235.356 280.423 234.681 285.145C234.044 289.599 231.176 301.765 230.884 303.023C230.593 304.278 224.094 319.261 227.074 324.497C230.071 329.76 260.493 345.254 260.3 346.41C260.107 347.571 265.568 334.698 265.568 334.698C265.568 334.698 253.256 327.852 251.242 325.745C247.967 322.322 241.058 318.632 242.478 314.384C244.146 309.396 249.153 292.562 250.316 290.097C251.483 287.634 261.605 262.63 254.195 259.488Z" fill="#285173"/>
<path d="M282.943 209.636C282.943 209.636 298.591 214.544 290.096 241.486C281.6 268.429 260.225 238.365 262.463 221.947C264.7 205.53 282.943 209.636 282.943 209.636Z" fill="#EEA987"/>
<path d="M291.696 225.356C291.696 225.356 283.919 232.97 270.905 233.92C270.905 233.92 265.904 239.771 265.518 242.068C265.518 242.068 253.907 222.322 268.179 210.485C282.455 198.65 296.944 220.479 291.696 225.356Z" fill="#0E2D3D"/>
<path d="M271.064 234.458C270.962 232.496 269.752 228.035 266.829 229.283C263.907 230.531 267.009 239.619 268.945 239.061C268.948 239.061 271.301 239.098 271.064 234.458Z" fill="#EEA987"/>
<path d="M281.414 252.196C281.322 253.221 281.22 254.35 281.126 255.51C281.126 255.51 274.217 255.101 269.603 244.85C269.901 245.296 274.962 252.713 281.414 252.196Z" fill="#A77860"/>
<path d="M110.043 498.6C120.078 491.558 131.822 442.495 132.523 413.27C132.883 398.3 137.317 392.063 141.229 386.56C144.968 381.301 148.199 376.759 146.318 366.328C142.721 346.396 152.176 337.792 152.274 337.708L151.179 336.463C150.759 336.832 140.91 345.706 144.684 366.622C146.443 376.366 143.545 380.442 139.873 385.603C136.022 391.018 131.232 397.755 130.859 413.232C130.106 444.596 118.102 490.922 109.084 497.247L110.043 498.6Z" fill="url(#paint0_linear_31_4241)"/>
<path d="M89.0077 484.285C88.0618 482.144 87.0787 479.929 85.9701 477.592C80.2374 465.521 75.159 463.532 66.7447 460.238C64.6903 459.433 62.3579 458.52 59.8018 457.373C47.7499 451.968 50.0823 444.006 52.1435 436.982C52.4316 435.997 52.7198 435.02 52.9673 434.049C54.0284 429.916 51.9909 427.843 48.9093 424.708C46.6176 422.374 43.7665 419.472 41.5697 414.889C39.1627 409.873 40.3899 407.181 41.8409 405.808C44.8988 402.916 51.9469 403.45 58.6017 407.076C60.6696 408.202 62.3715 409.981 64.175 411.862C68.4195 416.296 73.6979 421.812 87.055 421.873C94.6692 421.91 98.8424 422.959 101.002 425.381C103.453 428.13 102.992 432.243 102.351 437.939C102.131 439.907 101.88 442.139 101.727 444.554C100.819 458.946 109.335 469.326 109.42 469.427C114.508 475.471 120.773 488.009 118.068 495.727C116.935 498.964 114.4 500.997 110.532 501.778C108.992 502.089 107.582 502.238 106.287 502.238C96.9473 502.235 93.5301 494.506 89.0077 484.285ZM57.8118 408.527C51.8689 405.29 45.4955 404.637 42.9868 407.008C41.0815 408.811 41.9799 411.899 43.0681 414.172C45.1463 418.508 47.777 421.187 50.0959 423.547C53.3199 426.832 55.8692 429.426 54.5776 434.458C54.3233 435.446 54.0318 436.444 53.7402 437.445C51.6892 444.443 49.7535 451.048 60.4866 455.861C63.0088 456.991 65.3175 457.897 67.355 458.695C75.8472 462.02 81.4579 464.219 87.4719 476.882C88.5907 479.239 89.5738 481.465 90.5264 483.616C95.7167 495.355 98.8526 502.441 110.203 500.151C113.457 499.495 115.576 497.821 116.502 495.176C118.885 488.374 113.183 476.469 108.145 470.486C107.775 470.046 99.1204 459.517 100.07 444.446C100.226 441.994 100.476 439.742 100.7 437.753C101.293 432.483 101.721 428.678 99.7611 426.48C97.9711 424.471 94.0488 423.561 87.0482 423.527C72.9893 423.463 67.4363 417.662 62.9783 413.005C61.1917 411.141 59.6526 409.532 57.8118 408.527Z" fill="url(#paint1_linear_31_4241)"/>
<path d="M110.352 511.793L112.01 511.705C111.928 510.153 109.837 473.537 95.0997 462.819C78.9322 451.062 73.8334 438.426 71.4061 429.947C68.5448 419.953 53.9843 417.284 53.3673 417.176L53.0791 418.806C53.2215 418.83 67.2363 421.407 69.8094 430.404C72.3045 439.12 77.5388 452.101 94.1199 464.158C108.226 474.416 110.331 511.421 110.352 511.793Z" fill="url(#paint2_linear_31_4241)"/>
<path d="M107.548 520.029C104.08 518.308 104.206 511.381 104.395 500.896C104.636 487.648 104.965 469.503 98.0119 452.811C90.6282 435.082 97.2118 429.9 103.582 424.888C110.715 419.277 117.454 413.973 104.521 390.044C98.5814 379.055 96.6965 371.621 98.5882 366.649C100.456 361.738 105.701 359.824 111.25 357.795C120.831 354.298 131.693 350.33 130.289 330.098C129.859 323.895 130.591 320.08 132.591 318.094C134.764 315.936 137.964 316.17 141.67 316.44C147.27 316.85 153.613 317.313 159.136 310.119C159.709 308.323 164.994 292.281 171.313 289.535C172.639 288.957 173.94 288.967 175.178 289.555C179.541 291.635 182.073 294.104 182.917 297.104C184.389 302.316 180.561 308.198 176.127 315.006C169.167 325.708 161.272 337.836 169.459 352.268C180.283 371.351 174.568 378.027 166.652 387.267C162.119 392.561 156.98 398.564 153.545 408.352C150.783 416.226 155.495 423.731 160.055 430.989C165.77 440.094 171.683 449.51 159.237 457.682C138.656 471.19 118.332 515.284 118.129 515.727L118.044 515.91L117.885 516.035C114.095 519.001 111.332 520.415 109.254 520.415C108.626 520.415 108.06 520.283 107.548 520.029ZM158.322 456.295C169.415 449.016 164.424 441.068 158.648 431.865C154.105 424.627 148.952 416.425 151.979 407.801C155.519 397.722 160.763 391.593 165.391 386.188C173.144 377.134 178.266 371.151 168.015 353.08C159.332 337.775 167.876 324.649 174.737 314.107C178.951 307.637 182.589 302.046 181.321 297.558C180.612 295.045 178.368 292.921 174.463 291.054C173.666 290.675 172.852 290.675 171.978 291.057C166.116 293.604 160.733 310.586 160.678 310.758L160.634 310.897L160.546 311.012C154.457 319.041 147.301 318.517 141.548 318.098C138.11 317.847 135.398 317.648 133.761 319.275C132.15 320.875 131.557 324.382 131.944 329.99C133.432 351.463 121.448 355.84 111.82 359.354C106.409 361.329 101.738 363.034 100.137 367.241C98.4289 371.73 100.287 378.727 105.982 389.263C119.576 414.416 111.969 420.403 104.609 426.19C98.4526 431.033 92.6419 435.606 99.5442 452.175C106.63 469.185 106.297 487.53 106.053 500.923C105.887 510.069 105.755 517.29 108.284 518.545C109.765 519.279 112.596 518.037 116.702 514.851C118.349 511.286 137.815 469.756 158.322 456.295Z" fill="url(#paint3_linear_31_4241)"/>
<path d="M75.0607 327.839C85.5362 324.257 83.3598 344.398 87.7839 359.297C92.208 374.199 137.019 365.798 118.21 403.114C99.4018 440.429 141.999 415.594 129.276 448.154C116.552 480.718 128.17 515.545 114.339 506.687C100.507 497.829 106.569 456.823 92.1842 451.949C77.8 447.076 75.454 441.393 89.6959 428.149C103.938 414.904 52.3808 401.754 65.1039 375.004C77.8271 348.261 62.9614 331.979 75.0607 327.839Z" fill="url(#paint4_linear_31_4241)"/>
<path d="M109.518 504.55C110.837 498.976 122.085 449.917 111.589 443.988C102.338 438.762 102.565 418.432 104.009 399.238C105.287 382.246 83.4106 374.304 82.4783 373.973L81.9224 375.532C82.1393 375.61 103.534 383.382 102.351 399.113C100.87 418.828 100.71 439.747 110.769 445.429C118.739 449.93 111.399 489.357 107.901 504.171L109.518 504.55Z" fill="white"/>
<path d="M149.036 487.08L134.083 543.685H100.663L85.709 487.08H149.036Z" fill="#FF9138"/>
<path d="M149.036 487.08C149.036 487.08 116.115 493.246 116.115 543.681H100.663L85.709 487.08H149.036Z" fill="#FFAC6A"/>
<path opacity="0.5" d="M569.442 130.648H470.769C461.738 130.648 454.419 123.346 454.419 114.336V28.9179C454.419 19.9077 461.738 12.6055 470.769 12.6055H569.442C578.474 12.6055 585.793 19.9077 585.793 28.9179V114.336C585.796 123.346 578.474 130.648 569.442 130.648Z" fill="#E6E7F8"/>
<path d="M524.818 108.322H514.396V110.247H524.818V108.322Z" fill="#4598E6"/>
<path d="M529.028 2.26631C529.028 2.26631 537.422 6.86613 534.757 18.1762C532.093 29.4864 531.079 30.9779 533.245 35.5473C535.412 40.1167 537.314 59.2668 535.005 62.7707C532.696 66.2747 509.277 45.6838 506.677 29.209C504.073 12.7343 509.932 5.73985 512.01 3.12878C514.088 0.517709 521.624 -1.9344 529.028 2.26631Z" fill="#344052"/>
<path d="M544.792 95.7334H535.805C535.371 91.3094 534.968 88.2316 535.053 87.775C535.185 87.0242 526.109 63.2709 525.262 61.3058C524.408 59.3475 521.082 54.078 520.648 49.1163C520.207 44.1546 526.693 42.1523 526.693 42.1523C535.446 43.7183 538.409 55.7962 538.409 55.7962C538.409 55.7962 542.084 80.2902 543.941 87.1831C544.42 88.952 544.677 92.0738 544.792 95.7334Z" fill="#EEA886"/>
<path d="M540.27 61.6994L526.886 67.3307C526.886 67.3307 514.583 36.8705 524.896 40.273C535.175 43.662 539.799 50.0341 540.27 61.6994Z" fill="url(#paint5_linear_31_4241)"/>
<path d="M537.29 76.0381C536.9 79.0617 535.3 89.7732 535.656 92.6684C535.717 93.1453 535.914 94.2445 536.212 95.7361H503.938C504.796 92.6785 505.579 89.9728 506.05 88.4C507.62 83.2151 506.118 81.825 505.325 77.675C505.016 76.0516 503.931 72.967 502.751 69.4799C502.355 68.3165 501.948 67.1022 501.558 65.8846C500.138 61.4945 499.48 57.0063 499.073 54.3919C497.127 42.0062 506.674 40.8157 506.674 40.8157C510.223 40.1629 516.42 38.252 516.42 38.252L526.13 40.2678C526.13 40.2678 527.055 40.6127 528.401 41.6071C528.401 41.6071 528.408 41.6071 528.408 41.6139C529.055 42.0908 529.805 42.7165 530.591 43.5248C531.652 44.6105 533.764 47.7222 535.873 51.1416C536.517 52.1901 537.165 53.2656 537.775 54.3242C539.748 57.7335 541.151 60.4832 541.107 63.5814C541.07 66.6321 537.68 73.0144 537.29 76.0381Z" fill="url(#paint6_linear_31_4241)"/>
<path d="M526.13 40.2722C526.13 40.2722 532.211 50.6421 529.95 51.42C527.689 52.1945 515.766 49.5767 511.108 39.7784C511.108 39.775 518.936 36.2271 526.13 40.2722Z" fill="#EEA886"/>
<path d="M525.258 45.0076C525.258 45.0076 519.854 47.2872 514.963 39.7787C514.963 39.7787 516.278 31.2522 513.498 26.3209C510.718 21.3896 525.645 32.233 525.645 32.233C525.645 32.233 525.404 33.251 525.153 34.7494C525.024 35.5171 524.892 36.41 524.794 37.3604C524.709 38.1519 524.645 38.9805 524.618 39.8058C524.553 41.7269 524.692 43.6277 525.258 45.0076Z" fill="#EEA886"/>
<path d="M511.84 56.625C510.728 62.3342 502.748 69.4842 502.748 69.4842C502.355 68.3173 501.948 67.1065 501.555 65.8923C507.064 62.3849 511.84 56.625 511.84 56.625Z" fill="#393D63"/>
<path d="M509.84 61.1673C509.335 63.2473 507.006 84.3151 507.26 85.0356C507.409 85.4482 508.535 90.322 509.664 95.7369H499.246C498.178 92.2464 497.548 89.3479 497.7 87.7075C498.365 80.6015 495.951 57.9474 495.951 57.9474C495.951 57.9474 493.788 44.2427 505.186 42.5312C505.186 42.5312 511.918 43.414 512.325 48.3757C512.735 53.3408 510.345 59.0906 509.84 61.1673Z" fill="#EEA886"/>
<path d="M495.11 64.0771L509.254 67.3748C509.254 67.3748 520.475 45.6407 510.369 41.6699C499.717 37.4861 492.557 52.2224 495.11 64.0771Z" fill="url(#paint7_linear_31_4241)"/>
<path d="M527.723 3.47072C527.723 3.47072 540.016 7.97245 532.225 29.135C524.435 50.3009 508.528 25.5228 510.932 12.5181C513.332 -0.486474 527.723 3.47072 527.723 3.47072Z" fill="#EEA987"/>
<path d="M534.11 16.3367C534.11 16.3367 527.622 22.1135 517.211 22.3841C517.211 22.3841 514.776 28.303 514.383 30.1192C514.383 30.1192 504.098 12.4979 515.922 3.59588C527.75 -5.30611 538.477 12.6433 534.11 16.3367Z" fill="#344052"/>
<path d="M518.614 23.652C518.607 22.086 517.811 18.4806 515.434 19.3667C513.058 20.2528 515.187 27.6159 516.753 27.2439C516.753 27.2439 518.631 27.3623 518.614 23.652Z" fill="#EEA987"/>
<path d="M524.631 39.4475C518.855 37.8545 516.621 32.3584 516.553 32.1758C521.251 38.2333 524.794 37.3607 524.794 37.3607C524.709 38.1522 524.703 38.646 524.631 39.4475Z" fill="#A77860"/>
<path d="M551.332 33.9648V35.8487H562.441V46.2524H564.33V33.9648H551.332ZM475.881 46.2524H477.77V35.8487H488.879V33.9648H475.881V46.2524ZM562.445 99.9316V110.339H551.335V112.223H564.333V99.9316H562.445ZM477.77 99.9316H475.881V112.223H488.879V110.339H477.77V99.9316Z" fill="#4598E6"/>
<path d="M354.403 196.518H340.487V199.088H354.403V196.518Z" fill="#4598E6"/>
<path d="M389.156 97.1973V99.7102H403.998V113.608H406.516V97.1973H389.156ZM288.374 113.608H290.896V99.7102H305.738V97.1973H288.377V113.608H288.374ZM403.994 185.311V199.212H389.152V201.725H406.513V185.311H403.994ZM290.896 185.311H288.374V201.728H305.735V199.212H290.893V185.311H290.896Z" fill="#4598E6"/>
<path d="M658.334 290.396H646.564C646.35 289.926 646.174 289.517 646.032 289.189C642.54 280.96 624.535 262.09 624.535 262.09C624.535 262.09 624.535 262.1 624.535 262.131C624.535 262.131 624.525 262.141 624.525 262.151C624.525 262.151 624.525 262.161 624.525 262.171C624.515 262.202 624.504 262.222 624.494 262.253C624.484 262.293 624.474 262.344 624.454 262.408C624.443 262.439 624.433 262.479 624.433 262.51C624.423 262.54 624.413 262.56 624.403 262.591C623.664 265.341 620.04 279.039 618.226 290.393H538.565C538.382 289.341 538.165 288.336 537.921 287.41C537.192 284.589 536.7 281.798 536.385 279.191C536.375 279.059 536.354 278.934 536.344 278.802C536.283 278.322 536.232 277.841 536.192 277.371C535.507 270.238 536.019 264.769 536.059 264.214C535.836 264.695 534.225 270.583 532.117 277.851C530.957 281.839 529.649 286.243 528.347 290.393H509.535L533.141 222.447C533.663 222.038 539.789 219.085 544.257 216.958C548.817 214.79 554.319 211.611 559.289 208.891C561.828 207.501 564.228 206.243 566.306 205.293L566.625 205.151V205.141C570.056 203.575 572.341 202.543 572.341 202.543C572.341 202.543 572.341 202.543 572.351 202.543C572.432 202.533 572.975 202.482 573.836 202.401C578.629 201.941 593.508 200.551 598.485 200.263C598.895 200.233 599.245 200.223 599.509 200.213C599.736 200.203 599.909 200.203 600.011 200.213C600.635 200.253 603.709 201.315 607.737 202.851C607.889 202.902 608.045 202.962 608.198 203.023C608.395 203.094 608.578 203.165 608.771 203.236C609.12 203.368 609.479 203.504 609.835 203.646C610.554 203.933 611.3 204.217 612.049 204.515C612.307 204.616 612.571 204.718 612.839 204.823C620.901 208.012 630.142 211.969 632.336 213.542C633.79 214.574 638.309 223.07 643.543 233.578C649.178 251.595 656.07 277.581 658.334 290.396Z" fill="white"/>
<path d="M599.879 197.913C599.665 208.598 578.934 214.442 578.934 214.442C578.934 214.442 570.262 203.596 572.334 202.557C573.147 202.148 573.476 200.531 573.578 198.715C573.673 196.987 573.561 195.079 573.459 193.868C573.398 193.114 573.341 192.627 573.341 192.627C573.341 192.627 576.304 189.509 580.07 185.795C586.657 179.298 595.709 170.977 595.722 174.289C595.722 174.465 595.699 174.674 595.644 174.918C594.054 182.362 599.879 197.913 599.879 197.913Z" fill="#EEA886"/>
<path d="M591.891 182.258C591.847 182.322 590.969 183.634 589.467 185.518C586.284 189.513 580.3 196.074 573.574 198.709C573.669 196.981 573.557 195.073 573.456 193.862C572.768 193.845 572.079 193.764 571.398 193.615C573.242 190.402 575.907 187.03 575.907 187.03L580.07 185.789L591.891 182.258Z" fill="#A77860"/>
<path d="M595.871 174.428C594.078 178.321 592.376 181.142 591.891 182.261C591.891 182.261 591.891 182.261 591.891 182.265C591.576 182.992 590.722 184.179 589.471 185.522C586.054 189.195 579.704 194.038 573.459 193.869C572.771 193.852 572.083 193.771 571.401 193.622C568.879 193.071 565.903 191.904 564.265 188.704C551.332 163.439 560.695 142.777 560.695 142.777C560.695 142.777 596.065 132.8 601.597 143.42C605.479 150.871 600.085 165.283 595.871 174.428Z" fill="#EEA886"/>
<path d="M560.695 142.773C560.695 142.773 557.41 142.59 556.6 136.377C555.797 130.238 557.421 128.537 557.421 128.537C557.421 128.537 572.022 122.439 577.266 121.648C582.511 120.856 595.404 120.092 598.424 123.542C598.424 123.542 605.767 121.84 607.767 134C610.941 153.292 596.953 172.026 596.953 172.026C596.953 172.026 597.072 159.42 594.285 157.753C591.498 156.082 589.095 160.053 589.095 160.053L583.396 161.071C583.396 161.071 592.051 142.425 581.667 141.735C571.283 141.045 566.638 143.855 560.695 142.773Z" fill="#E8734D"/>
<path d="M589.247 155.03C589.79 149.477 599.855 147.356 599.18 153.177C598.506 158.998 593.549 164.589 591.261 164.392C588.969 164.196 588.834 159.265 589.247 155.03Z" fill="#EEA886"/>
<path d="M648.161 234.106C644.882 223.628 642.045 215.338 640.784 214.438C638.58 212.865 621.121 208.069 612.832 204.829C612.564 204.728 612.3 204.626 612.042 204.521C611.293 204.224 610.547 203.94 609.829 203.652C609.469 203.51 609.11 203.375 608.764 203.243C608.571 203.172 608.384 203.101 608.191 203.03C608.039 202.969 607.883 202.908 607.73 202.857C607.72 202.868 607.71 202.888 607.689 202.898C606.95 203.727 603.119 208.069 598.539 214.57C589.973 226.712 578.816 246.39 580.528 264.556C581.08 270.383 581.758 278.754 582.894 288.147C582.975 288.894 583.067 289.638 583.172 290.396H621.819C622.291 280.564 623.131 267.61 624.403 262.594C624.413 262.564 624.423 262.543 624.433 262.513C624.433 262.482 624.443 262.442 624.453 262.411C624.464 262.361 624.484 262.31 624.494 262.256C624.504 262.225 624.515 262.205 624.525 262.175C624.525 262.165 624.525 262.154 624.525 262.154C624.525 262.144 624.535 262.134 624.535 262.134C624.535 262.134 633.888 276.722 634.37 290.396H658.694C657.507 277.692 653.785 252.086 648.161 234.106Z" fill="#292C47"/>
<path d="M566.462 205.424C566.462 205.424 563.543 215.114 559.773 239.31C559.773 239.31 559.773 239.31 559.773 239.321C559.641 240.129 559.516 240.958 559.383 241.803C559.373 241.894 559.353 241.996 559.343 242.101C559.251 242.652 559.17 243.227 559.085 243.799C559.075 243.87 559.065 243.93 559.055 244.002C558.994 244.38 558.933 244.769 558.882 245.165C558.739 246.115 558.594 247.096 558.451 248.087C557.037 257.96 555.153 273.653 553.237 290.395H537.961C537.131 285.745 536.354 281.514 536.415 278.608C536.385 278.669 536.364 278.74 536.344 278.805C535.124 282.177 533.781 285.846 532.418 289.415C532.296 289.743 532.174 290.067 532.049 290.395H505.718L531.947 221.939C532.469 221.53 539.222 217.901 543.687 215.787C548.349 213.568 554.241 210.839 559.465 208.438C561.963 207.281 564.313 206.209 566.299 205.299L566.462 205.424Z" fill="#292C47"/>
<path d="M601.984 229.364L591.891 235.046L596.204 239.433L586.738 290.4H583.172C581.86 280.098 581.111 270.847 580.528 264.56C577.894 236.47 605.988 204.793 607.73 202.861C609.083 203.372 610.537 203.933 612.042 204.529L601.984 229.364Z" fill="#285173"/>
<path d="M566.618 205.158C566.618 205.158 562.848 217.436 558.462 248.089C557.048 257.951 555.153 273.655 553.237 290.397H551.752L549.796 242.241L554.6 237.049L550.329 231.722L559.468 208.436C561.967 207.279 564.316 206.207 566.303 205.297L566.618 205.158Z" fill="#285173"/>
<path d="M608.242 202.979L599.878 197.912C599.878 197.912 599.644 202.488 578.934 214.441L584.816 230.97L608.242 202.979Z" fill="#E6E7F8"/>
<path d="M573.422 200.217C573.422 200.217 573.748 205.155 578.931 214.439L567.452 229.368L566.615 205.155L573.422 200.217Z" fill="#E6E7F8"/>
<path d="M578.965 214.439C578.965 214.439 581.189 223.318 580.389 225.804C580.389 225.804 575.497 227.579 571.981 225.361C571.981 225.361 574.469 219.144 578.965 214.439Z" fill="#FF9138"/>
<path d="M576.266 244.625C573.92 260.572 573.921 276.702 574.792 290.397H564.987C564.855 288.466 564.73 286.45 564.608 284.346C562.784 252.77 573.971 224.559 573.971 224.559L578.962 223.311C578.962 223.314 577.355 237.266 576.266 244.625Z" fill="#FF9138"/>
<path d="M536.727 264.299C536.354 271.875 536.409 278.602 536.409 278.602V278.606C536.405 278.643 536.398 278.846 536.382 279.184C536.365 279.056 536.351 278.93 536.334 278.802C535.12 282.174 533.771 285.84 532.415 289.409C532.1 285.272 532.018 281.416 532.11 277.848C532.656 256.604 539.351 245.467 539.351 245.467C537.819 249.177 537.08 257.122 536.727 264.299Z" fill="#2D3133"/>
<path d="M445.082 290.487L413.754 307.669L382.294 258.275L420.345 245.088L445.082 290.487Z" fill="#292C47"/>
<path d="M443.096 289.006L413.798 305.071L384.375 258.88L419.962 246.549L443.096 289.006Z" fill="white"/>
<path d="M453.826 280.369C453.826 280.369 448.374 277.768 445.981 276.408C443.587 275.049 437.431 273.182 436.933 272.739C436.434 272.296 418.684 271.203 417.606 270.276C416.527 269.35 415.483 272.448 420.084 273.456C424.684 274.46 431.088 276.919 431.437 278.715C431.786 280.508 426.711 280.934 426.196 282.412C425.681 283.89 426.342 283.558 427.067 283.876C427.796 284.194 433.105 281.258 435.441 282.09C437.777 282.922 441.347 281.769 443.137 282.381C444.926 282.993 453.629 285.916 453.629 285.916L453.826 280.369Z" fill="#EEA886"/>
<path d="M412.226 301.473C412.226 301.473 407.646 297.36 405.428 295.639C403.211 293.917 399.052 288.857 398.438 288.563C397.824 288.269 389.881 272.004 388.586 271.351C387.291 270.698 389.81 268.51 392.553 272.444C395.295 276.377 400.109 281.44 401.94 281.072C403.771 280.703 402.194 275.765 403.391 274.706C404.588 273.648 404.53 274.395 405.113 274.956C405.696 275.518 404.991 281.653 406.689 283.524C408.385 285.394 408.686 289.199 409.961 290.643C411.236 292.087 417.382 299.133 417.382 299.133L412.226 301.473Z" fill="#EEA886"/>
<path d="M510.881 521.324C510.881 521.324 511.871 528.187 511.997 529.215C512.122 530.246 523.021 528.609 523.021 528.609L523.903 520.441C523.899 520.441 512.241 520.357 510.881 521.324Z" fill="#424773"/>
<path d="M511.878 528.346C511.878 528.346 508.424 532.483 505.084 534.282C501.745 536.085 496.494 536.798 494.521 538.665C493.097 540.011 489.327 545.809 503.199 545.694C517.072 545.575 523.76 546.512 525.245 544.29C526.73 542.068 523.096 527.883 523.096 527.883C523.096 527.883 519.811 529.06 511.878 528.346Z" fill="#292C47"/>
<path d="M432.786 521.324C432.786 521.324 433.776 528.187 433.901 529.215C434.027 530.246 444.926 528.609 444.926 528.609L445.808 520.441C445.804 520.441 434.149 520.357 432.786 521.324Z" fill="#424773"/>
<path d="M433.783 528.346C433.783 528.346 430.329 532.482 426.989 534.281C423.65 536.084 411.357 537.566 409.384 539.429C407.957 540.775 405.587 546.197 425.108 545.69C438.973 545.328 445.669 546.508 447.154 544.286C448.639 542.064 445.004 527.879 445.004 527.879C445.004 527.879 441.906 529.14 433.783 528.346Z" fill="#292C47"/>
<path d="M501.853 345.002C501.853 345.002 512.095 361.237 511.332 375.909C510.569 390.584 515.044 406.602 516.583 421.93C518.299 439.021 525.316 479.475 525.57 488.618C525.825 497.76 524.482 526.948 524.482 526.948L510.434 527.27C510.434 527.27 498.632 456.544 495.578 449.326C492.523 442.109 477.366 390.662 476.858 384.888C476.346 379.115 501.853 345.002 501.853 345.002Z" fill="#292C47"/>
<path d="M447.944 347.204C447.944 347.204 440.225 387.422 439.208 396.401C438.191 405.381 437.509 439.863 437.001 445.477C436.492 451.092 433.604 518.929 430.888 527.269H448.849C448.849 527.269 462.637 477.953 462.637 454.619C462.637 431.286 473.288 403.893 480.167 388.497C487.042 373.101 502.783 372.736 507.01 344.173C507.01 344.173 453.666 338.143 447.944 347.204Z" fill="#292C47"/>
<path d="M484.764 208.523C484.764 208.523 471.017 203.399 464.68 213.84C458.341 224.281 458.955 245.179 465.881 247.75C472.81 250.32 483.218 248.978 486.764 242.443C490.31 235.912 493.513 226.469 493.361 220.158C493.208 213.846 488.374 210.346 484.764 208.523Z" fill="#EEA886"/>
<path d="M467.372 248.227C467.372 248.227 467.945 251.93 466.999 253.753C466.054 255.576 484.808 255.624 484.808 255.624C484.808 255.624 486.33 245.704 489.215 237.319C492.103 228.938 467.372 248.227 467.372 248.227Z" fill="#EEA886"/>
<path d="M489.218 237.323C489.218 237.323 487.923 239.454 482.642 238.625C477.356 237.8 470.912 230.785 468.705 230.014C466.498 229.243 466.477 227.951 466.477 227.951L465.098 229.963L462.755 230.112C462.755 230.112 464.891 223.838 461.667 221.281C458.443 218.721 465.013 200.974 481.957 206.883C481.957 206.883 494.972 210.461 494.497 217.848C494.026 225.231 492.131 233.643 489.218 237.323Z" fill="#3A3F47"/>
<path d="M465.888 253.534C465.888 253.534 465.949 250.051 467.532 249.716C469.115 249.381 485.008 247.856 486.954 248.62V252.679C486.95 252.679 483.204 254.979 465.888 253.534Z" fill="#E2D2CA"/>
<path d="M466.826 225.268C467.125 224.03 470.281 220.489 471.488 224.28C472.698 228.072 469.661 233.169 467.969 232.733C466.277 232.293 466.077 228.407 466.826 225.268Z" fill="#EEA886"/>
<path d="M402.812 294.712C402.818 294.709 402.829 294.709 402.839 294.709C402.726 294.757 402.713 294.76 402.812 294.712Z" fill="#323657"/>
<path d="M513.407 383.676C513.407 383.676 504.976 386.151 490.602 387.734C476.228 389.317 440.309 387.163 440.082 385.468C439.855 383.774 447.808 322.376 447.357 319.214C446.907 316.052 446.662 304.786 446.662 304.786C446.486 307.874 443.333 320.482 439.526 327.355C438.15 329.838 433.539 337.623 431.315 335.851C420.555 327.281 403.893 294.981 402.835 294.707C403.723 294.321 410.731 291.101 411.714 290.773C412.575 290.486 420.338 298.687 425.04 303.771C427.139 306.037 428.627 307.684 428.627 307.684C429.986 304.637 434.933 285.429 436.468 278.78C439.936 263.79 439.404 263.164 439.404 263.164C449.92 259.992 465.884 253.531 465.884 253.531L486.947 252.676C486.947 252.676 506.278 256.92 513.892 260.353C514.614 260.678 514.617 277.559 516.601 281.986L510.288 295.271C510.288 295.271 506.644 321.588 505.884 333.294C505.542 338.665 513.407 383.676 513.407 383.676Z" fill="#3064C7"/>
<path d="M517.479 303.901C516.929 305.674 514.431 307.169 512.81 307.825C511.773 308.244 510.61 308.379 509.437 308.163L508.613 308.011L494.178 305.339C494.178 305.339 491.019 269.051 513.899 260.355C514.502 260.552 522.53 287.653 517.479 303.901Z" fill="#0A72BF"/>
<path d="M512.807 307.822C511.769 308.241 510.607 308.376 509.434 308.16L508.61 308.008L510.034 289.463L512.807 307.822Z" fill="#3064C7"/>
<path d="M428.63 307.687L426.867 315.142C426.867 315.142 424.952 307.663 425.043 303.777C427.142 306.04 428.63 307.687 428.63 307.687Z" fill="#0A72BF"/>
<path d="M488.679 209.755C488.679 209.755 506.694 207.503 488.984 237.527L488.679 209.755Z" fill="#3A3F47"/>
<path d="M396.776 255.627L394.942 252.489L409.367 247.523L411.198 250.645L396.776 255.627Z" fill="#292C47"/>
<g opacity="0.95">
<path opacity="0.95" d="M671.885 121.117H682.103L678.974 114.646H668.756L671.885 121.117Z" fill="url(#paint8_linear_31_4241)"/>
<path opacity="0.95" d="M667.101 121.117H669.539L666.41 114.646H663.976L667.101 121.117Z" fill="url(#paint9_linear_31_4241)"/>
<path opacity="0.95" d="M631.797 113.409H673.177L671.804 110.172H630.424L631.797 113.409Z" fill="url(#paint10_linear_31_4241)"/>
</g>
</g>
<defs>
<linearGradient id="paint0_linear_31_4241" x1="152.274" y1="417.529" x2="109.088" y2="417.529" gradientUnits="userSpaceOnUse">
<stop stop-color="#3076A1"/>
<stop offset="1" stop-color="#48C9B6"/>
</linearGradient>
<linearGradient id="paint1_linear_31_4241" x1="118.72" y1="453.093" x2="40.2091" y2="453.093" gradientUnits="userSpaceOnUse">
<stop stop-color="#3076A1"/>
<stop offset="1" stop-color="#48C9B6"/>
</linearGradient>
<linearGradient id="paint2_linear_31_4241" x1="112.009" y1="464.484" x2="53.0812" y2="464.484" gradientUnits="userSpaceOnUse">
<stop stop-color="#3076A1"/>
<stop offset="1" stop-color="#48C9B6"/>
</linearGradient>
<linearGradient id="paint3_linear_31_4241" x1="183.24" y1="404.763" x2="94.75" y2="404.763" gradientUnits="userSpaceOnUse">
<stop stop-color="#3076A1"/>
<stop offset="1" stop-color="#48C9B6"/>
</linearGradient>
<linearGradient id="paint4_linear_31_4241" x1="130.552" y1="501.133" x2="79.2465" y2="346.855" gradientUnits="userSpaceOnUse">
<stop stop-color="#3076A1"/>
<stop offset="1" stop-color="#48C9B6"/>
</linearGradient>
<linearGradient id="paint5_linear_31_4241" x1="539.946" y1="66.2791" x2="535.498" y2="41.1544" gradientUnits="userSpaceOnUse">
<stop stop-color="#3076A1"/>
<stop offset="1" stop-color="#48C9B6"/>
</linearGradient>
<linearGradient id="paint6_linear_31_4241" x1="540.406" y1="93.5235" x2="531.315" y2="40.5677" gradientUnits="userSpaceOnUse">
<stop stop-color="#3076A1"/>
<stop offset="1" stop-color="#48C9B6"/>
</linearGradient>
<linearGradient id="paint7_linear_31_4241" x1="514.257" y1="66.3574" x2="510.185" y2="41.9704" gradientUnits="userSpaceOnUse">
<stop stop-color="#3076A1"/>
<stop offset="1" stop-color="#48C9B6"/>
</linearGradient>
<linearGradient id="paint8_linear_31_4241" x1="668.757" y1="117.881" x2="682.103" y2="117.881" gradientUnits="userSpaceOnUse">
<stop stop-color="#D1D7E0"/>
<stop offset="1" stop-color="#EBEBFF"/>
</linearGradient>
<linearGradient id="paint9_linear_31_4241" x1="663.975" y1="117.881" x2="669.537" y2="117.881" gradientUnits="userSpaceOnUse">
<stop stop-color="#D1D7E0"/>
<stop offset="1" stop-color="#EBEBFF"/>
</linearGradient>
<linearGradient id="paint10_linear_31_4241" x1="630.425" y1="111.791" x2="673.175" y2="111.791" gradientUnits="userSpaceOnUse">
<stop stop-color="#D1D7E0"/>
<stop offset="1" stop-color="#EBEBFF"/>
</linearGradient>
<clipPath id="clip0_31_4241">
<rect width="711" height="560" fill="white"/>
</clipPath>
</defs>
</svg>
