<svg width="48" height="48" viewBox="0 0 48 48" fill="none" xmlns="http://www.w3.org/2000/svg">
<circle opacity="0.15" cx="24" cy="24" r="23.5" fill="#A5A6F6" stroke="#DADADA"/>
<path d="M22.5001 13.5C20.9387 13.4995 19.404 13.9052 18.0468 14.6773C16.6896 15.4494 15.5567 16.5613 14.7592 17.9037C13.9618 19.2461 13.5274 20.773 13.4986 22.3341C13.4698 23.8953 13.8477 25.4371 14.5951 26.808L13.5301 30.543C13.4926 30.6742 13.4916 30.813 13.5272 30.9447C13.5628 31.0764 13.6336 31.1959 13.7321 31.2903C13.8305 31.3847 13.9528 31.4505 14.0859 31.4806C14.2189 31.5107 14.3576 31.5039 14.4871 31.461L17.9941 30.2925C18.6961 30.699 19.4581 31.0125 20.2636 31.2195C20.0008 30.6538 19.8035 30.06 19.6756 29.4495C19.2621 29.2815 18.8645 29.0766 18.4876 28.8375C18.3936 28.7779 18.2874 28.7399 18.1769 28.7265C18.0664 28.713 17.9542 28.7243 17.8486 28.7595L15.3616 29.589L16.1266 26.9175C16.1545 26.8191 16.1619 26.7161 16.1485 26.6147C16.1351 26.5133 16.1011 26.4158 16.0486 26.328C15.5255 25.4404 15.1909 24.4546 15.0656 23.432C14.9403 22.4095 15.027 21.372 15.3204 20.3844C15.6137 19.3968 16.1074 18.4803 16.7706 17.6919C17.4338 16.9035 18.2523 16.2602 19.1751 15.8021C20.0979 15.344 21.1051 15.081 22.1341 15.0294C23.163 14.9777 24.1916 15.1386 25.1556 15.5021C26.1196 15.8655 26.9984 16.4236 27.7372 17.1416C28.4759 17.8597 29.0589 18.7222 29.4496 19.6755C30.0601 19.8035 30.6539 20.0007 31.2196 20.2635C30.7226 18.3285 29.5962 16.6137 28.0176 15.3892C26.439 14.1647 24.4979 13.5001 22.5001 13.5V13.5ZM34.5001 27.75C34.5001 28.6364 34.3255 29.5142 33.9863 30.3331C33.6471 31.1521 33.1499 31.8962 32.5231 32.523C31.8963 33.1498 31.1522 33.647 30.3332 33.9862C29.5143 34.3254 28.6365 34.5 27.7501 34.5C26.8637 34.5 25.9859 34.3254 25.167 33.9862C24.348 33.647 23.6039 33.1498 22.9771 32.523C22.3503 31.8962 21.8531 31.1521 21.5139 30.3331C21.1747 29.5142 21.0001 28.6364 21.0001 27.75C21.0001 25.9598 21.7113 24.2429 22.9771 22.977C24.243 21.7112 25.9599 21 27.7501 21C29.5403 21 31.2572 21.7112 32.5231 22.977C33.7889 24.2429 34.5001 25.9598 34.5001 27.75V27.75ZM26.4061 23.844C26.3364 23.7742 26.2537 23.7187 26.1625 23.6809C26.0714 23.6431 25.9738 23.6237 25.8751 23.6237C25.7764 23.6237 25.6788 23.6431 25.5876 23.6809C25.4965 23.7187 25.4138 23.7742 25.3441 23.844L22.7191 26.469C22.6494 26.5382 22.594 26.6204 22.5561 26.7111C22.5182 26.8017 22.4985 26.8989 22.4983 26.9971C22.498 27.0954 22.5171 27.1927 22.5545 27.2835C22.5918 27.3743 22.6468 27.4569 22.7161 27.5265L25.3441 30.156C25.4849 30.2968 25.6759 30.3759 25.8751 30.3759C26.0743 30.3759 26.2653 30.2968 26.4061 30.156C26.5469 30.0152 26.626 29.8242 26.626 29.625C26.626 29.4258 26.5469 29.2348 26.4061 29.094L25.0606 27.75H27.3751C28.8241 27.75 30.0001 28.926 30.0001 30.375V30.75C30.0001 30.9489 30.0791 31.1397 30.2198 31.2803C30.3604 31.421 30.5512 31.5 30.7501 31.5C30.949 31.5 31.1398 31.421 31.2804 31.2803C31.4211 31.1397 31.5001 30.9489 31.5001 30.75V30.375C31.5001 29.281 31.0655 28.2318 30.2919 27.4582C29.5183 26.6846 28.4691 26.25 27.3751 26.25H25.0606L26.4061 24.906C26.4759 24.8363 26.5314 24.7536 26.5692 24.6625C26.607 24.5713 26.6264 24.4737 26.6264 24.375C26.6264 24.2763 26.607 24.1787 26.5692 24.0876C26.5314 23.9964 26.4759 23.9137 26.4061 23.844V23.844Z" fill="#AEAFF7"/>
</svg>
