<svg width="605" height="615" viewBox="0 0 605 615" fill="none" xmlns="http://www.w3.org/2000/svg">
<path d="M605 569.5C605 594.63 469.568 615 302.5 615C135.432 615 0 594.63 0 569.5C0 544.37 135.432 524 302.5 524C469.565 524 605 544.37 605 569.5Z" fill="#E6E7F8"/>
<path d="M216.79 192.74H214.024V415.663H216.79V192.74Z" fill="#A9B1D4"/>
<path d="M166 443.35V338.963L100.881 376.523V257.986H103.648L103.671 371.727L168.767 334.168V443.35H166Z" fill="#A9B1D4"/>
<path d="M265.145 386.159V278.016L322.698 244.827V130.047H325.488V246.41L267.935 279.623V386.159H265.145Z" fill="#A9B1D4"/>
<path d="M247.246 236.723C246.631 237.951 245.969 239.203 245.283 240.431C244.999 240.904 244.739 241.4 244.455 241.896C241.003 247.872 237.102 253.282 232.94 258.006C232.302 258.738 231.64 259.447 231.001 260.132C228.968 262.329 226.863 264.337 224.712 266.203C215.703 274.022 206.079 278.723 197.449 279.431C194.28 279.691 191.253 279.408 188.44 278.534C186.95 278.085 185.508 277.447 184.136 276.668C180.826 274.754 178.201 272.014 176.215 268.613C168.152 254.817 170.777 230.203 184.136 207.077C200.806 178.258 227.809 162.667 244.479 172.281C260.132 181.352 261.054 209.439 247.246 236.723Z" fill="#1391EE"/>
<path d="M247.245 236.721C246.631 237.95 245.969 239.201 245.283 240.43C244.999 240.902 244.739 241.398 244.455 241.894C241.003 247.871 237.102 253.28 232.94 258.005C231.663 254.225 230.93 250.209 230.883 246.194C230.836 242.06 232.136 238.587 234.075 234.855C234.95 233.154 236.18 231.359 238.071 230.957C239.797 230.603 241.476 231.572 242.824 232.611C244.432 233.839 245.921 235.209 247.245 236.721Z" fill="#B4BCDF"/>
<path d="M245.283 240.431C244.999 240.903 244.739 241.399 244.455 241.895C229.157 268.352 205.133 283.659 188.416 278.557C188.109 277.447 187.778 276.313 187.447 275.155C186.335 271.092 183.876 264.974 183.545 262.069C182.788 255.407 186.643 250.258 195.297 244.399C201.137 240.431 212.818 235.234 224.239 231.667C238.048 227.344 241.594 231.1 245.283 240.431Z" fill="#DEE1EE"/>
<path d="M231.001 260.156C228.968 262.353 226.863 264.361 224.712 266.227C224.239 261.408 223.671 256.66 223.033 251.936C225.208 250.424 226.272 249.668 228.4 248.156C229.417 252.148 230.268 256.164 231.001 260.156Z" fill="#1391EE"/>
<path d="M230.717 247.613C230.741 247.707 230.765 247.802 230.741 247.944C230.717 248.605 230.316 249.408 230.103 250.022C229.63 251.345 229.015 252.621 228.306 253.826C227.904 254.487 227.431 255.172 226.721 255.456C225.917 255.786 224.995 255.55 224.239 255.125C223.387 254.652 221.803 253.92 221.992 252.857C222.158 251.912 222.489 250.967 222.796 250.07C223.435 248.227 224.286 245.959 225.965 244.826C227.88 243.574 229.228 245.463 230.245 246.857C230.481 247.164 230.647 247.353 230.717 247.613Z" fill="#3064C7"/>
<path d="M206.552 238.259C206.15 251.157 230.363 251.369 230.008 239.251C229.512 222.361 228.495 220.424 220.526 217.802C218.351 217.093 216.057 216.527 213.74 216.479C205.322 216.314 208.585 220.59 208.893 223.566C209.862 232.401 206.717 233.605 206.552 238.259Z" fill="#E5A07D"/>
<path d="M206.552 238.259C206.694 233.629 209.839 232.401 208.916 223.566C208.609 220.59 205.346 216.314 213.764 216.479C216.081 216.527 218.351 217.07 220.55 217.802C228.4 220.377 229.511 222.314 230.008 238.566C223.316 237.928 217.381 230.534 210.572 234.928C208.751 236.298 207.521 238.046 206.67 239.983C206.576 239.416 206.552 238.849 206.552 238.259Z" fill="#E5A07D"/>
<path d="M210.548 234.904C217.382 230.511 223.293 237.904 229.984 238.542C229.984 238.778 230.008 238.991 230.008 239.227C230.339 250.802 208.325 251.133 206.647 239.96C207.498 238.023 208.727 236.275 210.548 234.904Z" fill="#E5A07D"/>
<path d="M226.059 246.195C226.485 247.565 228.306 248.061 229.511 248.864C230.032 249.219 230.954 249.904 231.663 249.762C232.373 249.62 232.775 248.699 233.011 248.109C234.713 243.951 235.707 239.416 235.754 234.904C235.777 233.486 235.541 231.88 234.406 230.888C233.413 229.99 231.663 229.801 230.434 230.321C229.11 230.888 228.778 233.51 229.251 234.715C230.954 239.014 229.015 243.998 226.059 246.195Z" fill="#B4BCDF"/>
<path d="M226.249 246.27C226.249 246.27 224.144 249.601 221.59 251.868C220.952 252.435 220.432 253.12 219.581 252.86C215.419 251.538 206.67 244.191 204.92 239.538C204.282 237.86 205.512 235.782 206.457 234.459C206.623 234.223 207.971 232.404 208.231 232.238C208.396 232.498 209.295 235.829 210.761 237.978C214.142 242.939 220.266 245.443 226.249 246.27Z" fill="#B4BCDF"/>
<path d="M197.685 278.675C197.614 278.935 197.519 279.195 197.425 279.431C194.256 279.691 191.23 279.408 188.416 278.534C186.926 278.085 185.484 277.447 184.113 276.667C180.802 274.754 178.178 272.014 176.191 268.612C176.262 268.14 176.357 267.667 176.428 267.171C177.043 263.486 178.296 259.848 180.164 256.541C182.032 253.187 184.822 250.966 188.274 248.817C189.835 247.848 191.774 246.927 193.618 247.47C195.32 247.966 196.337 249.478 197.047 250.919C201.445 259.612 200.617 269.935 197.685 278.675Z" fill="#B4BCDF"/>
<path d="M238.355 197.722C240.034 200.392 241.003 203.486 240.98 206.77C240.956 208.187 240.743 209.581 240.27 210.927C239.821 212.179 239.017 213.384 239.017 214.754C238.993 216.36 240.176 218.179 240.696 219.691C241.169 221.061 241.429 222.62 240.885 223.967C240.578 224.746 240.01 225.384 239.561 226.093C237.433 229.447 239.443 234.408 235.707 236.817C234.785 237.408 233.673 237.526 232.586 237.597C231.214 237.667 224.995 235.919 222.607 234.88C219.959 233.699 217.358 230.699 215.443 228.526C213.953 226.825 211.423 224.628 210.477 222.597C210.193 221.959 210.879 221.864 210.241 221.534C209.862 221.345 209.389 218.864 208.964 218.841C208.444 218.793 207.758 218.226 207.332 217.943C206.505 217.376 206.103 219.408 205.819 218.439C204.66 214.352 203.171 210.195 203.36 205.872C203.525 201.927 203.431 198.549 205.985 195.195C207.9 192.667 210.619 190.848 213.575 189.714C218.091 187.99 223.198 187.896 227.786 189.455C232.089 190.896 235.943 193.896 238.355 197.722Z" fill="#F1BCA4"/>
<path d="M203.336 205.824C203.502 201.879 203.407 198.501 205.961 195.147C207.876 192.62 210.595 190.801 213.551 189.667C216.247 188.651 219.155 188.202 222.04 188.344C226.343 196.942 220.101 207.974 224.806 216.903C226.39 219.006 229.535 220.565 229.535 223.187C230.576 227.887 225.894 232.069 228.471 236.793C226.319 236.226 223.908 235.447 222.607 234.88C219.959 233.699 217.358 230.699 215.443 228.525C213.953 226.824 211.423 224.628 210.477 222.596C210.193 221.958 210.879 221.864 210.241 221.533C209.862 221.344 209.389 218.864 208.964 218.84C208.444 218.793 207.758 218.226 207.332 217.943C206.505 217.376 206.103 219.407 205.819 218.439C204.637 214.305 203.147 210.147 203.336 205.824Z" fill="#F1BCA4"/>
<path d="M223.364 201.361C222.252 201.172 221.117 201.219 220.101 201.668C218.375 202.447 217.334 204.337 217.05 206.203C216.436 210.337 217.878 214.471 217.996 218.581C218.02 219.196 217.973 219.833 217.665 220.377C216.838 221.841 215.277 221.038 214.402 220.117C213.835 219.526 213.409 218.818 212.865 218.203C212.321 217.589 211.659 217.046 210.855 216.904C209.579 216.668 208.585 217.684 208.373 218.865C208.184 219.952 208.396 221.038 208.68 222.078C208.751 222.337 209.295 224.227 208.515 224.227C207.734 224.227 200.877 217.188 200.57 205.188C200.286 193.684 208.254 191.534 208.254 191.534C208.254 191.534 211.778 185.581 221.047 186.03C225.917 186.266 230.694 187.849 234.808 190.424C234.974 190.518 235.139 190.636 235.305 190.731C237.315 192.03 239.206 193.565 240.483 195.573C244.053 201.077 239.253 205.471 233.484 204.55C230.765 204.125 228.258 202.849 225.657 201.951C224.924 201.715 224.144 201.503 223.364 201.361Z" fill="#1B151E"/>
<path d="M209.626 213.761C206.197 213.525 205.346 217.777 207.687 221.037C208.373 221.982 209.579 222.832 210.477 223.612C216.601 228.832 218.138 223.187 216.199 221.415C211.683 217.305 213.929 214.068 209.626 213.761Z" fill="#F1BCA4"/>
<path d="M211.707 221.864C211.305 221.51 207.427 219.219 210.075 217.636C210.808 217.211 211.636 217.849 211.754 218.628C211.801 219.03 211.683 219.455 211.754 219.857C211.778 220.093 211.896 220.329 212.014 220.518C212.369 221.085 213.551 221.628 213.315 222.455C213.078 223.164 211.919 222.077 211.707 221.864Z" fill="#E5A07D"/>
<path d="M133.464 303.054C132.85 304.212 132.211 305.369 131.549 306.527C131.454 306.692 131.336 306.881 131.242 307.046C128.901 311.039 126.347 314.794 123.651 318.243C122.185 320.133 120.672 321.952 119.112 323.653C119.041 323.724 118.97 323.818 118.899 323.889C118.331 324.527 117.74 325.141 117.173 325.732C113.555 329.487 109.772 332.747 105.941 335.417C99.486 339.952 92.8653 342.858 86.6938 343.803C84.8968 344.086 83.1234 344.181 81.4209 344.133C77.7559 344.015 74.3037 343.094 71.2298 341.322C69.4091 340.259 67.7776 338.96 66.3589 337.401C54.7726 324.905 56.4042 297.385 71.2298 271.708C87.8761 242.888 114.903 227.298 131.549 236.912C147.533 246.172 148.172 275.251 133.464 303.054Z" fill="#E6E7F8"/>
<path d="M133.464 303.057C132.85 304.215 132.211 305.372 131.549 306.53C131.455 306.695 131.336 306.884 131.242 307.049C127.6 313.238 123.51 318.837 119.135 323.656C116.558 312.388 113.129 297.719 111.711 294.908C109.535 290.656 117.102 300.057 121.476 298.404C124.621 297.199 128.593 297.719 131.029 300.081C131.927 300.978 132.731 301.994 133.464 303.057Z" fill="#8F9AD2"/>
<path d="M96.0101 302.039C96.0101 302.039 118.189 313.189 117.125 300.881C115.636 283.732 114.548 281.818 106.863 279.598C104.759 278.984 103.931 277.212 101.732 277.306C93.7638 277.637 97.0978 281.771 97.5944 284.795C99.0367 293.724 95.8683 297.314 96.0101 302.039Z" fill="#E5A07D"/>
<path d="M123.651 298.283V318.267C122.185 320.157 120.672 321.976 119.112 323.677C114.903 328.33 110.457 332.275 105.917 335.44H87.9943L90.3825 300.196C95.1352 298.046 96.0101 297.172 100.976 296.039C101.78 295.85 104.499 296.889 105.303 296.724C111.356 295.448 117.811 295.731 123.439 298.188C123.533 298.212 123.581 298.235 123.651 298.283Z" fill="#E5A07D"/>
<path d="M94.6387 306.125C93.149 304.944 89.5313 300.503 89.5313 300.503C90.9264 299.865 92.0614 299.322 93.1018 298.826C95.7973 303.196 104.262 309.432 112.515 308.393C116.369 307.897 117.622 303.763 121.003 297.361C121.831 297.621 122.658 297.834 123.462 298.188C123.533 298.212 123.581 298.259 123.652 298.283C123.652 298.283 119.395 306.645 117.007 309.031C110.883 315.149 99.0604 309.621 94.6387 306.125Z" fill="#DEE1EE"/>
<path d="M116.061 295.4C116.156 295.4 116.25 295.4 116.369 295.423C115.47 295.14 114.974 295.376 116.061 295.4Z" fill="#B4BCDF"/>
<path d="M131.242 307.044C117.669 330.218 97.4289 344.698 81.421 344.131C80.6643 342.336 80.0022 340.611 78.9382 338.887C77.6141 336.714 76.5027 334.517 75.1549 332.367C73.8781 330.312 72.7431 328.186 72.1993 325.847C71.75 323.863 71.2062 321.879 71.1116 319.8C71.088 319.068 71.088 318.359 71.1352 317.674C71.3953 313.729 72.9559 310.706 76.4318 308.131C80.5224 305.131 85.2042 303.123 89.5077 300.501C92.9362 310.588 103.387 314.769 111.001 312.194C111.947 311.887 112.822 311.438 113.602 310.8C116.629 308.556 119.372 306.383 119.017 299.438C118.875 296.698 117.362 295.706 116.321 295.398C126.82 295.776 129.539 300.737 131.242 307.044Z" fill="#B4BCDF"/>
<path d="M118.923 323.889C118.355 324.526 117.764 325.141 117.196 325.731C115.683 320.723 113.768 315.857 112.396 310.802C112.231 310.211 113.035 309.904 113.366 310.4C115.825 314.463 117.551 319.164 118.923 323.889Z" fill="#DEE1EE"/>
<path d="M119.183 297.95C119.277 300.902 118.189 304.942 116.582 307.422C115.801 308.603 113.224 309.643 111.9 310.162C112.633 310.942 116.96 313.989 117.929 314.509C119.632 315.454 121.287 315.879 122.989 314.721C125.259 313.162 126.891 308.249 122.989 301.139C122.564 300.335 122.044 299.603 121.382 298.989C121.074 298.705 120.743 298.422 120.365 298.233C120.27 298.162 119.183 297.855 119.183 297.95Z" fill="#DEE1EE"/>
<path d="M91.2337 300.456C91.0209 300.432 90.8554 300.503 90.7372 300.669C90.6899 301.661 92.2268 299.629 92.9362 300.102C95.2771 301.637 96.7431 306.22 100.786 308.629C106.627 312.125 112.042 310.118 112.562 309.905C112.775 312.645 112.964 318.787 110.647 319.944C105.137 322.708 96.152 318.551 92.8889 314.96C91.1391 313.023 89.886 311.629 88.7037 309.314C87.9943 307.968 87.0722 306.432 87.3086 304.85C87.4032 304.236 88.5618 301.259 89.5313 300.527L91.2337 300.456Z" fill="#DEE1EE"/>
<path d="M83.6436 281.23C83.5964 279.506 83.6673 277.781 83.8801 276.081C84.353 272.443 85.6771 264.789 89.555 260.773C91.4702 260.962 91.7776 266.632 93.6456 267.01C95.419 267.388 96.9796 268.569 98.5875 269.396C99.5806 269.915 101.236 270.411 101.661 271.545C102.513 273.695 99.5333 277.285 98.6584 279.222C96.7195 283.474 96.5303 288.317 96.7668 292.9C97.0269 297.789 98.6821 302.632 101.543 306.624C103.766 309.719 106.674 312.293 108.708 315.506C111.782 320.349 112.704 326.514 111.143 332.042C109.488 329.183 107.786 326.278 105.374 324.01C102.205 321.034 98.02 319.333 94.7333 316.451C91.6594 313.758 89.5313 310.144 88.0653 306.341C85.6771 300.175 84.684 293.585 84.022 287.018C83.8564 285.128 83.6909 283.191 83.6436 281.23Z" fill="#322A36"/>
<path d="M104.617 290.845C103.979 290.302 103.34 289.759 102.726 289.192C100.597 287.231 98.1856 284.94 96.6959 282.459C91.9432 274.451 91.6595 263.727 98.3748 256.711C103.127 251.727 110.718 249.672 117.338 251.514C119.135 252.01 120.838 252.766 122.517 253.617C123.959 254.349 125.378 255.152 126.465 256.333C127.175 257.113 127.742 258.01 128.239 258.955C129.161 260.609 129.634 262.262 130.154 264.081C130.438 265.073 130.343 266.136 130.343 267.152C130.343 268.971 130.225 270.743 129.87 272.514C129.587 273.979 129.374 275.467 129.35 276.955C129.303 278.467 130.059 279.766 130.532 281.16C130.816 282.034 131.336 283.357 131.076 284.231C130.792 285.176 129.776 285.932 129.303 286.806C128.783 287.727 128.641 288.412 128.593 289.499C128.57 290.184 128.333 290.633 128.073 291.247C127.837 291.767 127.979 292.145 127.884 292.664C127.79 293.278 127.317 293.798 127.104 294.365C126.867 295.003 126.655 295.617 126.324 296.231C124.337 299.798 121.476 300.034 117.906 298.641C113.059 296.798 108.566 294.152 104.617 290.845Z" fill="#F1BCA4"/>
<path d="M88.5383 266.56C88.8457 256.449 91.825 254.725 95.6556 251.489C99.3679 248.347 104.381 246.93 109.204 247.048C114.146 247.19 118.994 248.843 123.179 251.442C123.344 251.536 123.51 251.654 123.675 251.749C125.851 253.142 127.766 254.749 128.925 257.087C129.965 259.166 130.391 261.268 130.58 263.56C130.627 264.009 130.651 264.505 130.414 264.906C130.178 265.308 129.705 265.497 129.256 265.615C125.709 266.725 121.382 265.969 118.568 263.536C118.261 266.064 116.393 268.095 114.619 269.961C112.775 271.898 110.458 273.765 108.873 275.938C107.809 277.379 107.431 278.867 105.823 279.954C104.357 280.922 103.34 281.017 101.756 280.308C100.337 279.67 98.895 278.583 97.3344 279.552C95.892 280.45 96.4595 282.316 96.7906 283.662C96.8615 283.922 97.429 285.835 96.625 285.835C95.892 285.812 88.16 278.702 88.5383 266.56Z" fill="#39313E"/>
<path d="M88.5383 266.562C88.7274 260.632 89.8151 257.585 91.4703 255.436C91.4703 255.436 96.1048 257.184 100.219 260.089C104.073 262.806 108.329 267.695 108.329 267.695C107.998 269.184 108.802 270.648 109.133 272.136C109.393 273.294 108.85 272.703 108.519 273.837L104.097 277.711L101.945 280.333C101.898 280.31 101.827 280.286 101.78 280.262C100.361 279.625 98.9186 278.538 97.358 279.507C95.9156 280.404 97.0506 282.908 97.3816 284.255C97.4525 284.514 98.02 287.444 98.02 287.444C97.2634 287.467 88.1599 278.703 88.5383 266.562Z" fill="#39313E"/>
<path d="M98.2092 275.726C94.757 275.514 93.9057 279.789 96.2939 283.097C96.9796 284.065 98.2092 284.915 99.1313 285.671C105.326 290.915 106.863 285.199 104.901 283.427C100.29 279.27 102.56 276.01 98.2092 275.726Z" fill="#F1BCA4"/>
<path d="M100.455 283.544C100.054 283.19 96.1284 280.875 98.8003 279.292C99.5333 278.843 100.361 279.505 100.479 280.284C100.55 280.686 100.408 281.111 100.479 281.513C100.526 281.749 100.621 281.985 100.739 282.198C101.094 282.765 102.276 283.308 102.063 284.135C101.851 284.867 100.692 283.757 100.455 283.544Z" fill="#E5A07D"/>
<path d="M87.2614 340.306C87.0722 341.463 86.883 342.645 86.6939 343.826C84.8968 344.109 83.1234 344.204 81.421 344.156C77.7559 344.038 74.3037 343.117 71.2298 341.345C69.4091 340.282 67.7776 338.983 66.3589 337.424C66.5717 333.526 66.8318 329.629 67.2338 325.731C67.6121 322.046 67.8958 318.101 69.1017 314.581C69.2436 314.156 69.4328 313.778 69.6456 313.424C71.1116 310.896 74.0909 309.786 77.0466 310.825C79.8604 311.818 81.8939 314.274 83.3835 316.826C87.4505 323.818 88.5146 332.416 87.2614 340.306Z" fill="#DEE1EE"/>
<path d="M357.338 173.036C356.913 173.816 356.487 174.595 356.038 175.375C355.967 175.516 355.872 175.658 355.778 175.824C351.971 182.438 347.596 188.343 342.938 193.422C342.324 194.084 341.709 194.745 341.094 195.383C338.99 197.532 336.838 199.517 334.662 201.312C325.701 208.706 316.219 213.052 307.778 213.43C303.309 213.643 299.147 212.745 295.482 210.619C293.662 209.58 292.054 208.257 290.611 206.721C288.578 204.525 286.97 201.902 285.74 198.879C279.971 184.658 283.234 162.217 295.459 141.004C312.128 112.185 339.131 96.5947 355.778 106.209C371.904 115.54 372.424 145.02 357.338 173.036Z" fill="#E6E7F8"/>
<path d="M357.338 173.034C356.913 173.813 356.487 174.593 356.038 175.372C355.967 175.514 355.872 175.656 355.778 175.821C351.971 182.435 347.596 188.341 342.938 193.42C342.513 191.128 342.276 188.79 342.253 186.451C342.182 181.892 343.624 178.042 345.776 173.931C346.745 172.065 348.093 170.081 350.174 169.632C352.089 169.231 353.933 170.317 355.447 171.451C356.085 171.947 356.724 172.49 357.338 173.034Z" fill="#B4BCDF"/>
<path d="M356.038 175.373C355.967 175.515 355.872 175.657 355.778 175.822C339.108 204.665 312.105 220.232 295.435 210.617C293.614 209.578 292.006 208.255 290.564 206.72C290.28 205.657 290.044 204.712 289.973 203.956C289.122 196.586 293.401 190.917 302.954 184.444C309.409 180.074 322.296 174.334 334.899 170.389C347.573 166.444 352.42 168.641 356.038 175.373Z" fill="#DEE1EE"/>
<path d="M341.094 195.381C338.99 197.531 336.838 199.515 334.662 201.31C334.331 198.452 333.977 195.617 333.598 192.783C335.987 191.106 337.169 190.255 339.533 188.602C340.101 190.846 340.621 193.113 341.094 195.381Z" fill="#1391EE"/>
<path d="M342.063 188.013C342.087 188.107 342.111 188.225 342.111 188.367C342.087 189.076 341.638 189.997 341.401 190.658C340.881 192.123 340.195 193.517 339.415 194.863C338.989 195.595 338.469 196.351 337.665 196.658C336.79 197.013 335.75 196.753 334.922 196.28C333.977 195.737 332.227 194.958 332.44 193.776C332.629 192.737 332.984 191.698 333.338 190.706C334.024 188.674 334.97 186.17 336.838 184.918C338.942 183.524 340.432 185.603 341.543 187.162C341.803 187.517 341.992 187.729 342.063 188.013Z" fill="#3064C7"/>
<path d="M315.391 177.688C314.942 191.933 341.685 192.169 341.283 178.775C340.739 160.113 339.604 157.964 330.808 155.082C328.396 154.279 325.866 153.688 323.336 153.641C314.044 153.476 317.638 158.176 317.992 161.46C319.033 171.216 315.557 172.562 315.391 177.688Z" fill="#E5A07D"/>
<path d="M315.391 177.69C315.557 172.564 319.033 171.217 317.992 161.461C317.638 158.178 314.044 153.453 323.336 153.642C325.89 153.689 328.396 154.304 330.808 155.083C339.486 157.941 340.716 160.067 341.259 178.02C333.858 177.312 327.332 169.162 319.789 174.005C317.78 175.516 316.432 177.453 315.486 179.579C315.415 178.965 315.368 178.351 315.391 177.69Z" fill="#E5A07D"/>
<path d="M319.813 173.98C327.356 169.137 333.882 177.287 341.283 177.995C341.283 178.255 341.307 178.491 341.307 178.751C341.661 191.531 317.378 191.885 315.51 179.554C316.432 177.428 317.803 175.491 319.813 173.98Z" fill="#E5A07D"/>
<path d="M336.909 186.452C337.382 187.964 339.392 188.507 340.716 189.381C341.307 189.759 342.324 190.515 343.08 190.374C343.861 190.208 344.31 189.192 344.57 188.555C346.462 183.972 347.526 178.94 347.597 173.98C347.62 172.397 347.36 170.649 346.107 169.539C344.996 168.547 343.08 168.334 341.732 168.925C340.266 169.562 339.912 172.444 340.432 173.767C342.324 178.539 340.196 184.019 336.909 186.452Z" fill="#B4BCDF"/>
<path d="M337.122 186.524C337.122 186.524 334.804 190.185 331.967 192.713C331.257 193.327 330.69 194.106 329.768 193.799C325.181 192.335 315.51 184.232 313.594 179.083C312.909 177.24 314.233 174.925 315.297 173.484C315.486 173.224 316.976 171.216 317.236 171.027C317.425 171.311 318.418 174.996 320.026 177.358C323.762 182.838 330.524 185.626 337.122 186.524Z" fill="#B4BCDF"/>
<path d="M307.754 213.429C303.285 213.641 299.124 212.744 295.458 210.618C293.638 209.578 292.03 208.255 290.588 206.72C288.554 204.523 286.946 201.901 285.717 198.877C285.882 198.547 286.071 198.216 286.26 197.885C288.341 194.177 291.415 191.72 295.222 189.358C296.948 188.295 299.076 187.279 301.133 187.869C303.001 188.413 304.136 190.09 304.917 191.673C308.322 198.452 308.865 206.106 307.754 213.429Z" fill="#B4BCDF"/>
<path d="M350.481 132.947C352.325 135.899 353.413 139.301 353.366 142.939C353.342 144.498 353.082 146.057 352.562 147.522C352.065 148.915 351.19 150.238 351.167 151.75C351.143 153.522 352.444 155.53 353.011 157.207C353.531 158.719 353.839 160.419 353.224 161.908C352.869 162.758 352.278 163.49 351.782 164.246C349.417 167.955 351.64 173.412 347.525 176.081C346.509 176.742 345.279 176.884 344.073 176.931C342.56 177.002 335.703 175.089 333.031 173.931C330.099 172.632 327.238 169.301 325.133 166.892C323.478 165.002 320.688 162.593 319.648 160.325C319.317 159.64 320.097 159.498 319.388 159.167C318.962 158.955 318.442 156.238 317.969 156.191C317.401 156.12 316.645 155.506 316.172 155.175C315.25 154.561 314.824 156.782 314.517 155.719C313.24 151.207 311.608 146.6 311.797 141.852C311.963 137.506 311.868 133.75 314.682 130.041C316.787 127.254 319.813 125.222 323.076 123.994C328.065 122.104 333.717 122.01 338.777 123.71C343.577 125.388 347.833 128.695 350.481 132.947Z" fill="#F1BCA4"/>
<path d="M311.821 141.875C311.986 137.528 311.892 133.772 314.706 130.064C316.81 127.276 319.837 125.245 323.1 124.016C326.079 122.883 329.295 122.41 332.463 122.552C337.216 132.048 330.335 144.237 335.513 154.087C337.263 156.402 340.715 158.127 340.715 161.032C341.874 166.229 336.672 170.859 339.533 176.056C337.145 175.418 334.497 174.568 333.054 173.93C330.122 172.631 327.261 169.3 325.157 166.891C323.502 165.001 320.712 162.591 319.671 160.324C319.34 159.639 320.12 159.497 319.411 159.166C318.985 158.954 318.465 156.237 317.992 156.19C317.425 156.119 316.668 155.505 316.172 155.174C315.249 154.56 314.824 156.78 314.516 155.717C313.263 151.253 311.632 146.646 311.821 141.875Z" fill="#F1BCA4"/>
<path d="M333.835 139.751C332.298 139.703 329.342 139.373 328.254 140.766C326.765 142.703 327.923 145.444 328.325 147.57C328.869 150.522 329.271 153.499 329.72 156.475C329.815 157.089 329.91 157.774 329.626 158.341C329.248 159.144 328.207 159.475 327.332 159.31C326.457 159.144 325.701 158.601 324.991 158.058C323.785 157.113 322.65 156.074 321.539 155.011C320.617 154.113 319.624 153.168 318.465 154.326C317.188 155.554 317.283 158.294 317.709 159.877C317.78 160.16 318.371 162.239 317.519 162.239C316.668 162.239 309.078 154.467 308.747 141.215C308.416 128.506 317.236 126.144 317.236 126.144C317.236 126.144 321.114 119.577 331.352 120.05C341.732 120.546 351.332 124.467 356.842 133.751C355.896 136.916 352.893 139.16 349.701 140.034C346.509 140.908 343.104 140.648 339.817 140.294C337.854 140.081 335.845 139.822 333.835 139.751Z" fill="#1B151E"/>
<path d="M318.796 150.639C315.013 150.379 314.067 155.057 316.645 158.694C317.401 159.757 318.749 160.679 319.719 161.529C326.481 167.293 328.184 161.057 326.032 159.096C321.066 154.537 323.549 150.97 318.796 150.639Z" fill="#F1BCA4"/>
<path d="M321.066 159.592C320.641 159.191 316.337 156.663 319.269 154.939C320.073 154.466 320.995 155.175 321.114 156.025C321.185 156.474 321.043 156.923 321.114 157.372C321.161 157.631 321.256 157.891 321.397 158.104C321.776 158.718 323.076 159.332 322.84 160.23C322.603 161.033 321.326 159.805 321.066 159.592Z" fill="#E5A07D"/>
<path d="M341.709 172.631C340.172 172.159 338.729 171.426 337.382 170.576C334.923 169.064 333.315 168.426 331.328 164.741C330.477 163.158 329.839 158.906 329.626 155.741C329.484 153.568 325.961 149.481 324.4 148.607C322.58 147.591 322.792 153.851 322.934 154.749C323.762 159.946 323.667 159.946 324.282 162.804C324.921 165.804 324.542 164.292 325.275 167.245C325.701 168.899 327.734 172.678 328.396 174.237C329.129 175.985 330.099 177.615 331.281 179.103C333.575 181.985 336.601 183.946 340.077 185.222C343.198 186.379 347.1 186.733 349.204 183.639C350.41 181.867 351.025 179.741 351.025 177.615C351.025 175.891 350.623 174.025 350.15 172.371C349.157 173.269 348.211 173.222 346.887 173.292C345.114 173.387 343.364 173.151 341.709 172.631Z" fill="#1B151E"/>
<path d="M345.847 166.279C344.735 167.389 343.979 168.806 342.915 169.964C341.945 170.98 340.716 171.759 339.392 172.184C339.746 172.869 340.479 173.247 341.212 173.389C342.276 173.602 343.411 173.366 344.31 172.751C345.658 171.806 346.343 170.129 347.644 169.137C348.164 168.736 348.779 168.476 349.346 168.145C349.914 167.814 350.458 167.413 350.765 166.822C351.498 165.476 350.528 165.003 349.37 164.862C348.022 164.72 346.745 165.358 345.847 166.279Z" fill="#1B151E"/>
<path d="M188.251 398.255H185.46V302.868L153.586 321.246V69.9531H156.353V316.451L188.251 298.049V398.255Z" fill="#A9B1D4"/>
<path d="M236.842 368.534V269.935L268.574 251.627V3.52344H271.364V253.21L239.632 271.517V368.534H236.842Z" fill="#A9B1D4"/>
<path d="M190.828 129.624C190.024 131.419 189.149 133.191 188.227 134.962C187.565 136.214 186.879 137.49 186.146 138.765C183.9 142.639 181.488 146.277 178.911 149.632C177.114 151.994 175.269 154.238 173.33 156.34C171.155 158.726 168.909 160.899 166.639 162.884C157.653 170.726 148.077 175.522 139.447 176.372C136.987 176.608 134.599 176.537 132.329 176.112C129.965 175.687 127.718 174.86 125.638 173.655C123.77 172.592 122.138 171.246 120.672 169.663C109.133 157.073 110.788 129.553 125.638 103.852C142.355 74.9382 169.429 59.3239 186.146 68.9381C201.09 77.6075 202.674 103.545 190.828 129.624Z" fill="#FF9501"/>
<path d="M190.828 129.625C190.024 131.42 189.149 133.192 188.227 134.964C187.565 136.216 186.879 137.491 186.146 138.767C183.9 142.641 181.488 146.279 178.91 149.633C177.634 146.94 176.428 144.436 175.411 142.357C174.063 139.665 175.647 137.775 175.293 134.704C174.938 131.609 175.718 128.846 176.972 125.798C177.539 124.428 178.367 122.916 179.856 122.373C181.204 121.877 182.599 122.373 183.758 122.964C186.501 124.381 189.007 126.909 190.828 129.625Z" fill="#8F9AD2"/>
<path d="M188.227 134.988C187.565 136.24 186.879 137.515 186.146 138.791C171.51 164.09 148.928 179.209 132.329 176.138C131.265 172.382 130.154 168.72 129.019 164.586C127.908 160.571 125.472 154.476 125.165 151.594C124.408 144.956 128.239 139.854 136.822 134.043C142.639 130.122 154.225 124.948 165.551 121.405C181.417 116.444 183.663 122.232 188.227 134.87C188.203 134.917 188.227 134.941 188.227 134.988Z" fill="#B4BCDF"/>
<path d="M173.33 156.362C171.155 158.748 168.909 160.921 166.639 162.906C166.071 155.677 165.267 148.543 164.345 141.528C166.497 140.016 167.561 139.26 169.665 137.748C171.226 143.984 172.432 150.15 173.33 156.362Z" fill="#1391EE"/>
<path d="M171.959 137.231C171.982 137.325 171.982 137.42 171.982 137.561C171.959 138.199 171.557 139.026 171.344 139.617C170.871 140.916 170.28 142.191 169.571 143.396C169.169 144.058 168.719 144.719 168.01 145.026C167.206 145.357 166.284 145.121 165.551 144.695C164.7 144.223 163.139 143.514 163.328 142.451C163.494 141.53 163.825 140.585 164.132 139.687C164.747 137.869 165.598 135.601 167.277 134.491C169.169 133.239 170.516 135.105 171.509 136.522C171.722 136.806 171.888 136.971 171.959 137.231Z" fill="#3064C7"/>
<path d="M147.982 127.949C147.58 140.752 171.628 140.965 171.273 128.918C170.8 112.146 169.76 110.209 161.862 107.611C159.687 106.902 157.417 106.359 155.123 106.311C146.777 106.146 150.016 110.398 150.323 113.351C151.246 122.138 148.124 123.343 147.982 127.949Z" fill="#E5A07D"/>
<path d="M167.324 135.839C167.75 137.209 169.571 137.681 170.753 138.485C171.273 138.839 172.195 139.5 172.881 139.359C173.567 139.217 173.992 138.296 174.229 137.729C175.931 133.595 176.901 129.083 176.948 124.618C176.972 123.201 176.735 121.618 175.624 120.626C174.631 119.729 172.905 119.54 171.675 120.083C170.351 120.65 170.044 123.248 170.517 124.429C172.195 128.729 170.28 133.642 167.324 135.839Z" fill="#B4BCDF"/>
<path d="M167.514 135.908C167.514 135.908 165.433 139.215 162.879 141.482C162.241 142.049 161.744 142.734 160.893 142.475C156.755 141.152 148.077 133.852 146.351 129.246C145.736 127.569 146.942 125.514 147.888 124.215C148.053 123.978 149.378 122.183 149.638 121.994C149.803 122.254 150.702 125.561 152.144 127.687C155.502 132.601 161.602 135.104 167.514 135.908Z" fill="#B4BCDF"/>
<path d="M182.386 87.7201C184.207 90.602 185.248 93.9563 185.224 97.476C185.2 99.0115 184.964 100.523 184.444 101.964C183.971 103.334 183.096 104.61 183.096 106.098C183.072 107.846 184.325 109.783 184.893 111.437C185.413 112.925 185.697 114.579 185.106 116.043C184.775 116.87 184.16 117.579 183.687 118.334C181.393 121.949 183.545 127.311 179.549 129.909C178.556 130.571 177.35 130.689 176.168 130.736C174.678 130.807 167.986 128.941 165.385 127.783C162.524 126.508 159.734 123.271 157.653 120.909C156.022 119.067 153.326 116.705 152.286 114.508C151.979 113.823 152.735 113.704 152.05 113.374C151.624 113.161 151.127 110.515 150.654 110.445C150.111 110.374 149.354 109.783 148.881 109.453C147.983 108.862 147.557 111.035 147.25 109.996C145.996 105.578 144.388 101.09 144.578 96.4367C144.743 92.1847 144.649 88.5232 147.391 84.909C149.449 82.1925 152.404 80.2082 155.596 79.0035C160.467 77.1609 166 77.0428 170.942 78.7436C175.624 80.3263 179.785 83.5626 182.386 87.7201Z" fill="#F1BCA4"/>
<path d="M151.577 93.792C154.556 96.1778 156.542 97.0282 162.312 97.6188C161.129 101.587 161.177 105.367 160.727 109.406C160.467 111.816 159.143 114.627 156.566 111.887C155.951 111.249 155.478 110.493 154.911 109.831C154.319 109.17 153.586 108.579 152.735 108.414C151.718 108.225 150.749 108.839 150.323 109.737C150.063 110.28 150.229 110.375 150.371 110.871C150.536 111.367 150.158 111.91 149.638 111.934C149.117 111.957 148.668 111.509 148.29 111.202C146.824 109.997 145.949 107.942 145.334 106.194C144.199 103.076 143.655 99.8156 143.703 96.5085C143.726 94.3825 143.986 92.3038 144.696 90.2959C145.24 88.7605 146.02 87.3904 146.777 85.9258C147.533 89.6817 149.472 92.0912 151.577 93.792Z" fill="#D7D9EC"/>
<path d="M151.411 105.032C147.722 104.796 146.777 109.355 149.307 112.898C150.04 113.938 151.364 114.835 152.31 115.662C158.93 121.284 160.586 115.213 158.481 113.276C153.61 108.835 156.046 105.339 151.411 105.032Z" fill="#F1BCA4"/>
<path d="M153.634 113.75C153.208 113.372 148.999 110.892 151.86 109.191C152.664 108.718 153.539 109.427 153.657 110.254C153.728 110.679 153.586 111.128 153.657 111.577C153.705 111.836 153.799 112.073 153.941 112.309C154.319 112.923 155.596 113.49 155.336 114.388C155.123 115.167 153.87 113.986 153.634 113.75Z" fill="#E5A07D"/>
<path d="M141.48 165.105C140.7 168.129 139.801 172.334 139.447 176.397C136.987 176.633 134.599 176.562 132.329 176.137C129.965 175.712 127.718 174.885 125.638 173.68C123.77 172.617 122.138 171.271 120.672 169.688C120.719 168.483 120.79 167.279 120.861 166.121C121.216 160.57 122.044 154.641 123.462 149.255C124.668 144.79 125.78 141.861 129.397 139.003C132.826 136.286 137.082 136.995 140.629 139.523C142.97 141.2 144.081 143.964 144.578 146.656C145.783 152.987 143.088 158.893 141.48 165.105Z" fill="#DEE1EE"/>
<path d="M168.672 123.697C173.59 127.122 177.586 126.579 181.913 125.681C182.008 128.374 179.809 130.854 177.137 131.35C174.465 131.823 171.77 130.949 169.263 129.886C166.166 128.563 163.139 126.909 160.727 124.547C158.315 122.185 156.258 121.358 155.975 117.98C155.833 116.232 156.235 107.161 157.417 105.815C159.45 103.453 160.727 105.98 160.704 107.988C160.514 120.224 165.291 121.358 168.672 123.697Z" fill="#D7D9EC"/>
<path d="M300.519 71.0362C300.069 71.8866 299.596 72.737 299.1 73.5638C298.721 74.2016 298.367 74.8158 297.988 75.4536C297.823 75.7134 297.657 75.9733 297.492 76.2331C294.915 80.4143 292.124 84.2883 289.169 87.808C288.27 88.8946 287.348 89.9576 286.402 90.9734C286.189 91.2332 285.953 91.4695 285.74 91.7057C285.386 92.0836 285.031 92.4852 284.652 92.8395C274.012 103.847 262.048 110.533 251.525 111.241C251.384 111.241 251.218 111.265 251.052 111.265C246.513 111.501 242.28 110.603 238.568 108.454C236.723 107.391 235.068 106.044 233.626 104.462C222.063 91.8947 223.718 64.3275 238.568 38.6502C255.285 9.76025 282.383 -5.85403 299.1 3.78383C315.321 13.1382 315.793 42.8549 300.519 71.0362Z" fill="#FF9501"/>
<path d="M298.603 35.6469C295.908 35.2217 292.976 35.5997 290.233 35.5288C287.112 35.458 283.99 35.3635 280.869 35.8123C279.427 36.0249 277.441 36.1903 276.637 37.6312C275.715 39.3084 276.731 41.647 277.724 42.9935C278.079 43.4895 278.907 43.0407 278.576 42.4974C277.843 41.3399 278.316 38.0564 279.332 37.1352C280.018 36.521 282.524 36.5918 283.447 36.521C285.291 36.3792 287.135 36.4029 288.98 36.4265C292.053 36.4737 295.222 36.6155 298.461 36.4737C298.603 36.4737 298.792 35.6706 298.603 35.6469Z" fill="#1B151E"/>
<path d="M297.988 75.4509C297.823 75.7107 297.657 75.9706 297.492 76.2304C294.915 80.4115 292.124 84.2856 289.169 87.8053C287.963 86.6714 287.135 85.136 286.922 83.1281C286.426 78.4509 286.568 73.8682 285.054 69.2855C284.392 67.3012 283.518 65.1516 282.028 63.6162C281.082 62.624 279.521 62.3642 278.978 61.0413C278.316 59.435 279.049 57.0256 279.569 55.4665C280.704 52.0649 282.004 49.3011 282.264 45.8523C282.288 45.4034 282.312 44.931 282.312 44.4822C282.264 39.7341 281.531 34.8915 281.957 30.1435C282.122 28.301 282.477 26.4348 282.997 24.6159C283.068 24.4033 287.939 24.6159 288.318 24.6159C289.996 24.6159 294.844 23.7182 295.317 25.8442C295.553 26.9545 295.009 28.1592 294.725 29.1986C294.182 31.1356 293.874 33.0963 293.401 35.0333C292.337 39.6632 293.118 44.3168 294.489 48.7814C295.08 50.6948 296.168 52.1121 297.232 53.7657C299.762 57.5925 296.995 63.2382 296.712 67.3721C296.617 70.0414 297.161 72.7816 297.988 75.4509Z" fill="#043774"/>
<path d="M300.519 71.0357C300.069 71.8861 299.596 72.7365 299.1 73.5632C298.58 74.4609 298.059 75.3585 297.492 76.2325C293.921 81.9964 289.949 87.1932 285.74 91.7051C283.328 81.0751 278.954 61.6104 277.322 58.3978C275.265 54.3348 282.454 63.3112 286.615 61.7285C289.642 60.5946 293.401 61.0671 295.719 63.3348C297.847 65.4136 299.407 68.1065 300.519 71.0357Z" fill="#8F9AD2"/>
<path d="M288.72 86.3411V61.6086C288.649 61.585 288.601 61.5377 288.53 61.5141C283.187 59.1519 277.039 58.8921 271.269 60.1204C270.489 60.2858 267.912 59.3172 267.131 59.4826C262.379 60.5456 260.747 61.6795 256.207 63.7346L255.214 86.3411H288.72Z" fill="#E5A07D"/>
<path d="M263.419 63.7343C263.419 63.7343 284.936 73.5375 283.47 61.8682C281.437 45.5925 280.325 43.8208 272.924 41.9783C270.891 41.4822 270.04 39.805 267.959 39.9704C260.392 40.561 263.726 44.3878 264.27 47.246C265.973 55.7028 263.112 59.2461 263.419 63.7343Z" fill="#E5A07D"/>
<path d="M261.078 69.073C259.659 67.9392 256.207 63.7108 256.207 63.7108C257.555 63.0966 258.619 62.5769 259.612 62.1281C262.166 66.3092 270.253 72.2148 278.103 71.2226C281.768 70.7502 282.974 66.8053 286.189 60.7344C286.97 60.9942 287.774 61.1832 288.53 61.5139C288.601 61.5375 288.649 61.5612 288.72 61.6084C288.72 61.6084 284.676 69.5691 282.383 71.8604C276.542 77.6715 265.287 72.4274 261.078 69.073Z" fill="#DEE1EE"/>
<path d="M281.484 58.8699C281.579 58.8699 281.673 58.8699 281.768 58.8935C280.917 58.6337 280.444 58.8463 281.484 58.8699Z" fill="#B4BCDF"/>
<path d="M297.492 76.2549C284.558 97.1842 266.209 110.531 251.076 111.31C250.461 109.775 249.799 108.239 249.114 106.728C248.097 104.507 247.435 102.405 246.158 100.302C244.881 98.2472 243.841 96.1448 242.564 94.0897C241.358 92.1526 240.27 90.1211 239.75 87.877C239.324 85.9872 238.804 84.0975 238.733 82.1368C238.71 81.4282 238.71 80.7431 238.733 80.1053C238.97 76.3494 240.459 73.4439 243.793 71.0108C247.671 68.1289 252.14 66.2391 256.254 63.7351C259.518 73.3494 269.496 77.3415 276.731 74.8848C277.63 74.6013 278.457 74.1525 279.214 73.562C282.099 71.436 284.7 69.3572 284.369 62.743C284.227 60.1446 282.785 59.176 281.815 58.8926C295.033 59.3414 295.198 67.5383 297.492 76.2549Z" fill="#B4BCDF"/>
<path d="M286.402 90.9959C286.189 91.2557 285.953 91.492 285.74 91.7282C285.385 92.1061 285.031 92.5077 284.652 92.862C282.714 85.9407 280.254 79.1848 277.464 72.3816C277.228 71.791 278.15 71.4603 278.457 71.9564C282.028 77.7675 284.558 84.2872 286.402 90.9959Z" fill="#DEE1EE"/>
<path d="M284.463 61.2793C284.558 64.0903 283.518 67.9408 281.981 70.303C280.869 71.9802 278.741 72.8778 278.741 72.8778L287.277 79.8936C287.277 79.8936 290.256 73.0904 289.145 68.6022C288.649 66.6179 287.632 61.3029 284.463 61.2793Z" fill="#DEE1EE"/>
<path d="M257.839 63.6651C257.626 63.6415 257.46 63.7123 257.366 63.8541C257.342 64.799 258.784 62.8619 259.47 63.3108C261.716 64.7753 263.088 69.1218 266.942 71.4368C272.499 74.7675 278.268 73.0904 278.741 72.8778C278.954 75.4998 277.015 83.9093 276.66 85.1377C276.447 84.9015 264.743 79.4211 260.7 77.3424C258.501 76.2085 256.538 74.2715 255.403 72.0746C254.741 70.7754 253.843 69.3344 254.079 67.8226C254.174 67.2321 255.261 64.3974 256.207 63.7123L257.839 63.6651Z" fill="#DEE1EE"/>
<path d="M269.709 52.7037C269.07 52.1604 268.503 51.688 268.006 51.0029C267.486 50.2943 266.966 49.6092 266.351 48.995C265.949 48.5935 265.523 48.2391 265.051 47.932C264.578 47.6486 264.01 47.5541 263.703 47.0816C263.183 46.3021 262.662 45.499 262.189 44.6958C257.65 37.0895 257.389 26.8374 263.774 20.176C268.314 15.4515 275.525 13.4673 281.839 15.2153C283.541 15.6877 285.173 16.42 286.757 17.2232C288.128 17.9082 289.476 18.6878 290.517 19.8216C291.202 20.5539 291.722 21.4279 292.219 22.302C292.928 23.6012 293.496 24.9949 294.087 26.3414C294.584 27.428 294.536 28.6563 294.513 29.8374C294.513 32.3414 293.709 34.5383 293.165 36.9477C292.668 39.121 293.732 41.1052 294.394 43.1131C294.773 44.2234 295.364 45.5935 294.702 46.7037C294.276 47.4124 293.638 47.9793 293.307 48.7588C292.976 49.5147 292.716 50.3179 292.526 51.1447C292.385 51.7116 292.006 53.6486 291.912 54.0738C291.817 54.5935 291.746 55.0896 291.675 55.6093C291.604 56.1998 291.486 56.7667 291.391 57.3573C291.155 58.7274 290.493 59.9557 289.169 60.4991C288.412 60.8061 287.632 60.9951 286.828 61.0188C286.024 61.0424 285.244 60.9479 284.463 60.7589C281.153 59.8849 273.989 55.8927 272.901 55.1604C271.837 54.3809 270.749 53.5778 269.709 52.7037Z" fill="#F1BCA4"/>
<path d="M255.285 29.625C255.592 19.9871 258.028 18.0265 261.693 14.932C265.216 11.9556 270.371 10.9162 274.982 11.0343C278.457 11.1288 281.886 12.0265 285.031 13.4674C288.081 14.8611 290.304 16.7509 292.432 19.3021C294.986 22.3966 296.593 27.1683 295.151 31.0423C294.891 31.7274 294.678 32.814 294.205 33.3809C294.111 33.4991 293.165 31.1368 293.118 30.9478C292.857 30.1919 292.668 29.3888 292.385 28.6329C292.148 27.9715 291.604 27.4518 291.439 26.7903C288.838 26.6722 286.521 27.7352 284.463 29.2707C281.768 31.2549 279.663 33.3573 277.985 36.3101C277.181 37.7038 276.448 39.0975 275.573 40.4676C275.218 41.0109 274.84 41.5306 274.509 42.0739C273.587 43.5149 271.577 44.6724 269.969 45.1212C268.692 45.4519 266.895 45.4519 265.878 46.4204C264.814 47.4125 264.436 48.1684 262.71 47.8141C259.612 47.1527 257.744 41.6723 256.798 39.0975C255.663 36.0502 255.167 32.8376 255.285 29.625Z" fill="#043774"/>
<path d="M254.481 101.248C253.535 104.602 252.566 107.933 251.525 111.264C251.384 111.264 251.218 111.287 251.053 111.287C246.513 111.524 242.28 110.626 238.568 108.476C236.723 107.413 235.068 106.067 233.626 104.484C233.862 102.996 234.099 101.508 234.335 100.043C235.163 95.059 236.061 90.0984 237.149 85.1613C237.929 81.7125 238.639 78.0274 240.176 74.8148C240.365 74.4368 240.578 74.0825 240.814 73.7754C242.493 71.5549 245.449 70.8463 248.121 72.1691C250.651 73.4211 252.306 75.9723 253.441 78.5707C256.538 85.681 256.562 93.9252 254.481 101.248Z" fill="#DEE1EE"/>
<path d="M251.336 50.3188C251.313 53.1298 251.171 55.9172 250.674 58.7047C250.154 61.6338 248.735 64.87 248.972 67.8701C250.627 67.0197 253.464 66.5236 254.789 68.2008C256.869 70.8465 257.271 75.6418 257.839 78.8308C258.359 81.7835 258.525 84.7599 258.95 87.7127C259.612 92.3427 263.537 94.3505 267.841 94.7521C273.468 95.2954 275.336 93.6891 276.495 88.3033C277.417 84.0513 276.66 79.5867 275.194 75.5473C273.256 70.185 269.543 66.0275 267.131 60.9251C265.831 58.185 264.743 54.1456 266.115 51.0747C266.753 49.6101 266.753 49.3503 267.131 47.6967C267.557 45.8069 267.723 43.8227 267.652 41.8856C267.557 39.6415 266.682 37.5628 266.682 35.295C266.682 33.6887 266.186 32.2478 265.571 30.8068C264.956 29.3895 264.814 27.7359 264.176 26.2714C262.923 23.3422 258.903 17.2949 258.903 17.2949C258.95 17.3658 257.933 18.665 257.862 18.7831C256.988 20.0823 255.947 21.2162 255.238 22.6099C253.606 25.8225 252.85 29.106 252.117 32.6021C250.887 38.4604 251.384 44.3896 251.336 50.3188Z" fill="#043774"/>
<path d="M290.422 38.249C288.365 37.6584 284.818 38.6033 283.849 40.7529C282.974 42.6899 283.092 46.5403 285.102 47.5561C287.277 48.6427 289.76 47.0837 290.848 44.934C291.581 43.4931 292.763 38.9104 290.422 38.249ZM290.824 42.9025C290.611 43.8238 290.162 44.6506 289.594 45.3356C288.436 46.7529 285.598 47.8868 284.605 45.5955C283.754 43.6112 284.392 40.682 286.189 39.8316C287.443 39.2411 289.382 38.9576 290.327 39.4064C291.273 39.8316 291.084 41.745 290.824 42.9025Z" fill="#1B151E"/>
<path d="M297.397 35.6947C296.05 36.238 293.992 37.301 293.52 38.8365C293.449 39.0491 293.425 39.2853 293.425 39.5215C293.283 41.1987 293.52 43.9388 295.246 44.3168C297.705 44.8365 298.911 41.0333 299.218 39.3089C299.478 37.8679 299.786 34.7498 297.397 35.6947ZM298.225 40.1593C297.989 41.0097 296.31 45.4034 294.631 43.0884C294.134 42.3798 292.574 38.0569 296.854 36.6868C299.289 35.9309 298.58 38.9073 298.225 40.1593Z" fill="#1B151E"/>
<path d="M294.773 37.1641C294.253 37.4948 291.864 38.6759 290.327 38.2507C290.138 38.2034 290.895 39.4082 291.037 39.4554C291.226 39.5263 293.425 38.8412 294.04 38.5814C294.607 38.3688 294.773 37.1641 294.773 37.1641Z" fill="#1B151E"/>
<path d="M284.156 40.5356C281.46 40.1104 278.528 40.4884 275.785 40.4175C272.664 40.3466 269.543 40.2522 266.422 40.701C264.98 40.9136 262.993 41.0789 262.189 42.5199C261.267 44.1971 262.284 46.5357 263.277 47.8821C263.632 48.3782 264.459 47.9294 264.128 47.3861C263.372 46.2286 263.868 42.9451 264.885 42.0238C265.571 41.4096 268.077 41.4805 268.999 41.4096C270.844 41.2679 272.688 41.2915 274.532 41.3152C277.606 41.3624 280.751 41.5041 284.014 41.3624C284.18 41.3624 284.345 40.5592 284.156 40.5356Z" fill="#1B151E"/>
<path d="M264.412 38.3654C261.125 38.1528 260.321 42.2394 262.568 45.3812C263.23 46.3025 264.388 47.1056 265.263 47.8379C271.175 52.8222 272.617 47.3891 270.749 45.6883C266.398 41.7434 268.55 38.6252 264.412 38.3654Z" fill="#F1BCA4"/>
<path d="M266.54 45.8077C266.162 45.4534 262.402 43.2801 264.956 41.7683C265.665 41.3431 266.446 41.9573 266.564 42.7132C266.611 43.0911 266.493 43.4927 266.564 43.8943C266.611 44.1305 266.706 44.3431 266.824 44.5321C267.155 45.0754 268.29 45.5951 268.077 46.3746C267.864 47.0833 266.753 46.0203 266.54 45.8077Z" fill="#E5A07D"/>
<path d="M279.805 481.389L285.092 478.322L352.493 517.204L347.206 520.27L279.805 481.389Z" fill="#39313E"/>
<path d="M277.384 391L282.688 387.934L285.348 389.467L280.061 392.534L277.384 391Z" fill="#322A36"/>
<path d="M280.061 392.534L285.348 389.467L285.092 478.321L279.805 481.388L280.061 392.534Z" fill="#322A36"/>
<path d="M350.123 432.95L355.41 429.883L355.154 521.804L349.85 524.871L350.123 432.95Z" fill="#322A36"/>
<path d="M347.462 431.415L352.749 428.348L355.41 429.881L350.123 432.948L347.462 431.415Z" fill="#322A36"/>
<path d="M350.123 432.952L349.85 524.873L277.128 482.925L277.383 391.004L280.061 392.537L279.805 481.392L347.206 520.273L347.462 431.419L350.123 432.952Z" fill="#231B26"/>
<path d="M149.011 526.766L147.425 525.846L147.408 519.746L148.994 520.666L149.011 526.766Z" fill="#231B26"/>
<path d="M148.994 520.662L147.408 519.742L278.015 444.416L279.601 445.336L148.994 520.662Z" fill="#39313E"/>
<path d="M279.601 445.338L279.618 451.438L149.011 526.764L148.994 520.664L279.601 445.338Z" fill="#322A36"/>
<path d="M148.841 556.783L154.128 553.699L221.529 592.581L216.242 595.647L148.841 556.783Z" fill="#322A36"/>
<path d="M146.436 466.379L151.723 463.312L154.383 464.846L149.096 467.93L146.436 466.379Z" fill="#322A36"/>
<path d="M149.096 467.93L154.383 464.846L154.128 553.7L148.841 556.784L149.096 467.93Z" fill="#322A36"/>
<path d="M219.158 508.329L224.445 505.262L224.189 597.183L218.902 600.25L219.158 508.329Z" fill="#322A36"/>
<path d="M216.497 506.793L221.784 503.727L224.445 505.26L219.158 508.327L216.497 506.793Z" fill="#322A36"/>
<path d="M219.158 508.331L218.902 600.252L146.163 558.304L146.436 466.383L149.096 467.933L148.841 556.788L216.242 595.652L216.497 506.798L219.158 508.331Z" fill="#231B26"/>
<path d="M283.302 397.017L281.05 395.688L243.24 496.264L245.508 497.593L283.302 397.017Z" fill="#816971"/>
<path d="M288.316 394.122L286.047 392.811L281.05 395.69L283.301 397.019L288.316 394.122Z" fill="#957F87"/>
<path d="M283.302 397.018L245.508 497.594L250.522 494.698L288.316 394.121L283.302 397.018Z" fill="#5D4D57"/>
<path d="M250.283 416.05L248.032 414.738L243.018 417.635L245.286 418.947L250.283 416.05Z" fill="#957F87"/>
<path d="M245.286 418.947L243.018 417.635L281.272 474.338L283.523 475.65L245.286 418.947Z" fill="#3D3239"/>
<path d="M250.283 416.049L245.286 418.945L283.523 475.649L288.537 472.769L250.283 416.049Z" fill="#5D4D57"/>
<path d="M142.667 464.861L142.684 471.404L224.274 518.77L224.257 512.228L142.667 464.861Z" fill="#C2C8E3"/>
<path d="M224.257 512.228L224.274 518.771L361.993 438.572L361.976 432.029L224.257 512.228Z" fill="#A9B1D4"/>
<path d="M142.719 464.899L224.31 512.265L362.028 432.083L280.454 384.717L142.719 464.899Z" fill="#E7E8EC"/>
<g opacity="0.3">
<path opacity="0.3" d="M270.613 430.734L288.401 420.783L300.868 431.125L270.613 430.734Z" fill="#48257C"/>
</g>
<path d="M313.369 440.293L313.114 441.298L246.429 479.362L246.685 478.339L313.369 440.293Z" fill="#CED3E8"/>
<path d="M246.685 478.339L246.429 479.361L220.369 458.421L220.642 455.934L246.685 478.339Z" fill="#8F9AD2"/>
<path d="M313.37 440.291L246.685 478.338L220.642 455.933L287.31 417.869L313.37 440.291Z" fill="#E3E3E3"/>
<path d="M289.765 420.531L289.595 421.196L286.047 423.223L286.201 422.559L289.765 420.531Z" fill="#C2C8E3"/>
<path d="M286.201 422.559L286.048 423.224L284.154 421.605L284.325 420.924L286.201 422.559Z" fill="#8F9AD2"/>
<path d="M289.765 420.532L286.201 422.56L284.325 420.924L287.872 418.896L289.765 420.532Z" fill="#CED3E8"/>
<path d="M294.524 424.924L294.353 425.605L290.806 427.633L290.976 426.968L294.524 424.924Z" fill="#C2C8E3"/>
<path d="M290.976 426.966L290.806 427.631L287.344 424.649L287.514 423.984L290.976 426.966Z" fill="#8F9AD2"/>
<path d="M294.524 424.925L290.976 426.97L287.514 423.988L291.062 421.943L294.524 424.925Z" fill="#CED3E8"/>
<path d="M285.28 423.084L285.11 423.748L281.545 425.793L281.716 425.112L285.28 423.084Z" fill="#C2C8E3"/>
<path d="M281.716 425.111L281.545 425.792L279.652 424.157L279.823 423.492L281.716 425.111Z" fill="#8F9AD2"/>
<path d="M285.28 423.085L281.716 425.112L279.822 423.494L283.387 421.449L285.28 423.085Z" fill="#CED3E8"/>
<path d="M290.209 427.398L290.038 428.063L286.491 430.108L286.661 429.426L290.209 427.398Z" fill="#C2C8E3"/>
<path d="M286.661 429.425L286.491 430.107L283.029 427.125L283.199 426.443L286.661 429.425Z" fill="#8F9AD2"/>
<path d="M290.209 427.398L286.661 429.425L283.199 426.444L286.747 424.416L290.209 427.398Z" fill="#CED3E8"/>
<path d="M280.795 425.639L280.624 426.32L277.06 428.348L277.23 427.666L280.795 425.639Z" fill="#C2C8E3"/>
<path d="M277.23 427.667L277.06 428.349L275.167 426.73L275.337 426.049L277.23 427.667Z" fill="#8F9AD2"/>
<path d="M280.795 425.64L277.23 427.668L275.337 426.049L278.902 424.021L280.795 425.64Z" fill="#CED3E8"/>
<path d="M285.894 429.846L285.723 430.527L282.176 432.555L282.347 431.89L285.894 429.846Z" fill="#C2C8E3"/>
<path d="M282.347 431.89L282.176 432.554L278.714 429.573L278.884 428.908L282.347 431.89Z" fill="#8F9AD2"/>
<path d="M285.894 429.847L282.347 431.892L278.884 428.91L282.432 426.865L285.894 429.847Z" fill="#CED3E8"/>
<path d="M276.292 428.211L276.139 428.875L272.574 430.903L272.745 430.238L276.292 428.211Z" fill="#C2C8E3"/>
<path d="M272.745 430.239L272.574 430.904L270.681 429.285L270.852 428.604L272.745 430.239Z" fill="#8F9AD2"/>
<path d="M276.292 428.212L272.745 430.239L270.852 428.604L274.416 426.576L276.292 428.212Z" fill="#CED3E8"/>
<path d="M281.579 432.316L281.426 432.981L277.861 435.026L278.032 434.344L281.579 432.316Z" fill="#C2C8E3"/>
<path d="M278.032 434.345L277.861 435.027L274.399 432.045L274.57 431.363L278.032 434.345Z" fill="#8F9AD2"/>
<path d="M281.579 432.318L278.032 434.345L274.57 431.363L278.117 429.336L281.579 432.318Z" fill="#CED3E8"/>
<path d="M277.264 434.775L277.111 435.457L273.546 437.484L273.717 436.803L277.264 434.775Z" fill="#C2C8E3"/>
<path d="M273.717 436.803L273.546 437.484L270.084 434.502L270.255 433.838L273.717 436.803Z" fill="#8F9AD2"/>
<path d="M277.264 434.775L273.717 436.802L270.255 433.838L273.802 431.793L277.264 434.775Z" fill="#CED3E8"/>
<path d="M269.572 432.045L269.402 432.726L265.837 434.754L266.008 434.072L269.572 432.045Z" fill="#C2C8E3"/>
<path d="M266.008 434.072L265.837 434.753L263.944 433.118L264.115 432.453L266.008 434.072Z" fill="#8F9AD2"/>
<path d="M269.572 432.044L266.008 434.072L264.115 432.453L267.679 430.426L269.572 432.044Z" fill="#CED3E8"/>
<path d="M272.966 437.246L272.796 437.911L269.231 439.955L269.402 439.274L272.966 437.246Z" fill="#C2C8E3"/>
<path d="M269.402 439.273L269.231 439.954L265.769 436.973L265.94 436.291L269.402 439.273Z" fill="#8F9AD2"/>
<path d="M272.966 437.245L269.402 439.273L265.94 436.291L269.487 434.264L272.966 437.245Z" fill="#CED3E8"/>
<path d="M265.087 434.604L264.916 435.285L261.352 437.313L261.523 436.648L265.087 434.604Z" fill="#C2C8E3"/>
<path d="M261.523 436.647L261.352 437.312L259.459 435.693L259.629 435.012L261.523 436.647Z" fill="#8F9AD2"/>
<path d="M265.087 434.605L261.522 436.65L259.629 435.014L263.194 432.986L265.087 434.605Z" fill="#CED3E8"/>
<path d="M268.652 439.699L268.481 440.381L264.917 442.408L265.087 441.727L268.652 439.699Z" fill="#C2C8E3"/>
<path d="M265.087 441.724L264.916 442.406L261.454 439.424L261.625 438.76L265.087 441.724Z" fill="#8F9AD2"/>
<path d="M268.652 439.698L265.087 441.726L261.625 438.761L265.189 436.717L268.652 439.698Z" fill="#CED3E8"/>
<path d="M260.585 437.176L260.414 437.84L256.867 439.885L257.037 439.203L260.585 437.176Z" fill="#C2C8E3"/>
<path d="M257.037 439.201L256.867 439.882L254.973 438.247L255.144 437.582L257.037 439.201Z" fill="#8F9AD2"/>
<path d="M260.585 437.177L257.037 439.204L255.144 437.586L258.708 435.541L260.585 437.177Z" fill="#CED3E8"/>
<path d="M264.337 442.172L264.166 442.836L260.602 444.881L260.772 444.199L264.337 442.172Z" fill="#C2C8E3"/>
<path d="M260.772 444.198L260.602 444.88L257.139 441.898L257.31 441.217L260.772 444.198Z" fill="#8F9AD2"/>
<path d="M264.336 442.171L260.772 444.199L257.31 441.217L260.874 439.189L264.336 442.171Z" fill="#CED3E8"/>
<path d="M256.099 439.73L255.928 440.412L252.381 442.44L252.534 441.758L256.099 439.73Z" fill="#C2C8E3"/>
<path d="M252.535 441.759L252.381 442.441L250.488 440.805L250.658 440.141L252.535 441.759Z" fill="#8F9AD2"/>
<path d="M256.099 439.732L252.535 441.759L250.659 440.141L254.206 438.113L256.099 439.732Z" fill="#CED3E8"/>
<path d="M260.022 444.617L259.851 445.299L256.287 447.326L256.457 446.645L260.022 444.617Z" fill="#C2C8E3"/>
<path d="M256.457 446.644L256.287 447.326L252.825 444.344L252.995 443.68L256.457 446.644Z" fill="#8F9AD2"/>
<path d="M260.022 444.618L256.457 446.646L252.995 443.681L256.56 441.637L260.022 444.618Z" fill="#CED3E8"/>
<path d="M249.362 443.58L249.209 444.245L245.644 446.272L245.815 445.608L249.362 443.58Z" fill="#C2C8E3"/>
<path d="M245.815 445.606L245.644 446.271L243.751 444.652L243.922 443.971L245.815 445.606Z" fill="#8F9AD2"/>
<path d="M249.362 443.581L245.815 445.609L243.922 443.973L247.486 441.945L249.362 443.581Z" fill="#CED3E8"/>
<path d="M255.707 447.09L255.536 447.754L251.972 449.799L252.142 449.117L255.707 447.09Z" fill="#C2C8E3"/>
<path d="M252.142 449.118L251.972 449.8L248.51 446.818L248.68 446.137L252.142 449.118Z" fill="#8F9AD2"/>
<path d="M255.707 447.091L252.142 449.119L248.68 446.137L252.245 444.109L255.707 447.091Z" fill="#CED3E8"/>
<path d="M244.877 446.135L244.706 446.799L241.159 448.844L241.329 448.162L244.877 446.135Z" fill="#C2C8E3"/>
<path d="M241.33 448.16L241.159 448.841L239.266 447.206L239.436 446.541L241.33 448.16Z" fill="#8F9AD2"/>
<path d="M244.877 446.136L241.329 448.163L239.436 446.545L242.984 444.5L244.877 446.136Z" fill="#CED3E8"/>
<path d="M251.392 449.547L251.221 450.228L247.657 452.256L247.827 451.574L251.392 449.547Z" fill="#C2C8E3"/>
<path d="M247.827 451.576L247.657 452.257L244.195 449.276L244.365 448.611L247.827 451.576Z" fill="#8F9AD2"/>
<path d="M251.392 449.548L247.827 451.576L244.365 448.611L247.93 446.566L251.392 449.548Z" fill="#CED3E8"/>
<path d="M240.391 448.691L240.221 449.373L236.656 451.401L236.827 450.719L240.391 448.691Z" fill="#C2C8E3"/>
<path d="M236.827 450.72L236.657 451.402L234.78 449.783L234.951 449.102L236.827 450.72Z" fill="#8F9AD2"/>
<path d="M240.392 448.693L236.827 450.72L234.951 449.102L238.498 447.074L240.392 448.693Z" fill="#CED3E8"/>
<path d="M247.077 452.016L246.907 452.68L243.342 454.708L243.513 454.043L247.077 452.016Z" fill="#C2C8E3"/>
<path d="M243.513 454.042L243.342 454.707L239.88 451.742L240.05 451.061L243.513 454.042Z" fill="#8F9AD2"/>
<path d="M247.077 452.015L243.512 454.042L240.05 451.061L243.615 449.033L247.077 452.015Z" fill="#CED3E8"/>
<path d="M235.906 451.266L235.736 451.93L232.171 453.958L232.342 453.293L235.906 451.266Z" fill="#C2C8E3"/>
<path d="M232.342 453.294L232.171 453.958L230.278 452.34L230.448 451.658L232.342 453.294Z" fill="#8F9AD2"/>
<path d="M235.906 451.267L232.342 453.294L230.448 451.658L234.013 449.631L235.906 451.267Z" fill="#CED3E8"/>
<path d="M242.762 454.471L242.592 455.152L239.027 457.18L239.198 456.498L242.762 454.471Z" fill="#C2C8E3"/>
<path d="M239.198 456.496L239.027 457.177L235.565 454.196L235.735 453.531L239.198 456.496Z" fill="#8F9AD2"/>
<path d="M242.762 454.47L239.198 456.498L235.735 453.533L239.3 451.488L242.762 454.47Z" fill="#CED3E8"/>
<path d="M238.447 456.939L238.277 457.604L234.712 459.631L234.883 458.967L238.447 456.939Z" fill="#C2C8E3"/>
<path d="M234.883 458.966L234.712 459.631L231.25 456.666L231.421 455.984L234.883 458.966Z" fill="#8F9AD2"/>
<path d="M238.447 456.939L234.883 458.966L231.421 455.985L234.985 453.957L238.447 456.939Z" fill="#CED3E8"/>
<path d="M229.152 455.117L228.982 455.782L225.417 457.809L225.588 457.145L229.152 455.117Z" fill="#C2C8E3"/>
<path d="M225.588 457.145L225.417 457.81L223.541 456.191L223.712 455.51L225.588 457.145Z" fill="#8F9AD2"/>
<path d="M229.152 455.118L225.588 457.146L223.712 455.51L227.259 453.482L229.152 455.118Z" fill="#CED3E8"/>
<path d="M234.132 459.391L233.962 460.072L230.397 462.1L230.568 461.418L234.132 459.391Z" fill="#C2C8E3"/>
<path d="M230.568 461.421L230.397 462.103L226.935 459.121L227.106 458.439L230.568 461.421Z" fill="#8F9AD2"/>
<path d="M234.132 459.394L230.568 461.421L227.106 458.44L230.67 456.412L234.132 459.394Z" fill="#CED3E8"/>
<path d="M295.104 430.514L294.933 431.195L292.767 432.422L292.938 431.74L295.104 430.514Z" fill="#C2C8E3"/>
<path d="M292.938 431.74L292.767 432.422L289.305 429.44L289.476 428.775L292.938 431.74Z" fill="#8F9AD2"/>
<path d="M302.796 432.049L302.625 432.713L299.061 434.741L299.231 434.076L302.796 432.049Z" fill="#C2C8E3"/>
<path d="M302.796 432.049L299.231 434.076L295.104 430.515L292.938 431.742L289.476 428.777L295.189 425.506L296.417 426.545L298.668 428.488L302.796 432.049Z" fill="#CED3E8"/>
<path d="M299.231 434.075L299.061 434.739L294.933 431.195L295.104 430.514L299.231 434.075Z" fill="#8F9AD2"/>
<path d="M288.623 434.214L288.469 434.879L285.007 431.914L285.161 431.232L288.623 434.214Z" fill="#8F9AD2"/>
<path d="M292.187 432.184L292.017 432.848L288.469 434.876L288.623 434.211L292.187 432.184Z" fill="#C2C8E3"/>
<path d="M292.187 432.187L288.623 434.214L285.161 431.233L288.725 429.205L292.187 432.187Z" fill="#CED3E8"/>
<path d="M298.481 434.502L298.31 435.183L294.746 437.211L294.916 436.53L298.481 434.502Z" fill="#C2C8E3"/>
<path d="M298.481 434.501L294.916 436.529L291.454 433.547L295.019 431.52L298.481 434.501Z" fill="#CED3E8"/>
<path d="M294.916 436.529L294.746 437.21L291.283 434.228L291.454 433.547L294.916 436.529Z" fill="#8F9AD2"/>
<path d="M287.872 434.637L287.702 435.318L284.154 437.346L284.308 436.664L287.872 434.637Z" fill="#C2C8E3"/>
<path d="M284.308 436.664L284.154 437.345L280.692 434.364L280.846 433.699L284.308 436.664Z" fill="#8F9AD2"/>
<path d="M287.872 434.636L284.308 436.664L280.846 433.699L284.41 431.654L287.872 434.636Z" fill="#CED3E8"/>
<path d="M283.557 437.109L283.387 437.774L279.839 439.801L280.01 439.137L283.557 437.109Z" fill="#C2C8E3"/>
<path d="M280.01 439.136L279.839 439.8L276.377 436.836L276.531 436.154L280.01 439.136Z" fill="#8F9AD2"/>
<path d="M283.557 437.109L280.01 439.136L276.531 436.154L280.095 434.127L283.557 437.109Z" fill="#CED3E8"/>
<path d="M279.243 439.561L279.072 440.242L275.525 442.27L275.695 441.588L279.243 439.561Z" fill="#C2C8E3"/>
<path d="M275.695 441.586L275.525 442.267L272.062 439.286L272.233 438.621L275.695 441.586Z" fill="#8F9AD2"/>
<path d="M279.243 439.562L275.695 441.589L272.233 438.625L275.78 436.58L279.243 439.562Z" fill="#CED3E8"/>
<path d="M274.928 442.033L274.757 442.698L271.21 444.725L271.38 444.061L274.928 442.033Z" fill="#C2C8E3"/>
<path d="M271.38 444.06L271.21 444.724L267.748 441.76L267.918 441.078L271.38 444.06Z" fill="#8F9AD2"/>
<path d="M274.928 442.032L271.38 444.06L267.918 441.078L271.466 439.051L274.928 442.032Z" fill="#CED3E8"/>
<path d="M294.166 436.971L293.995 437.635L290.431 439.663L290.601 438.998L294.166 436.971Z" fill="#C2C8E3"/>
<path d="M290.601 438.999L290.431 439.664L286.969 436.699L287.139 436.018L290.601 438.999Z" fill="#8F9AD2"/>
<path d="M294.166 436.972L290.601 438.999L287.139 436.018L290.704 433.99L294.166 436.972Z" fill="#CED3E8"/>
<path d="M289.851 439.428L289.68 440.109L286.116 442.137L286.286 441.455L289.851 439.428Z" fill="#C2C8E3"/>
<path d="M286.286 441.454L286.116 442.136L282.654 439.154L282.824 438.473L286.286 441.454Z" fill="#8F9AD2"/>
<path d="M289.851 439.427L286.286 441.455L282.824 438.473L286.389 436.445L289.851 439.427Z" fill="#CED3E8"/>
<path d="M285.536 441.898L285.365 442.563L281.801 444.59L281.971 443.926L285.536 441.898Z" fill="#C2C8E3"/>
<path d="M281.971 443.925L281.801 444.59L278.339 441.625L278.509 440.943L281.971 443.925Z" fill="#8F9AD2"/>
<path d="M285.536 441.898L281.971 443.925L278.509 440.944L282.074 438.916L285.536 441.898Z" fill="#CED3E8"/>
<path d="M281.221 444.346L281.05 445.027L277.486 447.055L277.657 446.373L281.221 444.346Z" fill="#C2C8E3"/>
<path d="M277.657 446.372L277.486 447.054L274.024 444.072L274.194 443.391L277.657 446.372Z" fill="#8F9AD2"/>
<path d="M281.221 444.345L277.656 446.373L274.194 443.391L277.759 441.363L281.221 444.345Z" fill="#CED3E8"/>
<path d="M270.613 444.486L270.459 445.168L266.895 447.195L267.065 446.514L270.613 444.486Z" fill="#C2C8E3"/>
<path d="M267.065 446.513L266.895 447.194L263.433 444.213L263.603 443.531L267.065 446.513Z" fill="#8F9AD2"/>
<path d="M270.613 444.486L267.065 446.513L263.603 443.531L267.151 441.504L270.613 444.486Z" fill="#CED3E8"/>
<path d="M276.906 446.82L276.735 447.485L273.188 449.512L273.342 448.848L276.906 446.82Z" fill="#C2C8E3"/>
<path d="M273.342 448.847L273.188 449.511L269.709 446.53L269.879 445.865L273.342 448.847Z" fill="#8F9AD2"/>
<path d="M276.906 446.822L273.342 448.849L269.879 445.867L273.444 443.84L276.906 446.822Z" fill="#CED3E8"/>
<path d="M266.298 446.957L266.144 447.622L262.58 449.649L262.751 448.985L266.298 446.957Z" fill="#C2C8E3"/>
<path d="M262.75 448.984L262.58 449.648L259.118 446.683L259.288 446.002L262.75 448.984Z" fill="#8F9AD2"/>
<path d="M266.298 446.958L262.75 448.986L259.288 446.004L262.836 443.977L266.298 446.958Z" fill="#CED3E8"/>
<path d="M272.591 449.271L272.421 449.953L268.873 451.981L269.027 451.299L272.591 449.271Z" fill="#C2C8E3"/>
<path d="M269.027 451.3L268.873 451.982L265.411 449L265.564 448.318L269.027 451.3Z" fill="#8F9AD2"/>
<path d="M272.591 449.273L269.027 451.3L265.564 448.319L269.129 446.291L272.591 449.273Z" fill="#CED3E8"/>
<path d="M261.983 449.41L261.83 450.092L258.265 452.119L258.436 451.438L261.983 449.41Z" fill="#C2C8E3"/>
<path d="M258.436 451.439L258.265 452.12L254.803 449.139L254.973 448.457L258.436 451.439Z" fill="#8F9AD2"/>
<path d="M261.983 449.411L258.436 451.439L254.973 448.457L258.521 446.43L261.983 449.411Z" fill="#CED3E8"/>
<path d="M268.276 451.742L268.106 452.407L264.558 454.434L264.729 453.77L268.276 451.742Z" fill="#C2C8E3"/>
<path d="M264.729 453.771L264.558 454.435L261.096 451.454L261.25 450.789L264.729 453.771Z" fill="#8F9AD2"/>
<path d="M268.276 451.743L264.729 453.771L261.25 450.789L264.814 448.762L268.276 451.743Z" fill="#CED3E8"/>
<path d="M257.685 451.879L257.515 452.543L253.95 454.571L254.121 453.906L257.685 451.879Z" fill="#C2C8E3"/>
<path d="M254.121 453.907L253.95 454.572L250.488 451.607L250.659 450.926L254.121 453.907Z" fill="#8F9AD2"/>
<path d="M257.685 451.88L254.121 453.908L250.658 450.926L254.206 448.898L257.685 451.88Z" fill="#CED3E8"/>
<path d="M263.961 454.195L263.791 454.877L260.243 456.904L260.414 456.223L263.961 454.195Z" fill="#C2C8E3"/>
<path d="M260.414 456.222L260.243 456.903L256.781 453.922L256.952 453.24L260.414 456.222Z" fill="#8F9AD2"/>
<path d="M263.961 454.198L260.414 456.226L256.952 453.244L260.499 451.217L263.961 454.198Z" fill="#CED3E8"/>
<path d="M253.37 454.334L253.2 455.016L249.635 457.043L249.806 456.362L253.37 454.334Z" fill="#C2C8E3"/>
<path d="M249.806 456.361L249.635 457.042L246.173 454.06L246.344 453.379L249.806 456.361Z" fill="#8F9AD2"/>
<path d="M253.37 454.333L249.806 456.361L246.344 453.379L249.908 451.352L253.37 454.333Z" fill="#CED3E8"/>
<path d="M259.647 456.67L259.476 457.334L255.929 459.362L256.099 458.697L259.647 456.67Z" fill="#C2C8E3"/>
<path d="M256.099 458.697L255.928 459.361L252.466 456.379L252.637 455.715L256.099 458.697Z" fill="#8F9AD2"/>
<path d="M259.646 456.669L256.099 458.697L252.637 455.715L256.184 453.688L259.646 456.669Z" fill="#CED3E8"/>
<path d="M249.055 456.803L248.885 457.467L245.32 459.495L245.491 458.83L249.055 456.803Z" fill="#C2C8E3"/>
<path d="M245.491 458.829L245.32 459.494L241.858 456.512L242.029 455.848L245.491 458.829Z" fill="#8F9AD2"/>
<path d="M249.055 456.804L245.491 458.831L242.029 455.85L245.593 453.822L249.055 456.804Z" fill="#CED3E8"/>
<path d="M255.332 459.121L255.178 459.803L251.614 461.83L251.784 461.149L255.332 459.121Z" fill="#C2C8E3"/>
<path d="M251.784 461.148L251.614 461.829L248.151 458.848L248.322 458.166L251.784 461.148Z" fill="#8F9AD2"/>
<path d="M255.332 459.12L251.784 461.148L248.322 458.166L251.869 456.139L255.332 459.12Z" fill="#CED3E8"/>
<path d="M244.741 459.26L244.57 459.941L234.542 465.666L234.712 464.985L244.741 459.26Z" fill="#C2C8E3"/>
<path d="M234.712 464.984L234.542 465.665L231.08 462.683L231.25 462.002L234.712 464.984Z" fill="#8F9AD2"/>
<path d="M244.741 459.259L234.712 464.984L231.25 462.002L241.278 456.277L244.741 459.259Z" fill="#CED3E8"/>
<path d="M251.017 461.59L250.863 462.254L247.299 464.282L247.469 463.617L251.017 461.59Z" fill="#C2C8E3"/>
<path d="M247.469 463.616L247.299 464.281L243.837 461.299L244.007 460.635L247.469 463.616Z" fill="#8F9AD2"/>
<path d="M251.017 461.589L247.469 463.617L244.007 460.635L247.555 458.607L251.017 461.589Z" fill="#CED3E8"/>
<path d="M306.923 435.594L306.752 436.275L301.039 439.53L301.21 438.865L306.923 435.594Z" fill="#C2C8E3"/>
<path d="M301.209 438.863L301.039 439.527L297.577 436.545L297.747 435.881L301.209 438.863Z" fill="#8F9AD2"/>
<path d="M306.923 435.593L301.209 438.864L297.747 435.883L303.461 432.611L306.923 435.593Z" fill="#CED3E8"/>
<path d="M300.459 439.291L300.288 439.973L296.724 442L296.894 441.319L300.459 439.291Z" fill="#C2C8E3"/>
<path d="M296.894 441.318L296.724 441.999L293.262 439.017L293.432 438.336L296.894 441.318Z" fill="#8F9AD2"/>
<path d="M300.459 439.29L296.894 441.318L293.432 438.336L296.997 436.309L300.459 439.29Z" fill="#CED3E8"/>
<path d="M296.144 441.76L295.973 442.424L292.409 444.452L292.58 443.787L296.144 441.76Z" fill="#C2C8E3"/>
<path d="M292.58 443.788L292.409 444.453L288.947 441.471L289.117 440.807L292.58 443.788Z" fill="#8F9AD2"/>
<path d="M296.144 441.761L292.58 443.789L289.117 440.807L292.682 438.779L296.144 441.761Z" fill="#CED3E8"/>
<path d="M291.829 444.209L291.659 444.891L288.094 446.918L288.265 446.237L291.829 444.209Z" fill="#C2C8E3"/>
<path d="M288.265 446.236L288.094 446.917L284.632 443.935L284.803 443.254L288.265 446.236Z" fill="#8F9AD2"/>
<path d="M291.829 444.208L288.265 446.236L284.802 443.254L288.367 441.227L291.829 444.208Z" fill="#CED3E8"/>
<path d="M287.514 446.682L287.344 447.346L283.779 449.374L283.95 448.709L287.514 446.682Z" fill="#C2C8E3"/>
<path d="M283.95 448.708L283.779 449.373L280.317 446.391L280.488 445.727L283.95 448.708Z" fill="#8F9AD2"/>
<path d="M287.514 446.683L283.95 448.71L280.488 445.729L284.052 443.701L287.514 446.683Z" fill="#CED3E8"/>
<path d="M283.199 449.139L283.029 449.82L279.464 451.848L279.635 451.166L283.199 449.139Z" fill="#C2C8E3"/>
<path d="M279.635 451.165L279.464 451.847L276.002 448.865L276.173 448.184L279.635 451.165Z" fill="#8F9AD2"/>
<path d="M283.199 449.138L279.635 451.165L276.173 448.184L279.737 446.156L283.199 449.138Z" fill="#CED3E8"/>
<path d="M278.885 451.607L278.714 452.272L275.15 454.299L275.32 453.635L278.885 451.607Z" fill="#C2C8E3"/>
<path d="M275.32 453.634L275.15 454.299L271.687 451.317L271.858 450.652L275.32 453.634Z" fill="#8F9AD2"/>
<path d="M278.885 451.607L275.32 453.634L271.858 450.653L275.422 448.625L278.885 451.607Z" fill="#CED3E8"/>
<path d="M274.57 454.061L274.399 454.742L270.835 456.77L271.005 456.088L274.57 454.061Z" fill="#C2C8E3"/>
<path d="M271.005 456.091L270.835 456.773L267.372 453.791L267.543 453.109L271.005 456.091Z" fill="#8F9AD2"/>
<path d="M274.57 454.064L271.005 456.091L267.543 453.11L271.107 451.082L274.57 454.064Z" fill="#CED3E8"/>
<path d="M270.255 456.516L270.084 457.197L266.52 459.225L266.69 458.56L270.255 456.516Z" fill="#C2C8E3"/>
<path d="M266.69 458.56L266.52 459.224L263.057 456.243L263.228 455.578L266.69 458.56Z" fill="#8F9AD2"/>
<path d="M270.255 456.515L266.69 458.56L263.228 455.578L266.792 453.551L270.255 456.515Z" fill="#CED3E8"/>
<path d="M265.94 458.984L265.769 459.666L262.222 461.693L262.375 461.012L265.94 458.984Z" fill="#C2C8E3"/>
<path d="M262.375 461.011L262.222 461.692L258.743 458.711L258.913 458.029L262.375 461.011Z" fill="#8F9AD2"/>
<path d="M265.94 458.984L262.375 461.011L258.913 458.03L262.478 456.002L265.94 458.984Z" fill="#CED3E8"/>
<path d="M261.625 461.439L261.454 462.121L257.907 464.149L258.06 463.484L261.625 461.439Z" fill="#C2C8E3"/>
<path d="M258.06 463.482L257.907 464.146L254.428 461.164L254.598 460.5L258.06 463.482Z" fill="#8F9AD2"/>
<path d="M261.625 461.439L258.06 463.484L254.598 460.502L258.163 458.475L261.625 461.439Z" fill="#CED3E8"/>
<path d="M257.31 463.91L257.139 464.592L253.592 466.619L253.746 465.938L257.31 463.91Z" fill="#C2C8E3"/>
<path d="M253.745 465.937L253.592 466.618L250.13 463.637L250.283 462.955L253.745 465.937Z" fill="#8F9AD2"/>
<path d="M257.31 463.909L253.745 465.937L250.283 462.955L253.848 460.928L257.31 463.909Z" fill="#CED3E8"/>
<path d="M311.05 439.152L310.88 439.834L303.017 444.315L303.188 443.65L311.05 439.152Z" fill="#C2C8E3"/>
<path d="M303.188 443.652L303.017 444.316L299.555 441.334L299.726 440.67L303.188 443.652Z" fill="#8F9AD2"/>
<path d="M311.05 439.154L303.188 443.652L299.726 440.67L307.588 436.172L311.05 439.154Z" fill="#CED3E8"/>
<path d="M302.42 444.076L302.267 444.758L298.702 446.785L298.873 446.104L302.42 444.076Z" fill="#C2C8E3"/>
<path d="M298.873 446.103L298.702 446.784L295.24 443.803L295.411 443.121L298.873 446.103Z" fill="#8F9AD2"/>
<path d="M302.42 444.077L298.873 446.105L295.411 443.123L298.958 441.096L302.42 444.077Z" fill="#CED3E8"/>
<path d="M298.123 446.529L297.952 447.211L294.388 449.238L294.558 448.574L298.123 446.529Z" fill="#C2C8E3"/>
<path d="M294.558 448.573L294.388 449.238L290.925 446.256L291.096 445.592L294.558 448.573Z" fill="#8F9AD2"/>
<path d="M298.122 446.529L294.558 448.574L291.096 445.592L294.643 443.564L298.122 446.529Z" fill="#CED3E8"/>
<path d="M293.808 449.002L293.637 449.683L264.183 466.483L264.354 465.802L293.808 449.002Z" fill="#C2C8E3"/>
<path d="M264.354 465.802L264.183 466.484L260.721 463.502L260.892 462.82L264.354 465.802Z" fill="#8F9AD2"/>
<path d="M293.808 449.001L264.354 465.801L260.891 462.819L290.328 446.02L293.808 449.001Z" fill="#CED3E8"/>
<path d="M263.603 466.227L263.433 466.908L259.868 468.936L260.039 468.271L263.603 466.227Z" fill="#C2C8E3"/>
<path d="M260.039 468.269L259.868 468.933L256.406 465.952L256.577 465.287L260.039 468.269Z" fill="#8F9AD2"/>
<path d="M263.603 466.226L260.039 468.27L256.577 465.289L260.141 463.244L263.603 466.226Z" fill="#CED3E8"/>
<path d="M246.702 464.045L246.548 464.726L238.669 469.208L238.84 468.543L246.702 464.045Z" fill="#C2C8E3"/>
<path d="M238.84 468.544L238.669 469.209L235.207 466.227L235.377 465.562L238.84 468.544Z" fill="#8F9AD2"/>
<path d="M246.702 464.046L238.84 468.544L235.377 465.563L243.24 461.064L246.702 464.046Z" fill="#CED3E8"/>
<path d="M252.995 466.361L252.825 467.043L249.277 469.07L249.448 468.406L252.995 466.361Z" fill="#C2C8E3"/>
<path d="M249.448 468.406L249.277 469.07L245.815 466.088L245.969 465.424L249.448 468.406Z" fill="#8F9AD2"/>
<path d="M252.995 466.361L249.448 468.406L245.969 465.424L249.533 463.396L252.995 466.361Z" fill="#CED3E8"/>
<path d="M259.288 468.695L259.118 469.36L255.553 471.404L255.724 470.723L259.288 468.695Z" fill="#C2C8E3"/>
<path d="M255.724 470.722L255.553 471.403L252.091 468.422L252.262 467.74L255.724 470.722Z" fill="#8F9AD2"/>
<path d="M259.288 468.697L255.724 470.724L252.262 467.742L255.826 465.715L259.288 468.697Z" fill="#CED3E8"/>
<path d="M248.68 468.832L248.51 469.497L242.796 472.768L242.967 472.086L248.68 468.832Z" fill="#C2C8E3"/>
<path d="M242.967 472.089L242.796 472.771L239.334 469.789L239.505 469.107L242.967 472.089Z" fill="#8F9AD2"/>
<path d="M248.68 468.835L242.967 472.09L239.504 469.108L245.218 465.854L248.68 468.835Z" fill="#CED3E8"/>
<path d="M254.974 471.148L254.803 471.83L246.924 476.328L247.094 475.647L254.974 471.148Z" fill="#C2C8E3"/>
<path d="M247.094 475.648L246.924 476.329L243.461 473.348L243.632 472.666L247.094 475.648Z" fill="#8F9AD2"/>
<path d="M254.973 471.15L247.094 475.648L243.632 472.666L251.511 468.168L254.973 471.15Z" fill="#CED3E8"/>
<path d="M217.367 436.952L239.624 424.02L235.77 416.318L213.496 429.233L217.367 436.952Z" fill="#322A36"/>
<path d="M226.645 442.304L248.902 429.371L239.624 424.021L217.367 436.954L226.645 442.304Z" fill="#39313E"/>
<path d="M226.628 444.878L248.902 431.946V429.373L226.645 442.305L226.628 444.878Z" fill="#231B26"/>
<path d="M213.496 429.234L235.77 416.319L235.872 382.941L213.598 395.873L213.496 429.234Z" fill="#231B26"/>
<path d="M213.598 395.875L235.872 382.943L233.621 381.648L211.364 394.58L213.598 395.875Z" fill="#39313E"/>
<path d="M211.364 394.58L211.262 428.861L216.293 438.914L226.628 444.877L226.645 442.304L217.367 436.954L213.496 429.236L213.598 395.875L211.364 394.58Z" fill="#1B151E"/>
<path d="M268.276 308.57L271.721 310.581C271.005 310.155 269.999 310.223 268.89 310.853L265.445 308.86C266.554 308.212 267.56 308.161 268.276 308.57Z" fill="#CED3E8"/>
<path d="M268.908 310.857L265.463 308.863C266.572 308.233 267.561 308.165 268.294 308.59L271.74 310.601C271.006 310.158 270 310.226 268.908 310.857Z" fill="#CED3E8"/>
<path d="M171.234 445.457L167.789 443.446C167.072 443.037 166.629 442.151 166.629 440.891L170.074 442.901C170.074 444.162 170.517 445.048 171.234 445.457Z" fill="#CED3E8"/>
<path d="M171.234 445.457L167.789 443.446C167.072 443.037 166.629 442.151 166.629 440.891L170.074 442.901C170.074 444.162 170.517 445.048 171.234 445.457Z" fill="#CED3E8"/>
<path d="M170.074 442.916L166.612 440.905L166.424 370.537L169.869 372.548L170.074 442.916Z" fill="#CED3E8"/>
<path d="M173.826 365.699L170.381 363.688L265.445 308.859L268.907 310.853L173.826 365.699Z" fill="#CED3E8"/>
<path d="M169.869 372.551L166.424 370.541C166.424 368.019 168.181 364.952 170.381 363.691L173.826 365.702C171.626 366.963 169.852 370.03 169.869 372.551Z" fill="#CED3E8"/>
<path d="M169.869 372.551L166.424 370.541C166.424 368.019 168.181 364.952 170.381 363.691L173.826 365.702C171.626 366.963 169.852 370.03 169.869 372.551Z" fill="#CED3E8"/>
<path d="M268.907 310.852C271.107 309.591 272.881 310.597 272.898 313.118L273.103 383.486C273.103 386.008 271.346 389.075 269.146 390.336L174.082 445.165C171.882 446.425 170.108 445.42 170.091 442.899L169.886 372.531C169.886 370.009 171.643 366.942 173.843 365.681L268.907 310.852Z" fill="#E3E3E3"/>
<path d="M172.172 438.101L172.189 442.906C172.189 443.298 172.257 443.519 172.308 443.604C172.41 443.604 172.632 443.553 172.99 443.349L268.055 388.52C269.607 387.634 270.954 385.282 270.954 383.51V381.125L172.172 438.101Z" fill="#E3E3E3"/>
<path d="M270.954 381.119L172.172 438.095V436.528L171.984 372.549C171.984 370.777 173.332 368.426 174.884 367.54L269.248 313.12L269.965 312.711C270.323 312.506 270.562 312.455 270.647 312.455C270.681 312.54 270.749 312.762 270.766 313.154L270.954 381.119Z" fill="#8F9AD2"/>
<path d="M269.453 380.42L172.172 436.527L171.984 372.549C171.984 370.777 173.332 368.425 174.884 367.539L269.248 313.119L269.453 380.42Z" fill="#3064C7"/>
<path d="M172.172 436.53L171.984 372.551C171.984 370.779 173.332 368.428 174.884 367.542L268.242 313.701L172.172 436.53Z" fill="#1391EE"/>
<path d="M291.795 431.539C291.761 431.521 291.71 431.521 291.675 431.504C291.539 431.453 291.437 431.402 291.283 431.351C288.418 430.431 281.34 428.574 280.675 431.47C280.829 431.607 280.982 431.743 281.153 431.879C278.168 433.6 280.436 434.145 278.935 435.543C278.151 436.258 278.1 437.996 279.072 437.672C278.424 438.729 278.935 439.717 281.306 439.155C282.551 438.865 284.564 438.797 287.565 440.586C287.446 440.773 288.725 441.761 286.73 441.744C285.416 441.744 285.416 440.62 283.353 441.199C282.568 441.421 282.432 442.085 282.96 442.511C290.806 448.73 295.018 442.75 294.728 442.92C294.541 443.039 295.104 442.699 295.274 442.579C295.905 442.528 296.638 442.545 297.116 442.153C297.764 441.625 298.242 440.671 298.532 439.904C300.783 434.06 295.547 433.072 291.795 431.539Z" fill="#F1B599"/>
<path d="M299.214 433.207C302.625 433.121 317.139 434.024 330.083 437.125C338.218 439.085 342.926 443.191 341.339 448.456C340.708 450.534 338.406 453.482 336.052 453.942C333.119 454.504 310.18 446.445 295.973 444.23C294.473 443.992 299.214 433.207 299.214 433.207Z" fill="#8F9AD2"/>
<path d="M272.574 533.702C272.011 533.872 271.431 534.213 270.851 534.776C268.975 536.582 268.413 539.614 269.214 542.068C269.965 544.334 272.011 545.85 273.99 547.128C275.559 548.151 277.264 548.917 279.055 549.462C281.289 550.161 285.263 550.962 288.247 553.006C289.458 553.841 293.688 555.63 295.462 554.097C299.06 551.013 299.146 545.867 297.031 543.039C295.376 540.841 294.899 541.608 284.137 538.013C281.443 537.11 278.816 535.832 276.326 534.469C275.013 533.753 273.785 533.344 272.574 533.702Z" fill="#1B151E"/>
<path d="M295.973 535.865C302.522 517.361 307.997 494.104 302.744 489.504C300.817 487.817 298.293 487.05 295.752 486.829C289.527 486.266 286.866 489.623 284.717 495.552C283.694 498.363 280.112 517.497 277.793 529.935L295.973 535.865Z" fill="#322A36"/>
<path d="M238.464 559.531C237.952 559.838 237.475 560.315 237.031 560.997C235.633 563.195 235.804 566.296 237.185 568.477C238.447 570.487 240.801 571.458 243.035 572.225C244.809 572.821 246.633 573.162 248.509 573.264C250.846 573.401 254.905 573.196 258.265 574.457C259.646 574.968 264.166 575.684 265.53 573.758C268.293 569.891 267.15 564.864 264.422 562.632C262.29 560.895 262.017 561.763 250.71 560.895C247.878 560.673 245.03 560.077 242.284 559.361C240.835 558.986 239.573 558.884 238.464 559.531Z" fill="#1B151E"/>
<path d="M263.432 509.082C262.187 512.234 257.02 536.156 254.496 547.724C253.217 553.552 247.52 564.183 255.826 569.431C257.531 570.522 259.663 570.88 261.676 570.505C264.217 570.045 264.933 568.426 266.144 566.143C274.876 549.769 288.486 510.07 281.613 503.629C279.754 501.875 277.23 501.023 274.706 500.716C268.515 499.949 265.752 503.221 263.432 509.082Z" fill="#322A36"/>
<path d="M335.831 544.571V547.075C331.635 544.622 324.813 544.622 320.635 547.075V544.571C324.813 542.117 331.635 542.117 335.831 544.571Z" fill="#7480BA"/>
<path d="M321.453 544.145C321.163 544.281 320.891 544.417 320.635 544.587V547.092C320.908 546.939 321.181 546.785 321.453 546.649V544.145Z" fill="#7480BA"/>
<path d="M320.635 544.57V547.075L282.039 569.395L282.057 566.89L320.635 544.57Z" fill="#7480BA"/>
<path d="M278.935 573.825V571.321C278.935 569.719 279.976 568.117 282.056 566.891V569.395C279.976 570.622 278.935 572.224 278.935 573.825Z" fill="#7480BA"/>
<path d="M282.056 566.891V569.395C279.976 570.622 278.935 572.224 278.935 573.825V571.321C278.935 569.719 279.976 568.117 282.056 566.891Z" fill="#7480BA"/>
<path d="M278.253 578.082C275.132 576.259 273.563 573.84 273.58 571.438V573.942C273.58 576.345 275.132 578.747 278.27 580.587L293.62 589.532V586.533L278.253 578.082Z" fill="#7480BA"/>
<path d="M282.057 566.889L320.635 544.569C320.908 544.416 321.181 544.262 321.453 544.126V540.582C319.833 541.025 318.315 541.638 316.985 542.422L278.168 564.896C271.994 568.525 272.028 574.437 278.236 578.083C278.236 578.083 293.313 586.381 293.586 586.517L297.031 584.524C296.843 584.421 296.656 584.319 296.468 584.217L282.091 575.8C277.895 573.347 277.878 569.36 282.057 566.889Z" fill="#B4BCDF"/>
<path d="M293.603 586.532L297.014 584.521L320.396 598.203L316.985 600.214L293.603 586.532Z" fill="#B4BCDF"/>
<path d="M324.984 598.644L321.573 600.654C320.362 601.37 318.725 601.216 316.985 600.194L320.396 598.184C322.136 599.206 323.773 599.359 324.984 598.644Z" fill="#7480BA"/>
<path d="M320.993 598.507C320.788 598.405 320.601 598.303 320.396 598.184L316.985 600.194C317.19 600.313 317.377 600.416 317.582 600.518C319.083 601.233 320.498 601.285 321.573 600.654L324.984 598.644C323.909 599.274 322.511 599.223 320.993 598.507Z" fill="#B4BCDF"/>
<path d="M326.81 601.831L323.399 603.842C323.587 603.74 323.757 603.62 323.928 603.484C325.65 602.104 326.367 599.395 325.906 596.055L329.317 594.045C329.778 597.384 329.061 600.094 327.339 601.474C327.168 601.61 326.981 601.729 326.81 601.831Z" fill="#B4BCDF"/>
<path d="M329.401 594.914C329.384 594.624 329.35 594.335 329.299 594.045L325.888 596.055C325.922 596.345 325.956 596.635 325.99 596.924C326.212 599.855 325.478 602.223 323.909 603.484C323.739 603.62 323.568 603.74 323.381 603.842L326.792 601.831C326.979 601.729 327.15 601.61 327.32 601.474C328.889 600.213 329.623 597.844 329.401 594.914Z" fill="#B4BCDF"/>
<path d="M274.656 536.134L278.067 534.123L317.958 557.448L314.548 559.459L274.656 536.134Z" fill="#7480BA"/>
<path d="M323.398 573.261L326.809 571.25L329.299 594.047L325.888 596.058L323.398 573.261Z" fill="#B4BCDF"/>
<path d="M314.546 559.456L317.957 557.445C322.323 560.001 326.041 565.794 326.809 571.246L323.398 573.257C322.63 567.805 318.895 562.012 314.546 559.456Z" fill="#B4BCDF"/>
<path d="M314.546 559.456L317.957 557.445C319.356 558.263 320.703 559.439 321.897 560.819L318.486 562.829C317.292 561.449 315.945 560.274 314.546 559.456Z" fill="#B4BCDF"/>
<path d="M318.486 562.829L321.897 560.818C323.295 562.437 324.506 564.345 325.376 566.373L321.965 568.383C321.095 566.356 319.884 564.431 318.486 562.829Z" fill="#B4BCDF"/>
<path d="M321.965 568.368L325.376 566.357C326.075 567.959 326.57 569.612 326.792 571.247L323.381 573.258C323.159 571.639 322.664 569.97 321.965 568.368Z" fill="#B4BCDF"/>
<path d="M314.546 559.456C318.912 562.012 322.63 567.805 323.398 573.257L325.905 596.037C326.365 599.377 325.649 602.086 323.926 603.466C322.204 604.863 319.68 604.761 316.985 603.193L293.603 589.512V586.513L316.985 600.195C318.895 601.319 320.703 601.387 321.931 600.399C323.159 599.411 323.671 597.452 323.347 595.066L320.839 572.286C320.277 568.401 317.633 564.278 314.529 562.455L274.638 539.13V536.131L314.546 559.456Z" fill="#7480BA"/>
<path d="M324.438 550.803L327.849 548.793L365.728 570.977L362.317 572.987L324.438 550.803Z" fill="#B4BCDF"/>
<path d="M370.316 571.437L366.905 573.447C365.694 574.163 364.057 574.009 362.317 572.987L365.728 570.977C367.468 571.999 369.105 572.152 370.316 571.437Z" fill="#7480BA"/>
<path d="M366.325 571.3C366.12 571.198 365.933 571.096 365.728 570.977L362.317 572.987C362.522 573.106 362.709 573.209 362.914 573.311C364.415 574.026 365.83 574.077 366.905 573.447L370.316 571.437C369.241 572.067 367.826 572.016 366.325 571.3Z" fill="#B4BCDF"/>
<path d="M372.124 574.624L368.713 576.635C368.9 576.533 369.071 576.413 369.241 576.277C370.964 574.897 371.68 572.188 371.22 568.848L374.631 566.838C375.091 570.177 374.375 572.887 372.652 574.267C372.482 574.403 372.311 574.522 372.124 574.624Z" fill="#B4BCDF"/>
<path d="M374.733 567.707C374.716 567.417 374.682 567.128 374.631 566.838L371.22 568.848C371.254 569.138 371.288 569.445 371.322 569.717C371.544 572.648 370.81 575.016 369.241 576.277C369.071 576.413 368.9 576.533 368.713 576.635L372.124 574.624C372.311 574.522 372.482 574.403 372.652 574.267C374.221 573.006 374.955 570.637 374.733 567.707Z" fill="#B4BCDF"/>
<path d="M319.988 508.925L323.399 506.914L363.29 530.239L359.862 532.25L319.988 508.925Z" fill="#7480BA"/>
<path d="M368.713 546.052L372.124 544.041L374.631 566.838L371.22 568.832L368.713 546.052Z" fill="#B4BCDF"/>
<path d="M359.861 532.247L363.272 530.236C367.638 532.792 371.356 538.585 372.124 544.037L368.713 546.048C367.945 540.596 364.227 534.803 359.861 532.247Z" fill="#B4BCDF"/>
<path d="M359.861 532.247L363.272 530.236C364.688 531.054 366.018 532.23 367.212 533.61L363.801 535.62C362.624 534.223 361.277 533.065 359.861 532.247Z" fill="#7480BA"/>
<path d="M363.818 535.606L367.229 533.596C368.627 535.214 369.838 537.123 370.708 539.15L367.297 541.161C366.41 539.15 365.216 537.225 363.818 535.606Z" fill="#B4BCDF"/>
<path d="M367.297 541.159L370.708 539.148C371.407 540.75 371.902 542.403 372.124 544.038L368.713 546.049C368.491 544.413 367.996 542.761 367.297 541.159Z" fill="#B4BCDF"/>
<path d="M359.861 532.247C364.227 534.803 367.945 540.596 368.713 546.048L371.22 568.828C371.68 572.168 370.964 574.877 369.241 576.257C367.519 577.654 364.995 577.552 362.3 575.984L324.421 553.801V550.802L362.3 572.986C364.21 574.11 366.018 574.178 367.263 573.19C368.491 572.202 369.003 570.243 368.678 567.857L366.171 545.077C365.609 541.192 362.965 537.069 359.861 535.246L319.97 511.921L319.987 508.922L359.861 532.247Z" fill="#7480BA"/>
<path d="M274.655 530.611L274.672 536.132L320.447 563.086L320.43 557.566L274.655 530.611Z" fill="#F1AD00"/>
<path d="M274.655 530.612L320.43 557.566L368.372 529.47L322.596 502.516L274.655 530.612Z" fill="#FFD130"/>
<path d="M327.968 498.193C325.052 496.813 322.187 495.365 319.304 493.951C313.727 491.225 308.031 488.686 301.976 487.238C298.719 486.454 295.24 486.096 292.05 487.135C284.7 489.555 284.58 497.887 287.821 503.85C290.857 509.438 304.705 513.647 323.756 528.232C325.427 529.51 327.064 530.821 328.787 532.048C329.247 532.372 329.844 532.9 330.441 533.292C331.874 522.2 332.948 511.125 333.92 499.88C331.857 499.829 329.964 499.13 327.968 498.193Z" fill="#322A36"/>
<path d="M347.019 506.215C344.375 503.114 340.128 501.751 336.086 501.956C332.044 502.16 328.207 503.779 324.694 505.806C322.749 506.931 320.856 508.209 318.741 508.975C317.838 509.299 316.985 509.469 316.132 509.52C316.081 520.8 315.944 531.943 315.416 543.12C315.774 543.324 316.149 543.495 316.473 543.546C317.207 543.665 318.264 543.018 318.946 542.728C322.442 541.212 325.666 538.997 329.333 537.889C329.912 537.719 330.509 537.565 331.106 537.446C331.976 537.276 332.88 537.208 333.75 537.429C334.244 537.565 334.688 537.787 335.148 538.025C337.962 539.44 340.486 540.581 343.488 539.627C360.475 534.277 353.602 513.967 347.019 506.215Z" fill="#1A1E23"/>
<path d="M344.512 521.225C344.512 528.5 340.265 533.628 338.372 539.473C340.009 540.035 341.646 540.222 343.471 539.643C343.522 539.626 343.556 539.609 343.608 539.592C345.074 533.731 344.512 527.478 344.512 521.225Z" fill="#322A36"/>
<path d="M337.451 542.813C336.393 543.835 335.234 544.738 333.955 545.471C329.827 547.839 324.95 548.095 320.379 547.073C317.906 546.527 315.518 545.624 313.233 544.551C310.248 543.137 307.519 541.245 304.722 539.456C284.546 526.541 270.391 523.509 266.912 518.193C263.194 512.536 262.631 504.221 269.743 501.188C272.83 499.876 276.326 499.945 279.635 500.439C285.791 501.376 291.658 503.42 297.457 505.669C300.459 506.828 303.426 508.038 306.445 509.162C309.378 510.253 312.056 510.917 315.109 509.793C317.224 509.026 319.1 507.748 321.061 506.624C323.534 505.192 326.16 503.966 328.94 503.284C330.322 502.943 331.158 503.148 332.488 503.591C333.835 504.034 335.097 504.732 336.24 505.584C344.87 512.076 347.445 533.135 337.451 542.813Z" fill="#322A36"/>
<path d="M348.554 501.068C348.195 503.863 347.94 506.708 347.837 509.519C347.957 506.691 348.195 503.88 348.554 501.068Z" fill="#E5A07D"/>
<path d="M351.606 503.814C351.044 501.616 350.464 499.418 350.123 497.169C349.543 493.182 351.555 479.313 352.169 477.064C356.638 460.639 362.504 454.437 359.349 440.295C358.479 436.376 353.448 431.078 339.685 435.695C329.64 439.069 319.884 443.294 310.538 448.32C307.144 450.143 305.405 452.137 304.705 456.056C303.784 461.15 305.797 517.649 306.223 519.642C309.191 533.801 345.16 538.674 354.148 522.266C356.467 518.024 353.994 514.565 352.323 506.71C352.101 505.739 351.862 504.768 351.606 503.814Z" fill="#B4BCDF"/>
<path d="M345.995 440.993C346.319 450.943 323.739 451.812 323.994 442.458C324.352 429.424 325.137 427.925 331.26 425.897C332.931 425.352 334.688 424.926 336.461 424.892C342.908 424.772 343.045 425.846 343.573 428.095C345.177 434.893 345.876 437.398 345.995 440.993Z" fill="#F1B599"/>
<path d="M345.211 435.166C344.818 433.36 344.29 431.162 343.556 428.095C343.028 425.846 342.908 424.789 336.444 424.892C334.671 424.926 332.914 425.352 331.243 425.897C325.478 427.805 324.455 429.253 324.046 440.379C327.15 441.742 330.254 443.361 333.375 443.361C338.542 442.475 342.584 439.391 345.211 435.166Z" fill="#F1B599"/>
<path d="M314.853 404.67C313.813 406.118 313.045 407.72 312.875 409.56C312.516 413.649 314.393 417.704 313.761 421.776C313.165 425.729 315.348 434.453 323.056 436.242C326.962 437.145 334.432 435.339 336.803 434.01C339.975 432.221 341.936 428.881 343.676 425.661C357.951 399.218 324.779 390.767 314.853 404.67Z" fill="#F1B599"/>
<path d="M346.626 397.666C345.808 396.916 344.836 396.286 343.642 395.809C343.284 395.673 342.908 395.536 342.635 395.264C342.448 395.059 342.329 394.77 342.192 394.514C341.578 393.373 340.452 392.623 339.31 392.061C334.944 389.948 329.81 390.152 325.086 391.14C323.483 391.481 321.897 391.907 320.43 392.64C318.759 393.492 317.326 394.736 316.03 396.099C313.642 398.637 310.828 402.505 311.203 406.219C311.289 407.037 311.8 407.668 312.244 408.366C312.568 408.877 313.028 409.269 313.42 409.729C314.734 411.212 315.433 413.444 316.269 415.216C316.644 415.982 317.036 416.8 317.769 417.226C319.185 418.061 321.01 417.039 322.613 417.431C323.551 417.652 324.301 418.351 324.83 419.168C325.359 419.986 325.666 420.906 325.956 421.826C326.433 423.275 326.553 424.501 326.826 425.95C327.098 427.415 327.61 428.965 328.702 430.022C331.158 432.39 335.558 431.964 338.508 431.112C339.583 430.806 340.64 430.482 341.612 429.92C343.846 428.642 345.296 426.342 346.626 424.127C347.854 422.099 349.099 420.037 349.662 417.737C349.986 416.442 350.089 415.096 350.191 413.767C350.6 408.383 350.737 401.466 346.626 397.666Z" fill="#322A36"/>
<path d="M324.353 416.104C327.388 415.899 328.173 419.716 326.075 422.68C325.461 423.549 324.387 424.316 323.585 424.998C318.128 429.7 316.763 424.606 318.503 423.004C322.528 419.29 320.515 416.376 324.353 416.104Z" fill="#F1B599"/>
<path d="M323.432 421.914C323.79 421.59 327.252 419.512 324.881 418.097C324.233 417.706 323.5 418.285 323.398 418.983C323.346 419.341 323.466 419.716 323.398 420.091C323.363 420.312 323.278 420.517 323.159 420.687C322.852 421.198 321.794 421.675 321.999 422.425C322.204 423.107 323.227 422.101 323.432 421.914Z" fill="#E5A07D"/>
<path d="M316.985 466.227L317.053 555.575L320.43 557.569L320.362 468.22L316.985 466.227Z" fill="#FFD130"/>
<path d="M320.362 468.222L368.457 440.092L368.542 529.44L368.372 529.526L368.389 534.995L320.447 563.091L320.43 557.571L320.362 468.222Z" fill="#FF9501"/>
<path d="M316.985 466.226L320.362 468.219L368.457 440.089L365.08 438.096L316.985 466.226Z" fill="#FFD130"/>
<path d="M260.704 453.91C260.294 453.671 259.97 453.501 259.97 453.535C260.192 455.034 260.397 456.517 260.618 458.016C260.687 458.527 260.601 459.243 260.09 459.243C259.834 459.243 259.612 459.038 259.442 458.834C258.282 457.488 257.327 455.971 256.593 454.353C256.201 453.484 255.741 452.479 254.82 452.257C253.779 452.019 252.876 452.939 252.193 453.756C251.153 455.034 250.147 456.5 250.556 458.238C250.965 460.009 252.125 461.458 252.398 463.349C250.488 462.395 249.772 460.998 248.936 459.141C248.799 458.817 248.561 458.425 248.22 458.493C248.015 458.527 247.878 458.732 247.844 458.936C247.81 459.141 247.878 459.345 247.93 459.549C248.509 461.577 249.345 463.025 250.607 464.729C252.091 466.757 253.558 468.597 255.69 470.011C256.576 470.607 260.789 472.924 262.887 474.765C266.673 478.104 263.074 468.341 264.678 466.791C265.053 466.433 267.543 468.784 267.645 468.205C267.747 467.574 265.206 463.894 264.967 463.315C264.132 461.338 263.671 459.158 262.989 457.113C262.716 456.329 262.58 455.46 262.068 454.762C261.932 454.659 261.25 454.234 260.704 453.91Z" fill="#F1B599"/>
<path d="M259.169 473.232C259.049 472.295 265.769 463.691 268.208 466.74C271.636 471.034 286.781 475.771 289.305 474.476C294.353 471.869 295.683 468.155 297.764 463.128C298.378 461.646 306.07 442.41 317.156 448.952C317.616 449.225 318.111 449.412 318.503 449.77C327.849 458.102 316.9 470.182 311.954 477.526C309.805 480.712 301.772 488.396 295.223 490.679C288.896 492.877 280.129 491.275 271.568 484.954C268.481 482.654 259.595 476.605 259.169 473.232Z" fill="#CED3E8"/>
<path d="M91.9656 526.992L97.9152 566.371L121.337 579.968L121.258 543.992L91.9656 526.992Z" fill="#C2C8E3"/>
<path d="M150.723 526.992L144.774 566.371L121.337 579.968L121.258 543.992L150.723 526.992Z" fill="#A9B1D4"/>
<path d="M91.9656 526.992L121.258 543.992L150.739 526.992L121.447 509.977L91.9656 526.992Z" fill="#E7E8EC"/>
<path d="M145.747 526.976L144.476 527.713L142.969 528.591L138.871 530.943L138.746 531.022L138.51 531.163L136.925 532.073L136.752 532.167L135.653 532.794L131.603 535.131L131.289 535.319L130.018 536.056L129.672 536.26L129.594 536.307L128.966 536.668L128.495 536.934L128.118 537.138L127.804 537.326L127.349 537.577L127.271 537.624C127.271 537.624 127.271 537.624 127.255 537.624L126.957 537.797L126.47 538.079L124.712 539.098L124.162 539.428L124.068 539.475L121.321 541.074L121.274 541.106L120.552 540.682L120.505 540.651L120.285 540.541L120.222 540.51L118.009 539.224L117.522 538.942L115.466 537.765L115.057 537.53L113.55 536.636L113.252 536.464L112.86 536.244L112.138 535.821L110.552 534.895L110.379 534.786L104.807 531.555L102.75 530.363L100.851 529.265L98.7001 528.011L96.9576 526.991L98.4333 526.144L99.5792 525.47L102.735 523.651L104.194 522.804L104.618 522.553L107.507 520.891L107.758 520.75L109.422 519.762L109.657 519.636L110.568 519.119L111.557 518.554L113.692 517.315L115.937 516.029L116.031 515.966L117.663 515.025L117.758 514.978L117.883 514.9L119.155 514.179L119.955 513.724L120.097 513.645L120.238 513.567L120.74 513.269L121.431 512.877L121.619 512.987L124.414 514.602L125.01 514.947L125.293 515.12L126.297 515.7L126.533 515.841L127.506 516.406L127.71 516.531L128.887 517.221L129.327 517.472L129.767 517.739L129.829 517.77L130.332 518.068L132.467 519.291L132.796 519.479L134.602 520.53L136.077 521.393L136.752 521.785L137.411 522.161L137.506 522.224L138.259 522.663L139.138 523.165L139.437 523.337L143.581 525.737L144.79 526.442L145.747 526.976Z" fill="#0B122A"/>
<path d="M110.018 506.999C103.771 498.671 96.7535 490.563 93.0331 481.232C90.4429 474.74 89.5795 467.886 89.7836 461.111C89.8778 457.614 90.2702 454.133 90.8197 450.682C91.2906 447.797 91.3691 443.343 93.0645 440.912C99.7989 444.864 106.549 451.89 109.971 458.257C112.514 462.978 115.12 467.494 116.376 472.623C117.648 477.861 117.93 483.224 117.899 488.54C117.852 495.033 117.365 501.526 117.805 508.034C118.009 511.045 118.37 514.15 118.841 517.114C119.312 520.031 121.038 522.807 122.153 525.63C122.467 526.414 124.9 532.483 122.514 530.727C120.929 529.566 120.599 525.018 119.877 523.262C118.731 520.486 117.302 517.82 115.701 515.217C113.959 512.394 112.028 509.681 110.018 506.999Z" fill="url(#paint0_linear_91_3899)"/>
<path d="M124.57 521.301C127.946 517.6 132.435 514.996 137.192 513.444C145.496 510.731 152.529 513.412 159.671 517.756C166.029 521.614 168.399 531.73 167.976 538.614C167.646 543.931 165.715 549.106 162.56 553.403C160.409 556.336 155.59 562.907 153.69 556.336C152.466 552.102 152.309 547.648 151.932 543.256C151.555 538.865 150.896 534.396 148.793 530.522C146.077 525.519 142.027 523.543 136.611 523.355C132.592 523.214 128.385 523.12 124.806 524.939C123.472 525.613 122.294 526.617 121.399 527.825C120.74 528.719 120.316 530.616 119.437 530.93C119.704 527.511 122.31 523.779 124.57 521.301Z" fill="url(#paint1_linear_91_3899)"/>
<path d="M116.078 508.676C114.869 506.339 113.613 504.394 112.954 501.775C111.62 496.443 111.949 490.829 113.346 485.606C115.387 477.938 119.516 470.99 123.613 464.152C126.046 460.075 128.495 455.982 130.928 451.904C129.421 453.41 130.222 455.888 131.007 457.864C134.978 467.963 136.014 479.067 133.942 489.558C133.283 492.867 132.325 496.098 131.085 499.235C129.782 502.512 127.773 505.414 126.329 508.597C124.414 512.8 122.608 517.332 121.761 521.88C121.384 523.825 121.431 525.801 121.023 527.793C120.881 528.483 119.076 533.972 119.359 534.223C118.495 533.454 118.684 532.153 118.888 531.055C120.222 523.982 119.531 515.466 116.172 508.832C116.125 508.785 116.109 508.723 116.078 508.676Z" fill="#35C75A"/>
<path d="M122.2 529.458C122.09 529.082 121.965 528.706 121.823 528.345C120.866 525.914 119.359 523.797 118.291 521.46C116.094 516.661 114.241 511.831 111.4 507.283C106.675 499.74 100.129 492.996 91.7772 489.405C82.1073 485.249 71.0558 485.672 60.7108 483.461C63.144 484.276 65.2162 486.064 66.8801 488.009C68.9209 490.393 70.5378 493.121 72.7669 495.333C76.9897 499.52 82.9549 501.496 88.3865 504.099C96.5808 508.036 103.802 513.572 110.945 519.061C114.885 522.087 118.244 525.459 120.803 529.458H122.2Z" fill="#35C75A"/>
<path d="M142.749 528.233C138.228 523.199 129.06 520.674 123.644 525.724C123.032 526.289 122.498 526.932 122.043 527.637C121.933 527.81 121.085 529.833 121.29 529.833C121.447 529.833 121.619 529.833 121.776 529.833C121.98 528.296 125.12 527.245 126.391 527.026C128.134 526.728 129.986 527.042 131.54 527.904C134.24 529.394 134.303 532.907 134.052 535.667C133.77 538.709 132.686 541.611 131.87 544.559C130.646 548.95 129.971 553.561 130.614 558.062C131.242 562.578 133.283 566.985 136.768 569.934C134.837 567.377 134.743 563.77 135.747 560.728C136.752 557.686 138.714 555.051 140.677 552.51C142.639 549.97 144.648 547.382 145.779 544.387C147.804 538.992 146.595 532.515 142.749 528.233Z" fill="#35C75A"/>
<path d="M132.514 498.012C136.03 492.68 140.347 487.803 145.637 484.211C150.927 480.636 157.254 478.409 163.659 478.613C170.786 478.832 180.251 482.502 183.36 489.324C185.118 493.182 186.123 497.353 186.358 501.588C186.421 502.733 184.992 513.114 184.992 513.114C179.514 509.037 173.957 504.912 167.693 502.199C161.414 499.486 154.255 498.263 147.694 500.176C142.545 501.682 138.102 505.022 134.476 508.974C128.903 515.059 123.66 522.524 121.242 530.397C121.933 519.011 126.25 507.484 132.514 498.012Z" fill="url(#paint2_linear_91_3899)"/>
<path d="M92.8604 506.575C88.2609 504.976 83.2061 504.238 78.6066 505.838C73.0338 507.798 68.8895 513.021 66.5505 518.761C64.2272 524.516 63.4579 530.821 62.7358 537.031C67.3197 534.459 71.7465 531.542 75.9693 528.327C80.4118 524.94 84.8544 521.097 90.2231 520.031C97.0518 518.682 103.174 522.054 109.202 524.736C114.791 527.229 119.484 532.028 121.933 537.956C119.751 532.687 117.663 525.818 113.582 521.819C109.657 517.976 106.031 513.758 101.432 510.762C98.7472 509.037 95.8587 507.61 92.8604 506.575Z" fill="url(#paint3_linear_91_3899)"/>
<path d="M95.0424 533.706C93.1273 537.282 92.7505 541.532 93.2685 545.547C93.7866 549.577 95.1209 553.435 96.4552 557.277C98.7158 563.801 100.992 570.325 103.252 576.849C103.064 572.599 101.589 568.506 100.662 564.35C99.7361 560.194 99.3751 555.646 101.29 551.835C103.676 547.083 108.998 544.59 114.131 543.257C117.522 542.379 121.604 541.704 124.068 538.976C126.643 536.121 126.391 531.401 124.602 528.154C121.305 522.164 110.442 523.701 105.23 525.551C101.055 527.041 97.1774 529.723 95.0424 533.706Z" fill="url(#paint4_linear_91_3899)"/>
<defs>
<linearGradient id="paint0_linear_91_3899" x1="122.991" y1="527.575" x2="97.1292" y2="450.808" gradientUnits="userSpaceOnUse">
<stop stop-color="#3076A1"/>
<stop offset="1" stop-color="#48C9B6"/>
</linearGradient>
<linearGradient id="paint1_linear_91_3899" x1="167.217" y1="557.357" x2="161.894" y2="513.614" gradientUnits="userSpaceOnUse">
<stop stop-color="#3076A1"/>
<stop offset="1" stop-color="#48C9B6"/>
</linearGradient>
<linearGradient id="paint2_linear_91_3899" x1="185.279" y1="528.403" x2="180.393" y2="479.771" gradientUnits="userSpaceOnUse">
<stop stop-color="#3076A1"/>
<stop offset="1" stop-color="#48C9B6"/>
</linearGradient>
<linearGradient id="paint3_linear_91_3899" x1="120.951" y1="536.686" x2="118.756" y2="505.533" gradientUnits="userSpaceOnUse">
<stop stop-color="#3076A1"/>
<stop offset="1" stop-color="#48C9B6"/>
</linearGradient>
<linearGradient id="paint4_linear_91_3899" x1="125.427" y1="574.811" x2="115.627" y2="526.585" gradientUnits="userSpaceOnUse">
<stop stop-color="#3076A1"/>
<stop offset="1" stop-color="#48C9B6"/>
</linearGradient>
</defs>
</svg>
