<svg width="86" height="111" viewBox="0 0 86 111" fill="none" xmlns="http://www.w3.org/2000/svg">
<path d="M77.8277 63.6236C77.0238 65.4189 76.1489 67.1905 75.2267 68.9622C74.5647 70.2142 73.879 71.4898 73.146 72.7654C70.8997 76.6394 68.4878 80.2772 65.9105 83.6316C64.1134 85.9938 62.2691 88.2379 60.3302 90.3403C58.1548 92.7261 55.9085 94.8994 53.6386 96.8836C44.6533 104.726 35.077 109.522 26.4464 110.372C23.9873 110.608 21.5991 110.537 19.3292 110.112C16.9647 109.687 14.7184 108.86 12.6376 107.655C10.7696 106.592 9.13806 105.246 7.67205 103.663C-3.86687 91.0726 -2.21169 63.5527 12.6376 37.8517C29.3548 8.93816 56.4287 -6.67612 73.146 2.93812C88.0898 11.6075 89.674 37.5446 77.8277 63.6236Z" fill="#FF9501"/>
<path d="M77.8277 63.6251C77.0237 65.4204 76.1488 67.1921 75.2267 68.9637C74.5646 70.2157 73.8789 71.4913 73.1459 72.7669C70.8996 76.641 68.4878 80.2788 65.9104 83.6331C64.6336 80.9402 63.4277 78.4362 62.4109 76.3575C61.0631 73.6646 62.6474 71.7748 62.2927 68.7039C61.938 65.6094 62.7183 62.8456 63.9715 59.7983C64.539 58.4282 65.3666 56.9164 66.8562 56.3731C68.204 55.877 69.5991 56.3731 70.7577 56.9636C73.5006 58.381 76.007 60.9086 77.8277 63.6251Z" fill="#8F9AD2"/>
<path d="M75.2269 68.9878C74.5648 70.2398 73.8791 71.5154 73.1461 72.791C58.5096 98.0904 35.9284 113.209 19.3293 110.138C18.2653 106.382 17.154 102.72 16.019 98.5864C14.9077 94.5707 12.4722 88.4761 12.1648 85.5942C11.4082 78.9564 15.2387 73.854 23.8219 68.0429C29.6387 64.1217 41.2249 58.9484 52.551 55.4051C68.417 50.4444 70.6633 56.2318 75.2269 68.8697C75.2032 68.917 75.2269 68.9406 75.2269 68.9878Z" fill="#B4BCDF"/>
<path d="M60.3302 90.3623C58.1548 92.7482 55.9085 94.9214 53.6386 96.9057C53.0711 89.6773 52.2671 82.5434 51.345 75.5276C53.4967 74.0158 54.5607 73.2599 56.6652 71.748C58.2258 77.9843 59.4317 84.1497 60.3302 90.3623Z" fill="#1391EE"/>
<path d="M58.9588 71.2307C58.9824 71.3252 58.9824 71.4197 58.9824 71.5614C58.9588 72.1992 58.5568 73.026 58.344 73.6166C57.8711 74.9158 57.28 76.1914 56.5706 77.3961C56.1686 78.0575 55.7194 78.719 55.01 79.0261C54.2061 79.3568 53.2839 79.1205 52.5509 78.6953C51.6997 78.2229 50.1391 77.5142 50.3282 76.4512C50.4938 75.53 50.8248 74.5851 51.1322 73.6874C51.747 71.8685 52.5982 69.6008 54.277 68.4906C56.1686 67.2386 57.5164 69.1047 58.5095 70.522C58.7223 70.8055 58.8878 70.9709 58.9588 71.2307Z" fill="#3064C7"/>
<path d="M34.9825 61.9493C34.5806 74.7525 58.6279 74.9651 58.2732 62.9178C57.8003 46.146 56.7599 44.209 48.8623 41.6105C46.687 40.9019 44.417 40.3586 42.1234 40.3113C33.7766 40.146 37.016 44.398 37.3234 47.3507C38.2456 56.1382 35.1244 57.3429 34.9825 61.9493Z" fill="#E5A07D"/>
<path d="M54.3245 69.8389C54.7501 71.2089 56.5708 71.6814 57.753 72.4845C58.2732 72.8389 59.1954 73.5003 59.8811 73.3586C60.5668 73.2168 60.9924 72.2956 61.2289 71.7286C62.9314 67.5947 63.9008 63.0829 63.9481 58.6183C63.9718 57.201 63.7353 55.6183 62.624 54.6261C61.6309 53.7285 59.9047 53.5395 58.6752 54.0828C57.3511 54.6498 57.0437 57.2482 57.5166 58.4293C59.1954 62.7286 57.2801 67.642 54.3245 69.8389Z" fill="#B4BCDF"/>
<path d="M54.5135 69.9076C54.5135 69.9076 52.4326 73.2147 49.879 75.4825C49.2405 76.0494 48.744 76.7344 47.8928 76.4746C43.7548 75.1518 35.077 67.8525 33.3509 63.2462C32.7361 61.569 33.942 59.5139 34.8878 58.2146C35.0533 57.9784 36.3775 56.1831 36.6376 55.9941C36.8031 56.254 37.7016 59.5611 39.144 61.6871C42.5016 66.6005 48.6021 69.1045 54.5135 69.9076Z" fill="#B4BCDF"/>
<path d="M69.3864 21.7201C71.2071 24.602 72.2475 27.9563 72.2238 31.476C72.2002 33.0115 71.9637 34.5233 71.4435 35.9643C70.9706 37.3343 70.0958 38.6099 70.0958 40.0981C70.0721 41.8462 71.3253 43.7832 71.8928 45.4368C72.413 46.925 72.6967 48.5785 72.1056 50.0431C71.7746 50.8699 71.1598 51.5785 70.6869 52.3344C68.3933 55.9486 70.545 61.3109 66.549 63.9093C65.5559 64.5708 64.3499 64.6889 63.1677 64.7361C61.678 64.807 54.9864 62.9408 52.3854 61.7833C49.5243 60.5077 46.7342 57.2715 44.6534 54.9093C43.0219 53.0667 40.3263 50.7045 39.2859 48.5077C38.9785 47.8226 39.7352 47.7045 39.0495 47.3738C38.6238 47.1612 38.1273 44.5155 37.6544 44.4446C37.1105 44.3738 36.3539 43.7832 35.881 43.4525C34.9824 42.8619 34.5568 45.0352 34.2495 43.9958C32.9963 39.5785 31.3884 35.0902 31.5775 30.4367C31.743 26.1847 31.6485 22.5232 34.3913 18.909C36.4485 16.1925 39.4041 14.2082 42.5963 13.0035C47.4672 11.1609 53.0002 11.0428 57.9421 12.7436C62.6238 14.3263 66.7854 17.5626 69.3864 21.7201Z" fill="#F1BCA4"/>
<path d="M38.5767 27.792C41.556 30.1778 43.5422 31.0282 49.3116 31.6188C48.1294 35.5873 48.1767 39.3669 47.7274 43.4063C47.4673 45.8157 46.1432 48.6268 43.5658 45.8866C42.9511 45.2488 42.4782 44.4929 41.9107 43.8315C41.3195 43.17 40.5865 42.5795 39.7353 42.4141C38.7186 42.2251 37.7491 42.8393 37.3235 43.737C37.0634 44.2803 37.2289 44.3748 37.3708 44.8708C37.5363 45.3669 37.1579 45.9102 36.6378 45.9338C36.1176 45.9575 35.6683 45.5086 35.29 45.2015C33.824 43.9968 32.9491 41.9417 32.3343 40.1936C31.1993 37.0755 30.6555 33.8156 30.7028 30.5085C30.7264 28.3825 30.9865 26.3038 31.6959 24.2959C32.2397 22.7605 33.02 21.3904 33.7767 19.9258C34.5333 23.6817 36.4722 26.0912 38.5767 27.792Z" fill="#D7D9EC"/>
<path d="M38.4111 39.0323C34.7224 38.796 33.7766 43.3551 36.3067 46.8985C37.0397 47.9378 38.3638 48.8355 39.3097 49.6623C45.9303 55.2843 47.5855 49.2134 45.4811 47.2764C40.6101 42.8354 43.0456 39.3393 38.4111 39.0323Z" fill="#F1BCA4"/>
<path d="M40.6338 47.7498C40.2082 47.3718 35.9993 44.8915 38.8604 43.1907C39.6643 42.7183 40.5392 43.4269 40.6574 44.2537C40.7284 44.6789 40.5865 45.1277 40.6574 45.5766C40.7047 45.8364 40.7993 46.0726 40.9412 46.3088C41.3195 46.923 42.5964 47.49 42.3363 48.3876C42.1234 49.1671 40.8702 47.986 40.6338 47.7498Z" fill="#E5A07D"/>
<path d="M28.48 99.1054C27.6997 102.129 26.8012 106.334 26.4465 110.397C23.9874 110.633 21.5992 110.562 19.3293 110.137C16.9647 109.712 14.7184 108.885 12.6376 107.68C10.7697 106.617 9.13813 105.271 7.67212 103.688C7.71941 102.483 7.79035 101.279 7.86129 100.121C8.21597 94.57 9.04355 88.6408 10.4623 83.2549C11.6682 78.7903 12.7795 75.8612 16.3973 73.0029C19.8258 70.2863 24.082 70.995 27.6288 73.5226C29.9697 75.1998 31.081 77.9636 31.5776 80.6565C32.7835 86.9872 30.0879 92.8928 28.48 99.1054Z" fill="#DEE1EE"/>
<path d="M55.6721 57.6968C60.5903 61.122 64.5864 60.5787 68.9135 59.6811C69.008 62.374 66.809 64.8543 64.1371 65.3504C61.4652 65.8228 58.7696 64.9488 56.2632 63.8858C53.1657 62.563 50.1391 60.9094 47.7272 58.5472C45.3154 56.185 43.2583 55.3582 42.9745 51.9802C42.8326 50.2322 43.2346 41.1612 44.4169 39.8148C46.4504 37.4526 47.7272 39.9801 47.7036 41.988C47.5144 54.2243 52.2908 55.3582 55.6721 57.6968Z" fill="#D7D9EC"/>
</svg>
