<svg width="233" height="297" viewBox="0 0 233 297" fill="none" xmlns="http://www.w3.org/2000/svg">
<path d="M137.805 173.389L143.092 170.322L210.493 209.204L205.206 212.27L137.805 173.389Z" fill="#39313E"/>
<path d="M135.384 83.0005L140.688 79.9336L143.348 81.467L138.061 84.5339L135.384 83.0005Z" fill="#322A36"/>
<path d="M138.061 84.5337L143.348 81.4668L143.092 170.321L137.805 173.388L138.061 84.5337Z" fill="#322A36"/>
<path d="M208.123 124.95L213.41 121.883L213.154 213.804L207.85 216.871L208.123 124.95Z" fill="#322A36"/>
<path d="M205.462 123.415L210.749 120.348L213.41 121.881L208.123 124.948L205.462 123.415Z" fill="#322A36"/>
<path d="M208.123 124.952L207.85 216.873L135.128 174.925L135.383 83.0039L138.061 84.5374L137.805 173.392L205.206 212.273L205.462 123.419L208.123 124.952Z" fill="#231B26"/>
<path d="M7.01112 218.766L5.42501 217.846L5.40796 211.746L6.99407 212.666L7.01112 218.766Z" fill="#231B26"/>
<path d="M6.99407 212.662L5.40796 211.742L136.015 136.416L137.601 137.336L6.99407 212.662Z" fill="#39313E"/>
<path d="M137.601 137.338L137.618 143.438L7.01119 218.764L6.99414 212.664L137.601 137.338Z" fill="#322A36"/>
<path d="M6.84058 248.783L12.1276 245.699L79.5287 284.581L74.2417 287.647L6.84058 248.783Z" fill="#322A36"/>
<path d="M4.43579 158.379L9.72282 155.312L12.3834 156.846L7.09636 159.93L4.43579 158.379Z" fill="#322A36"/>
<path d="M7.0964 159.93L12.3834 156.846L12.1276 245.7L6.84058 248.784L7.0964 159.93Z" fill="#322A36"/>
<path d="M77.1579 200.329L82.445 197.262L82.1891 289.183L76.9021 292.25L77.1579 200.329Z" fill="#322A36"/>
<path d="M74.4973 198.793L79.7843 195.727L82.4449 197.26L77.1579 200.327L74.4973 198.793Z" fill="#322A36"/>
<path d="M77.158 200.331L76.9021 292.252L4.16284 250.304L4.43572 158.383L7.09629 159.933L6.84047 248.788L74.2416 287.652L74.4974 198.798L77.158 200.331Z" fill="#231B26"/>
<path d="M141.302 89.0165L139.05 87.6875L101.24 188.264L103.508 189.593L141.302 89.0165Z" fill="#816971"/>
<path d="M146.316 86.1225L144.047 84.8105L139.05 87.69L141.302 89.019L146.316 86.1225Z" fill="#957F87"/>
<path d="M141.302 89.0176L103.508 189.594L108.522 186.698L146.316 86.1211L141.302 89.0176Z" fill="#5D4D57"/>
<path d="M108.283 108.05L106.032 106.738L101.018 109.635L103.286 110.947L108.283 108.05Z" fill="#957F87"/>
<path d="M103.286 110.947L101.018 109.635L139.272 166.338L141.523 167.65L103.286 110.947Z" fill="#3D3239"/>
<path d="M108.283 108.049L103.286 110.945L141.523 167.649L146.537 164.769L108.283 108.049Z" fill="#5D4D57"/>
<path d="M0.666504 156.861L0.683562 163.404L82.2743 210.77L82.2573 204.228L0.666504 156.861Z" fill="#C2C8E3"/>
<path d="M82.2573 204.228L82.2744 210.771L219.993 130.572L219.976 124.029L82.2573 204.228Z" fill="#A9B1D4"/>
<path d="M0.71875 156.899L82.3095 204.265L220.028 124.083L138.454 76.7168L0.71875 156.899Z" fill="#E7E8EC"/>
<g opacity="0.3">
<path opacity="0.3" d="M128.613 122.734L146.401 112.783L158.868 123.125L128.613 122.734Z" fill="#48257C"/>
</g>
<path d="M171.369 132.293L171.113 133.298L104.429 171.362L104.685 170.339L171.369 132.293Z" fill="#CED3E8"/>
<path d="M104.685 170.339L104.429 171.361L78.3689 150.421L78.6418 147.934L104.685 170.339Z" fill="#8F9AD2"/>
<path d="M171.369 132.291L104.685 170.338L78.6418 147.933L145.31 109.869L171.369 132.291Z" fill="#E3E3E3"/>
<path d="M147.765 112.531L147.595 113.196L144.047 115.223L144.201 114.559L147.765 112.531Z" fill="#C2C8E3"/>
<path d="M144.201 114.559L144.047 115.224L142.154 113.605L142.325 112.924L144.201 114.559Z" fill="#8F9AD2"/>
<path d="M147.765 112.532L144.201 114.56L142.325 112.924L145.872 110.896L147.765 112.532Z" fill="#CED3E8"/>
<path d="M152.524 116.924L152.353 117.605L148.806 119.633L148.976 118.968L152.524 116.924Z" fill="#C2C8E3"/>
<path d="M148.976 118.966L148.806 119.631L145.344 116.649L145.514 115.984L148.976 118.966Z" fill="#8F9AD2"/>
<path d="M152.523 116.925L148.976 118.97L145.514 115.988L149.061 113.943L152.523 116.925Z" fill="#CED3E8"/>
<path d="M143.28 115.084L143.109 115.748L139.545 117.793L139.715 117.112L143.28 115.084Z" fill="#C2C8E3"/>
<path d="M139.715 117.111L139.545 117.792L137.652 116.157L137.822 115.492L139.715 117.111Z" fill="#8F9AD2"/>
<path d="M143.28 115.085L139.715 117.112L137.822 115.494L141.387 113.449L143.28 115.085Z" fill="#CED3E8"/>
<path d="M148.209 119.398L148.038 120.063L144.491 122.108L144.661 121.426L148.209 119.398Z" fill="#C2C8E3"/>
<path d="M144.661 121.425L144.491 122.107L141.029 119.125L141.199 118.443L144.661 121.425Z" fill="#8F9AD2"/>
<path d="M148.209 119.398L144.661 121.425L141.199 118.444L144.746 116.416L148.209 119.398Z" fill="#CED3E8"/>
<path d="M138.794 117.639L138.624 118.32L135.059 120.348L135.23 119.666L138.794 117.639Z" fill="#C2C8E3"/>
<path d="M135.23 119.667L135.059 120.349L133.166 118.73L133.337 118.049L135.23 119.667Z" fill="#8F9AD2"/>
<path d="M138.794 117.64L135.23 119.668L133.337 118.049L136.901 116.021L138.794 117.64Z" fill="#CED3E8"/>
<path d="M143.894 121.846L143.723 122.527L140.176 124.555L140.346 123.89L143.894 121.846Z" fill="#C2C8E3"/>
<path d="M140.346 123.89L140.176 124.554L136.714 121.573L136.884 120.908L140.346 123.89Z" fill="#8F9AD2"/>
<path d="M143.894 121.847L140.346 123.892L136.884 120.91L140.432 118.865L143.894 121.847Z" fill="#CED3E8"/>
<path d="M134.292 120.211L134.138 120.875L130.574 122.903L130.745 122.238L134.292 120.211Z" fill="#C2C8E3"/>
<path d="M130.745 122.239L130.574 122.904L128.681 121.285L128.851 120.604L130.745 122.239Z" fill="#8F9AD2"/>
<path d="M134.292 120.212L130.744 122.239L128.851 120.604L132.416 118.576L134.292 120.212Z" fill="#CED3E8"/>
<path d="M139.579 124.316L139.425 124.981L135.861 127.026L136.031 126.344L139.579 124.316Z" fill="#C2C8E3"/>
<path d="M136.031 126.345L135.861 127.027L132.399 124.045L132.569 123.363L136.031 126.345Z" fill="#8F9AD2"/>
<path d="M139.579 124.318L136.031 126.345L132.569 123.363L136.116 121.336L139.579 124.318Z" fill="#CED3E8"/>
<path d="M135.264 126.775L135.111 127.457L131.546 129.484L131.717 128.803L135.264 126.775Z" fill="#C2C8E3"/>
<path d="M131.717 128.803L131.546 129.484L128.084 126.502L128.255 125.838L131.717 128.803Z" fill="#8F9AD2"/>
<path d="M135.264 126.775L131.717 128.802L128.255 125.838L131.802 123.793L135.264 126.775Z" fill="#CED3E8"/>
<path d="M127.572 124.045L127.402 124.726L123.837 126.754L124.008 126.072L127.572 124.045Z" fill="#C2C8E3"/>
<path d="M124.008 126.072L123.837 126.753L121.944 125.118L122.115 124.453L124.008 126.072Z" fill="#8F9AD2"/>
<path d="M127.572 124.044L124.008 126.072L122.115 124.453L125.679 122.426L127.572 124.044Z" fill="#CED3E8"/>
<path d="M130.966 129.246L130.796 129.911L127.231 131.955L127.402 131.274L130.966 129.246Z" fill="#C2C8E3"/>
<path d="M127.402 131.273L127.231 131.954L123.769 128.973L123.94 128.291L127.402 131.273Z" fill="#8F9AD2"/>
<path d="M130.966 129.245L127.402 131.273L123.939 128.291L127.487 126.264L130.966 129.245Z" fill="#CED3E8"/>
<path d="M123.087 126.604L122.916 127.285L119.352 129.313L119.522 128.648L123.087 126.604Z" fill="#C2C8E3"/>
<path d="M119.522 128.647L119.352 129.312L117.459 127.693L117.629 127.012L119.522 128.647Z" fill="#8F9AD2"/>
<path d="M123.087 126.605L119.522 128.65L117.629 127.014L121.194 124.986L123.087 126.605Z" fill="#CED3E8"/>
<path d="M126.651 131.699L126.481 132.381L122.916 134.408L123.087 133.727L126.651 131.699Z" fill="#C2C8E3"/>
<path d="M123.087 133.724L122.916 134.406L119.454 131.424L119.625 130.76L123.087 133.724Z" fill="#8F9AD2"/>
<path d="M126.651 131.698L123.087 133.726L119.625 130.761L123.189 128.717L126.651 131.698Z" fill="#CED3E8"/>
<path d="M118.584 129.176L118.414 129.84L114.866 131.885L115.037 131.203L118.584 129.176Z" fill="#C2C8E3"/>
<path d="M115.037 131.201L114.866 131.882L112.973 130.247L113.144 129.582L115.037 131.201Z" fill="#8F9AD2"/>
<path d="M118.584 129.177L115.037 131.204L113.144 129.586L116.708 127.541L118.584 129.177Z" fill="#CED3E8"/>
<path d="M122.336 134.172L122.166 134.836L118.601 136.881L118.772 136.199L122.336 134.172Z" fill="#C2C8E3"/>
<path d="M118.772 136.198L118.601 136.88L115.139 133.898L115.31 133.217L118.772 136.198Z" fill="#8F9AD2"/>
<path d="M122.336 134.171L118.772 136.199L115.31 133.217L118.874 131.189L122.336 134.171Z" fill="#CED3E8"/>
<path d="M114.099 131.73L113.928 132.412L110.381 134.44L110.534 133.758L114.099 131.73Z" fill="#C2C8E3"/>
<path d="M110.534 133.759L110.381 134.441L108.488 132.805L108.658 132.141L110.534 133.759Z" fill="#8F9AD2"/>
<path d="M114.099 131.732L110.534 133.759L108.658 132.141L112.206 130.113L114.099 131.732Z" fill="#CED3E8"/>
<path d="M118.021 136.617L117.851 137.299L114.286 139.326L114.457 138.645L118.021 136.617Z" fill="#C2C8E3"/>
<path d="M114.457 138.644L114.286 139.326L110.824 136.344L110.995 135.68L114.457 138.644Z" fill="#8F9AD2"/>
<path d="M118.021 136.618L114.457 138.646L110.995 135.681L114.559 133.637L118.021 136.618Z" fill="#CED3E8"/>
<path d="M107.362 135.58L107.209 136.245L103.644 138.272L103.815 137.608L107.362 135.58Z" fill="#C2C8E3"/>
<path d="M103.815 137.606L103.644 138.271L101.751 136.652L101.922 135.971L103.815 137.606Z" fill="#8F9AD2"/>
<path d="M107.362 135.581L103.815 137.609L101.922 135.973L105.486 133.945L107.362 135.581Z" fill="#CED3E8"/>
<path d="M113.707 139.09L113.536 139.754L109.972 141.799L110.142 141.117L113.707 139.09Z" fill="#C2C8E3"/>
<path d="M110.142 141.118L109.972 141.8L106.51 138.818L106.68 138.137L110.142 141.118Z" fill="#8F9AD2"/>
<path d="M113.707 139.091L110.142 141.119L106.68 138.137L110.244 136.109L113.707 139.091Z" fill="#CED3E8"/>
<path d="M102.877 138.135L102.706 138.799L99.1587 140.844L99.3292 140.162L102.877 138.135Z" fill="#C2C8E3"/>
<path d="M99.3293 140.16L99.1587 140.841L97.2656 139.206L97.4362 138.541L99.3293 140.16Z" fill="#8F9AD2"/>
<path d="M102.877 138.136L99.3291 140.163L97.436 138.545L100.983 136.5L102.877 138.136Z" fill="#CED3E8"/>
<path d="M109.392 141.547L109.221 142.228L105.657 144.256L105.827 143.574L109.392 141.547Z" fill="#C2C8E3"/>
<path d="M105.827 143.576L105.657 144.257L102.195 141.276L102.365 140.611L105.827 143.576Z" fill="#8F9AD2"/>
<path d="M109.392 141.548L105.827 143.576L102.365 140.611L105.929 138.566L109.392 141.548Z" fill="#CED3E8"/>
<path d="M98.3913 140.691L98.2207 141.373L94.6562 143.401L94.8268 142.719L98.3913 140.691Z" fill="#C2C8E3"/>
<path d="M94.8269 142.72L94.6563 143.402L92.7803 141.783L92.9508 141.102L94.8269 142.72Z" fill="#8F9AD2"/>
<path d="M98.3914 140.693L94.827 142.72L92.9509 141.102L96.4983 139.074L98.3914 140.693Z" fill="#CED3E8"/>
<path d="M105.077 144.016L104.906 144.68L101.342 146.708L101.512 146.043L105.077 144.016Z" fill="#C2C8E3"/>
<path d="M101.512 146.042L101.342 146.707L97.8796 143.742L98.0502 143.061L101.512 146.042Z" fill="#8F9AD2"/>
<path d="M105.077 144.015L101.512 146.042L98.05 143.061L101.615 141.033L105.077 144.015Z" fill="#CED3E8"/>
<path d="M93.9059 143.266L93.7354 143.93L90.1709 145.958L90.3414 145.293L93.9059 143.266Z" fill="#C2C8E3"/>
<path d="M90.3415 145.294L90.1709 145.958L88.2778 144.34L88.4484 143.658L90.3415 145.294Z" fill="#8F9AD2"/>
<path d="M93.9058 143.267L90.3413 145.294L88.4482 143.658L92.0127 141.631L93.9058 143.267Z" fill="#CED3E8"/>
<path d="M100.762 146.471L100.591 147.152L97.0269 149.18L97.1974 148.498L100.762 146.471Z" fill="#C2C8E3"/>
<path d="M97.1974 148.496L97.0268 149.177L93.5647 146.196L93.7352 145.531L97.1974 148.496Z" fill="#8F9AD2"/>
<path d="M100.762 146.47L97.1975 148.498L93.7354 145.533L97.2998 143.488L100.762 146.47Z" fill="#CED3E8"/>
<path d="M96.4469 148.939L96.2764 149.604L92.7119 151.631L92.8825 150.967L96.4469 148.939Z" fill="#C2C8E3"/>
<path d="M92.8825 150.966L92.7119 151.631L89.2498 148.666L89.4203 147.984L92.8825 150.966Z" fill="#8F9AD2"/>
<path d="M96.4468 148.939L92.8823 150.966L89.4202 147.985L92.9846 145.957L96.4468 148.939Z" fill="#CED3E8"/>
<path d="M87.152 147.117L86.9815 147.782L83.417 149.809L83.5875 149.145L87.152 147.117Z" fill="#C2C8E3"/>
<path d="M83.5876 149.145L83.4171 149.81L81.541 148.191L81.7116 147.51L83.5876 149.145Z" fill="#8F9AD2"/>
<path d="M87.152 147.118L83.5875 149.146L81.7114 147.51L85.2589 145.482L87.152 147.118Z" fill="#CED3E8"/>
<path d="M92.1323 151.391L91.9617 152.072L88.3972 154.1L88.5678 153.418L92.1323 151.391Z" fill="#C2C8E3"/>
<path d="M88.5678 153.421L88.3972 154.103L84.9351 151.121L85.1056 150.439L88.5678 153.421Z" fill="#8F9AD2"/>
<path d="M92.1321 151.394L88.5676 153.421L85.1055 150.44L88.67 148.412L92.1321 151.394Z" fill="#CED3E8"/>
<path d="M153.104 122.514L152.933 123.195L150.767 124.422L150.938 123.74L153.104 122.514Z" fill="#C2C8E3"/>
<path d="M150.938 123.74L150.767 124.422L147.305 121.44L147.475 120.775L150.938 123.74Z" fill="#8F9AD2"/>
<path d="M160.795 124.049L160.625 124.713L157.06 126.741L157.231 126.076L160.795 124.049Z" fill="#C2C8E3"/>
<path d="M160.795 124.049L157.231 126.076L153.103 122.515L150.937 123.742L147.475 120.777L153.189 117.506L154.417 118.545L156.668 120.488L160.795 124.049Z" fill="#CED3E8"/>
<path d="M157.231 126.075L157.06 126.739L152.933 123.195L153.104 122.514L157.231 126.075Z" fill="#8F9AD2"/>
<path d="M146.623 126.214L146.469 126.879L143.007 123.914L143.161 123.232L146.623 126.214Z" fill="#8F9AD2"/>
<path d="M150.187 124.184L150.017 124.848L146.469 126.876L146.623 126.211L150.187 124.184Z" fill="#C2C8E3"/>
<path d="M150.187 124.187L146.623 126.214L143.16 123.233L146.725 121.205L150.187 124.187Z" fill="#CED3E8"/>
<path d="M156.48 126.502L156.31 127.183L152.745 129.211L152.916 128.53L156.48 126.502Z" fill="#C2C8E3"/>
<path d="M156.48 126.501L152.916 128.529L149.454 125.547L153.018 123.52L156.48 126.501Z" fill="#CED3E8"/>
<path d="M152.916 128.529L152.745 129.21L149.283 126.228L149.454 125.547L152.916 128.529Z" fill="#8F9AD2"/>
<path d="M145.872 126.637L145.702 127.318L142.154 129.346L142.308 128.664L145.872 126.637Z" fill="#C2C8E3"/>
<path d="M142.308 128.664L142.154 129.345L138.692 126.364L138.846 125.699L142.308 128.664Z" fill="#8F9AD2"/>
<path d="M145.872 126.636L142.308 128.664L138.846 125.699L142.41 123.654L145.872 126.636Z" fill="#CED3E8"/>
<path d="M141.557 129.109L141.387 129.774L137.839 131.801L138.01 131.137L141.557 129.109Z" fill="#C2C8E3"/>
<path d="M138.01 131.136L137.839 131.8L134.377 128.836L134.531 128.154L138.01 131.136Z" fill="#8F9AD2"/>
<path d="M141.557 129.109L138.01 131.136L134.531 128.154L138.095 126.127L141.557 129.109Z" fill="#CED3E8"/>
<path d="M137.242 131.561L137.072 132.242L133.524 134.27L133.695 133.588L137.242 131.561Z" fill="#C2C8E3"/>
<path d="M133.695 133.586L133.524 134.267L130.062 131.286L130.233 130.621L133.695 133.586Z" fill="#8F9AD2"/>
<path d="M137.242 131.562L133.695 133.589L130.233 130.625L133.78 128.58L137.242 131.562Z" fill="#CED3E8"/>
<path d="M132.927 134.033L132.757 134.698L129.209 136.725L129.38 136.061L132.927 134.033Z" fill="#C2C8E3"/>
<path d="M129.38 136.06L129.209 136.724L125.747 133.76L125.918 133.078L129.38 136.06Z" fill="#8F9AD2"/>
<path d="M132.927 134.032L129.38 136.06L125.918 133.078L129.465 131.051L132.927 134.032Z" fill="#CED3E8"/>
<path d="M152.165 128.971L151.995 129.635L148.43 131.663L148.601 130.998L152.165 128.971Z" fill="#C2C8E3"/>
<path d="M148.601 130.999L148.43 131.664L144.968 128.699L145.139 128.018L148.601 130.999Z" fill="#8F9AD2"/>
<path d="M152.165 128.972L148.601 130.999L145.139 128.018L148.703 125.99L152.165 128.972Z" fill="#CED3E8"/>
<path d="M147.851 131.428L147.68 132.109L144.115 134.137L144.286 133.455L147.851 131.428Z" fill="#C2C8E3"/>
<path d="M144.286 133.454L144.115 134.136L140.653 131.154L140.824 130.473L144.286 133.454Z" fill="#8F9AD2"/>
<path d="M147.85 131.427L144.286 133.455L140.824 130.473L144.388 128.445L147.85 131.427Z" fill="#CED3E8"/>
<path d="M143.536 133.898L143.365 134.563L139.801 136.59L139.971 135.926L143.536 133.898Z" fill="#C2C8E3"/>
<path d="M139.971 135.925L139.801 136.59L136.339 133.625L136.509 132.943L139.971 135.925Z" fill="#8F9AD2"/>
<path d="M143.536 133.898L139.971 135.925L136.509 132.944L140.074 130.916L143.536 133.898Z" fill="#CED3E8"/>
<path d="M139.221 136.346L139.05 137.027L135.486 139.055L135.656 138.373L139.221 136.346Z" fill="#C2C8E3"/>
<path d="M135.656 138.372L135.486 139.054L132.024 136.072L132.194 135.391L135.656 138.372Z" fill="#8F9AD2"/>
<path d="M139.221 136.345L135.656 138.373L132.194 135.391L135.759 133.363L139.221 136.345Z" fill="#CED3E8"/>
<path d="M128.613 136.486L128.459 137.168L124.895 139.195L125.065 138.514L128.613 136.486Z" fill="#C2C8E3"/>
<path d="M125.065 138.513L124.895 139.194L121.433 136.213L121.603 135.531L125.065 138.513Z" fill="#8F9AD2"/>
<path d="M128.613 136.486L125.065 138.513L121.603 135.531L125.15 133.504L128.613 136.486Z" fill="#CED3E8"/>
<path d="M134.906 138.82L134.735 139.485L131.188 141.512L131.341 140.848L134.906 138.82Z" fill="#C2C8E3"/>
<path d="M131.341 140.847L131.188 141.511L127.709 138.53L127.879 137.865L131.341 140.847Z" fill="#8F9AD2"/>
<path d="M134.906 138.822L131.341 140.849L127.879 137.867L131.444 135.84L134.906 138.822Z" fill="#CED3E8"/>
<path d="M124.298 138.957L124.144 139.622L120.58 141.649L120.75 140.985L124.298 138.957Z" fill="#C2C8E3"/>
<path d="M120.75 140.984L120.58 141.648L117.118 138.683L117.288 138.002L120.75 140.984Z" fill="#8F9AD2"/>
<path d="M124.298 138.958L120.75 140.986L117.288 138.004L120.836 135.977L124.298 138.958Z" fill="#CED3E8"/>
<path d="M130.591 141.271L130.42 141.953L126.873 143.981L127.027 143.299L130.591 141.271Z" fill="#C2C8E3"/>
<path d="M127.027 143.3L126.873 143.982L123.411 141L123.564 140.318L127.027 143.3Z" fill="#8F9AD2"/>
<path d="M130.591 141.273L127.026 143.3L123.564 140.319L127.129 138.291L130.591 141.273Z" fill="#CED3E8"/>
<path d="M119.983 141.41L119.829 142.092L116.265 144.119L116.435 143.438L119.983 141.41Z" fill="#C2C8E3"/>
<path d="M116.435 143.439L116.265 144.12L112.803 141.139L112.973 140.457L116.435 143.439Z" fill="#8F9AD2"/>
<path d="M119.983 141.411L116.435 143.439L112.973 140.457L116.521 138.43L119.983 141.411Z" fill="#CED3E8"/>
<path d="M126.276 143.742L126.106 144.407L122.558 146.434L122.729 145.77L126.276 143.742Z" fill="#C2C8E3"/>
<path d="M122.729 145.771L122.558 146.435L119.096 143.454L119.249 142.789L122.729 145.771Z" fill="#8F9AD2"/>
<path d="M126.276 143.743L122.729 145.771L119.25 142.789L122.814 140.762L126.276 143.743Z" fill="#CED3E8"/>
<path d="M115.685 143.879L115.514 144.543L111.95 146.571L112.12 145.906L115.685 143.879Z" fill="#C2C8E3"/>
<path d="M112.121 145.907L111.95 146.572L108.488 143.607L108.658 142.926L112.121 145.907Z" fill="#8F9AD2"/>
<path d="M115.685 143.88L112.12 145.908L108.658 142.926L112.206 140.898L115.685 143.88Z" fill="#CED3E8"/>
<path d="M121.961 146.195L121.791 146.877L118.243 148.904L118.414 148.223L121.961 146.195Z" fill="#C2C8E3"/>
<path d="M118.414 148.222L118.243 148.903L114.781 145.922L114.952 145.24L118.414 148.222Z" fill="#8F9AD2"/>
<path d="M121.961 146.198L118.414 148.226L114.952 145.244L118.499 143.217L121.961 146.198Z" fill="#CED3E8"/>
<path d="M111.37 146.334L111.199 147.016L107.635 149.043L107.806 148.362L111.37 146.334Z" fill="#C2C8E3"/>
<path d="M107.806 148.361L107.635 149.042L104.173 146.06L104.343 145.379L107.806 148.361Z" fill="#8F9AD2"/>
<path d="M111.37 146.333L107.806 148.361L104.344 145.379L107.908 143.352L111.37 146.333Z" fill="#CED3E8"/>
<path d="M117.646 148.67L117.476 149.334L113.928 151.362L114.099 150.697L117.646 148.67Z" fill="#C2C8E3"/>
<path d="M114.099 150.697L113.928 151.361L110.466 148.379L110.637 147.715L114.099 150.697Z" fill="#8F9AD2"/>
<path d="M117.646 148.669L114.099 150.697L110.636 147.715L114.184 145.688L117.646 148.669Z" fill="#CED3E8"/>
<path d="M107.055 148.803L106.885 149.467L103.32 151.495L103.491 150.83L107.055 148.803Z" fill="#C2C8E3"/>
<path d="M103.491 150.829L103.32 151.494L99.8579 148.512L100.028 147.848L103.491 150.829Z" fill="#8F9AD2"/>
<path d="M107.055 148.804L103.49 150.831L100.028 147.85L103.593 145.822L107.055 148.804Z" fill="#CED3E8"/>
<path d="M113.331 151.121L113.178 151.803L109.614 153.83L109.784 153.149L113.331 151.121Z" fill="#C2C8E3"/>
<path d="M109.784 153.148L109.614 153.829L106.151 150.848L106.322 150.166L109.784 153.148Z" fill="#8F9AD2"/>
<path d="M113.331 151.12L109.784 153.148L106.322 150.166L109.869 148.139L113.331 151.12Z" fill="#CED3E8"/>
<path d="M102.74 151.26L102.57 151.941L92.5415 157.666L92.7121 156.985L102.74 151.26Z" fill="#C2C8E3"/>
<path d="M92.7121 156.984L92.5415 157.665L89.0793 154.683L89.2499 154.002L92.7121 156.984Z" fill="#8F9AD2"/>
<path d="M102.74 151.259L92.7119 156.984L89.2498 154.002L99.2781 148.277L102.74 151.259Z" fill="#CED3E8"/>
<path d="M109.017 153.59L108.863 154.254L105.299 156.282L105.469 155.617L109.017 153.59Z" fill="#C2C8E3"/>
<path d="M105.469 155.616L105.299 156.281L101.836 153.299L102.007 152.635L105.469 155.616Z" fill="#8F9AD2"/>
<path d="M109.016 153.589L105.469 155.617L102.007 152.635L105.554 150.607L109.016 153.589Z" fill="#CED3E8"/>
<path d="M164.923 127.594L164.752 128.275L159.039 131.53L159.209 130.865L164.923 127.594Z" fill="#C2C8E3"/>
<path d="M159.209 130.863L159.039 131.527L155.577 128.545L155.747 127.881L159.209 130.863Z" fill="#8F9AD2"/>
<path d="M164.923 127.593L159.209 130.864L155.747 127.883L161.46 124.611L164.923 127.593Z" fill="#CED3E8"/>
<path d="M158.459 131.291L158.288 131.973L154.724 134L154.894 133.319L158.459 131.291Z" fill="#C2C8E3"/>
<path d="M154.894 133.318L154.724 133.999L151.261 131.017L151.432 130.336L154.894 133.318Z" fill="#8F9AD2"/>
<path d="M158.459 131.29L154.894 133.318L151.432 130.336L154.997 128.309L158.459 131.29Z" fill="#CED3E8"/>
<path d="M154.144 133.76L153.973 134.424L150.409 136.452L150.579 135.787L154.144 133.76Z" fill="#C2C8E3"/>
<path d="M150.579 135.788L150.409 136.453L146.947 133.471L147.117 132.807L150.579 135.788Z" fill="#8F9AD2"/>
<path d="M154.144 133.761L150.58 135.789L147.117 132.807L150.682 130.779L154.144 133.761Z" fill="#CED3E8"/>
<path d="M149.829 136.209L149.658 136.891L146.094 138.918L146.265 138.237L149.829 136.209Z" fill="#C2C8E3"/>
<path d="M146.265 138.236L146.094 138.917L142.632 135.935L142.802 135.254L146.265 138.236Z" fill="#8F9AD2"/>
<path d="M149.829 136.208L146.264 138.236L142.802 135.254L146.367 133.227L149.829 136.208Z" fill="#CED3E8"/>
<path d="M145.514 138.682L145.344 139.346L141.779 141.374L141.95 140.709L145.514 138.682Z" fill="#C2C8E3"/>
<path d="M141.95 140.708L141.779 141.373L138.317 138.391L138.487 137.727L141.95 140.708Z" fill="#8F9AD2"/>
<path d="M145.514 138.683L141.95 140.71L138.488 137.729L142.052 135.701L145.514 138.683Z" fill="#CED3E8"/>
<path d="M141.199 141.139L141.029 141.82L137.464 143.848L137.635 143.166L141.199 141.139Z" fill="#C2C8E3"/>
<path d="M137.635 143.165L137.464 143.847L134.002 140.865L134.172 140.184L137.635 143.165Z" fill="#8F9AD2"/>
<path d="M141.199 141.138L137.635 143.165L134.173 140.184L137.737 138.156L141.199 141.138Z" fill="#CED3E8"/>
<path d="M136.884 143.607L136.714 144.272L133.149 146.299L133.32 145.635L136.884 143.607Z" fill="#C2C8E3"/>
<path d="M133.32 145.634L133.149 146.299L129.687 143.317L129.858 142.652L133.32 145.634Z" fill="#8F9AD2"/>
<path d="M136.884 143.607L133.32 145.634L129.858 142.653L133.422 140.625L136.884 143.607Z" fill="#CED3E8"/>
<path d="M132.569 146.061L132.399 146.742L128.834 148.77L129.005 148.088L132.569 146.061Z" fill="#C2C8E3"/>
<path d="M129.005 148.091L128.834 148.773L125.372 145.791L125.543 145.109L129.005 148.091Z" fill="#8F9AD2"/>
<path d="M132.569 146.064L129.005 148.091L125.543 145.11L129.107 143.082L132.569 146.064Z" fill="#CED3E8"/>
<path d="M128.254 148.516L128.084 149.197L124.519 151.225L124.69 150.56L128.254 148.516Z" fill="#C2C8E3"/>
<path d="M124.69 150.56L124.519 151.224L121.057 148.243L121.228 147.578L124.69 150.56Z" fill="#8F9AD2"/>
<path d="M128.254 148.515L124.69 150.56L121.228 147.578L124.792 145.551L128.254 148.515Z" fill="#CED3E8"/>
<path d="M123.939 150.984L123.769 151.666L120.221 153.693L120.375 153.012L123.939 150.984Z" fill="#C2C8E3"/>
<path d="M120.375 153.011L120.222 153.692L116.742 150.711L116.913 150.029L120.375 153.011Z" fill="#8F9AD2"/>
<path d="M123.939 150.984L120.375 153.011L116.913 150.03L120.477 148.002L123.939 150.984Z" fill="#CED3E8"/>
<path d="M119.625 153.439L119.454 154.121L115.907 156.149L116.06 155.484L119.625 153.439Z" fill="#C2C8E3"/>
<path d="M116.06 155.482L115.907 156.146L112.427 153.164L112.598 152.5L116.06 155.482Z" fill="#8F9AD2"/>
<path d="M119.625 153.439L116.06 155.484L112.598 152.502L116.162 150.475L119.625 153.439Z" fill="#CED3E8"/>
<path d="M115.31 155.91L115.139 156.592L111.592 158.619L111.745 157.938L115.31 155.91Z" fill="#C2C8E3"/>
<path d="M111.745 157.937L111.592 158.618L108.13 155.637L108.283 154.955L111.745 157.937Z" fill="#8F9AD2"/>
<path d="M115.31 155.909L111.745 157.937L108.283 154.955L111.848 152.928L115.31 155.909Z" fill="#CED3E8"/>
<path d="M169.05 131.152L168.879 131.834L161.017 136.315L161.187 135.65L169.05 131.152Z" fill="#C2C8E3"/>
<path d="M161.187 135.652L161.017 136.316L157.555 133.334L157.725 132.67L161.187 135.652Z" fill="#8F9AD2"/>
<path d="M169.05 131.154L161.187 135.652L157.725 132.67L165.588 128.172L169.05 131.154Z" fill="#CED3E8"/>
<path d="M160.42 136.076L160.267 136.758L156.702 138.785L156.873 138.104L160.42 136.076Z" fill="#C2C8E3"/>
<path d="M156.873 138.103L156.702 138.784L153.24 135.803L153.411 135.121L156.873 138.103Z" fill="#8F9AD2"/>
<path d="M160.42 136.077L156.873 138.105L153.41 135.123L156.958 133.096L160.42 136.077Z" fill="#CED3E8"/>
<path d="M156.122 138.529L155.952 139.211L152.387 141.238L152.558 140.574L156.122 138.529Z" fill="#C2C8E3"/>
<path d="M152.558 140.573L152.387 141.238L148.925 138.256L149.096 137.592L152.558 140.573Z" fill="#8F9AD2"/>
<path d="M156.122 138.529L152.558 140.574L149.095 137.592L152.643 135.564L156.122 138.529Z" fill="#CED3E8"/>
<path d="M151.807 141.002L151.637 141.683L122.183 158.483L122.353 157.802L151.807 141.002Z" fill="#C2C8E3"/>
<path d="M122.353 157.802L122.183 158.484L118.721 155.502L118.891 154.82L122.353 157.802Z" fill="#8F9AD2"/>
<path d="M151.807 141.001L122.353 157.801L118.891 154.819L148.328 138.02L151.807 141.001Z" fill="#CED3E8"/>
<path d="M121.603 158.227L121.432 158.908L117.868 160.936L118.038 160.271L121.603 158.227Z" fill="#C2C8E3"/>
<path d="M118.038 160.269L117.868 160.933L114.406 157.952L114.576 157.287L118.038 160.269Z" fill="#8F9AD2"/>
<path d="M121.603 158.226L118.039 160.27L114.576 157.289L118.141 155.244L121.603 158.226Z" fill="#CED3E8"/>
<path d="M104.702 156.045L104.548 156.726L96.6687 161.208L96.8392 160.543L104.702 156.045Z" fill="#C2C8E3"/>
<path d="M96.8393 160.544L96.6687 161.209L93.2065 158.227L93.3771 157.562L96.8393 160.544Z" fill="#8F9AD2"/>
<path d="M104.701 156.046L96.8391 160.544L93.377 157.563L101.239 153.064L104.701 156.046Z" fill="#CED3E8"/>
<path d="M110.995 158.361L110.825 159.043L107.277 161.07L107.448 160.406L110.995 158.361Z" fill="#C2C8E3"/>
<path d="M107.448 160.406L107.277 161.07L103.815 158.088L103.968 157.424L107.448 160.406Z" fill="#8F9AD2"/>
<path d="M110.995 158.361L107.448 160.406L103.969 157.424L107.533 155.396L110.995 158.361Z" fill="#CED3E8"/>
<path d="M117.288 160.695L117.118 161.36L113.553 163.404L113.724 162.723L117.288 160.695Z" fill="#C2C8E3"/>
<path d="M113.724 162.722L113.553 163.403L110.091 160.422L110.262 159.74L113.724 162.722Z" fill="#8F9AD2"/>
<path d="M117.288 160.697L113.724 162.724L110.262 159.742L113.826 157.715L117.288 160.697Z" fill="#CED3E8"/>
<path d="M106.68 160.832L106.51 161.497L100.796 164.768L100.967 164.086L106.68 160.832Z" fill="#C2C8E3"/>
<path d="M100.967 164.089L100.796 164.771L97.334 161.789L97.5045 161.107L100.967 164.089Z" fill="#8F9AD2"/>
<path d="M106.68 160.835L100.967 164.09L97.5044 161.108L103.218 157.854L106.68 160.835Z" fill="#CED3E8"/>
<path d="M112.973 163.148L112.803 163.83L104.923 168.328L105.094 167.647L112.973 163.148Z" fill="#C2C8E3"/>
<path d="M105.094 167.648L104.923 168.329L101.461 165.348L101.632 164.666L105.094 167.648Z" fill="#8F9AD2"/>
<path d="M112.973 163.15L105.094 167.648L101.632 164.666L109.511 160.168L112.973 163.15Z" fill="#CED3E8"/>
<path d="M75.3671 128.952L97.6238 116.02L93.7694 108.318L71.4956 121.233L75.3671 128.952Z" fill="#322A36"/>
<path d="M84.6451 134.304L106.902 121.371L97.6239 116.021L75.3672 128.954L84.6451 134.304Z" fill="#39313E"/>
<path d="M84.6279 136.878L106.902 123.946V121.373L84.645 134.305L84.6279 136.878Z" fill="#231B26"/>
<path d="M71.4956 121.234L93.7693 108.319L93.8717 74.9414L71.5979 87.8734L71.4956 121.234Z" fill="#231B26"/>
<path d="M71.598 87.8754L93.8717 74.9433L91.6204 73.6484L69.3638 86.5805L71.598 87.8754Z" fill="#39313E"/>
<path d="M69.3638 86.5801L69.2615 120.861L74.2927 130.914L84.628 136.877L84.645 134.304L75.3671 128.954L71.4957 121.236L71.598 87.875L69.3638 86.5801Z" fill="#1B151E"/>
<path d="M126.276 0.570287L129.721 2.58079C129.005 2.15483 127.999 2.22299 126.89 2.8534L123.445 0.859934C124.554 0.212481 125.56 0.161369 126.276 0.570287Z" fill="#CED3E8"/>
<path d="M126.908 2.85657L123.463 0.863103C124.572 0.232688 125.561 0.164529 126.294 0.590485L129.739 2.60101C129.006 2.15802 128 2.22616 126.908 2.85657Z" fill="#CED3E8"/>
<path d="M29.2335 137.457L25.7884 135.446C25.0721 135.037 24.6287 134.151 24.6287 132.891L28.0738 134.901C28.0738 136.162 28.5172 137.048 29.2335 137.457Z" fill="#CED3E8"/>
<path d="M29.2335 137.457L25.7884 135.446C25.0721 135.037 24.6287 134.151 24.6287 132.891L28.0738 134.901C28.0738 136.162 28.5172 137.048 29.2335 137.457Z" fill="#CED3E8"/>
<path d="M28.0738 134.916L24.6117 132.905L24.4241 62.5371L27.8692 64.5476L28.0738 134.916Z" fill="#CED3E8"/>
<path d="M31.8259 57.699L28.3809 55.6884L123.445 0.859375L126.907 2.85285L31.8259 57.699Z" fill="#CED3E8"/>
<path d="M27.8692 64.5513L24.4241 62.5408C24.4241 60.0191 26.1807 56.9522 28.3808 55.6914L31.8259 57.7019C29.6258 58.9628 27.8521 62.0297 27.8692 64.5513Z" fill="#CED3E8"/>
<path d="M27.8692 64.5513L24.4241 62.5408C24.4241 60.0191 26.1807 56.9522 28.3808 55.6914L31.8259 57.7019C29.6258 58.9628 27.8521 62.0297 27.8692 64.5513Z" fill="#CED3E8"/>
<path d="M126.907 2.8521C129.107 1.59127 130.881 2.59653 130.898 5.11819L131.103 75.4862C131.103 78.0078 129.346 81.0747 127.146 82.3355L32.0817 137.165C29.8817 138.425 28.1079 137.42 28.0909 134.899L27.8862 64.5306C27.8862 62.0089 29.6429 58.942 31.843 57.6812L126.907 2.8521Z" fill="#E3E3E3"/>
<path d="M30.1716 130.101L30.1887 134.906C30.1887 135.298 30.2569 135.519 30.3081 135.604C30.4104 135.604 30.6321 135.553 30.9903 135.349L126.054 80.5196C127.606 79.6336 128.954 77.2823 128.954 75.5103V73.125L30.1716 130.101Z" fill="#E3E3E3"/>
<path d="M128.954 73.1192L30.1717 130.095V128.528L29.9841 64.549C29.9841 62.777 31.3315 60.4257 32.8835 59.5397L127.248 5.11957L127.965 4.71064C128.323 4.50618 128.562 4.45508 128.647 4.45508C128.681 4.54027 128.749 4.76177 128.766 5.15365L128.954 73.1192Z" fill="#8F9AD2"/>
<path d="M127.453 72.4202L30.1717 128.527L29.9841 64.5486C29.9841 62.7766 31.3315 60.4253 32.8835 59.5393L127.248 5.11914L127.453 72.4202Z" fill="#3064C7"/>
<path d="M30.1717 128.53L29.9841 64.5513C29.9841 62.7793 31.3315 60.4281 32.8835 59.5421L126.242 5.70117L30.1717 128.53Z" fill="#1391EE"/>
<path d="M149.795 123.539C149.76 123.521 149.709 123.521 149.675 123.504C149.539 123.453 149.436 123.402 149.283 123.351C146.418 122.431 139.34 120.574 138.675 123.47C138.828 123.607 138.982 123.743 139.152 123.879C136.168 125.6 138.436 126.145 136.935 127.543C136.151 128.258 136.099 129.996 137.072 129.672C136.424 130.729 136.935 131.717 139.306 131.155C140.551 130.865 142.563 130.797 145.565 132.586C145.446 132.773 146.725 133.761 144.729 133.744C143.416 133.744 143.416 132.62 141.352 133.199C140.568 133.421 140.431 134.085 140.96 134.511C148.805 140.73 153.018 134.75 152.728 134.92C152.54 135.039 153.103 134.699 153.274 134.579C153.905 134.528 154.638 134.545 155.116 134.153C155.764 133.625 156.241 132.671 156.531 131.904C158.782 126.06 153.547 125.072 149.795 123.539Z" fill="#F1B599"/>
<path d="M157.214 125.207C160.624 125.121 175.138 126.024 188.083 129.125C196.218 131.085 200.925 135.191 199.339 140.456C198.708 142.534 196.406 145.482 194.052 145.942C191.119 146.504 168.18 138.445 153.973 136.23C152.472 135.992 157.214 125.207 157.214 125.207Z" fill="#8F9AD2"/>
<path d="M130.574 225.702C130.011 225.872 129.431 226.213 128.851 226.776C126.975 228.582 126.413 231.614 127.214 234.068C127.965 236.334 130.011 237.85 131.989 239.128C133.559 240.151 135.264 240.917 137.055 241.462C139.289 242.161 143.263 242.962 146.247 245.006C147.458 245.841 151.688 247.63 153.462 246.097C157.06 243.013 157.146 237.867 155.031 235.039C153.376 232.841 152.899 233.608 142.137 230.013C139.443 229.11 136.816 227.832 134.326 226.469C133.013 225.753 131.785 225.344 130.574 225.702Z" fill="#1B151E"/>
<path d="M153.973 227.865C160.522 209.361 165.997 186.104 160.744 181.504C158.817 179.817 156.293 179.05 153.751 178.829C147.526 178.266 144.866 181.623 142.717 187.552C141.693 190.363 138.112 209.497 135.792 221.935L153.973 227.865Z" fill="#322A36"/>
<path d="M96.4639 251.531C95.9522 251.838 95.4747 252.315 95.0313 252.997C93.6328 255.195 93.8033 258.296 95.1848 260.477C96.4468 262.487 98.8004 263.458 101.035 264.225C102.808 264.821 104.633 265.162 106.509 265.264C108.846 265.401 112.905 265.196 116.265 266.457C117.646 266.968 122.166 267.684 123.53 265.758C126.293 261.891 125.15 256.864 122.422 254.632C120.29 252.895 120.017 253.763 108.709 252.895C105.878 252.673 103.03 252.077 100.284 251.361C98.8345 250.986 97.5725 250.884 96.4639 251.531Z" fill="#1B151E"/>
<path d="M121.432 201.082C120.187 204.234 115.02 228.156 112.495 239.724C111.216 245.552 105.52 256.183 113.826 261.431C115.531 262.522 117.663 262.88 119.676 262.505C122.217 262.045 122.933 260.426 124.144 258.143C132.876 241.769 146.486 202.07 139.613 195.629C137.754 193.875 135.23 193.023 132.705 192.716C126.515 191.949 123.752 195.221 121.432 201.082Z" fill="#322A36"/>
<path d="M193.831 236.571V239.075C189.635 236.622 182.813 236.622 178.635 239.075V236.571C182.813 234.117 189.635 234.117 193.831 236.571Z" fill="#7480BA"/>
<path d="M179.453 236.145C179.163 236.281 178.89 236.417 178.635 236.587V239.092C178.907 238.939 179.18 238.785 179.453 238.649V236.145Z" fill="#7480BA"/>
<path d="M178.635 236.57V239.075L140.039 261.395L140.056 258.89L178.635 236.57Z" fill="#7480BA"/>
<path d="M136.935 265.825V263.321C136.935 261.719 137.976 260.117 140.056 258.891V261.395C137.976 262.622 136.935 264.224 136.935 265.825Z" fill="#7480BA"/>
<path d="M140.056 258.891V261.395C137.976 262.622 136.935 264.224 136.935 265.825V263.321C136.935 261.719 137.976 260.117 140.056 258.891Z" fill="#7480BA"/>
<path d="M136.253 270.082C133.132 268.259 131.563 265.84 131.58 263.438V265.942C131.58 268.345 133.132 270.747 136.27 272.587L151.62 281.532V278.533L136.253 270.082Z" fill="#7480BA"/>
<path d="M140.056 258.889L178.635 236.569C178.907 236.416 179.18 236.262 179.453 236.126V232.582C177.833 233.025 176.315 233.638 174.985 234.422L136.168 256.896C129.994 260.525 130.028 266.437 136.236 270.083C136.236 270.083 151.313 278.381 151.585 278.517L155.031 276.524C154.843 276.421 154.655 276.319 154.468 276.217L140.09 267.8C135.895 265.347 135.878 261.36 140.056 258.889Z" fill="#B4BCDF"/>
<path d="M151.603 278.532L155.014 276.521L178.396 290.203L174.985 292.214L151.603 278.532Z" fill="#B4BCDF"/>
<path d="M182.984 290.644L179.573 292.654C178.362 293.37 176.724 293.216 174.985 292.194L178.396 290.184C180.135 291.206 181.773 291.359 182.984 290.644Z" fill="#7480BA"/>
<path d="M178.993 290.507C178.788 290.405 178.601 290.303 178.396 290.184L174.985 292.194C175.19 292.313 175.377 292.416 175.582 292.518C177.083 293.233 178.498 293.285 179.573 292.654L182.984 290.644C181.909 291.274 180.511 291.223 178.993 290.507Z" fill="#B4BCDF"/>
<path d="M184.81 293.831L181.399 295.842C181.586 295.74 181.757 295.62 181.927 295.484C183.65 294.104 184.366 291.395 183.906 288.055L187.317 286.045C187.777 289.384 187.061 292.094 185.338 293.474C185.168 293.61 184.98 293.729 184.81 293.831Z" fill="#B4BCDF"/>
<path d="M187.401 286.914C187.384 286.624 187.35 286.335 187.298 286.045L183.887 288.055C183.922 288.345 183.956 288.635 183.99 288.924C184.211 291.855 183.478 294.223 181.909 295.484C181.739 295.62 181.568 295.74 181.38 295.842L184.791 293.831C184.979 293.729 185.15 293.61 185.32 293.474C186.889 292.213 187.622 289.844 187.401 286.914Z" fill="#B4BCDF"/>
<path d="M132.656 228.134L136.067 226.123L175.958 249.448L172.547 251.459L132.656 228.134Z" fill="#7480BA"/>
<path d="M181.397 265.261L184.808 263.25L187.299 286.047L183.888 288.058L181.397 265.261Z" fill="#B4BCDF"/>
<path d="M172.546 251.456L175.957 249.445C180.323 252.001 184.041 257.794 184.808 263.246L181.397 265.257C180.63 259.805 176.895 254.012 172.546 251.456Z" fill="#B4BCDF"/>
<path d="M172.546 251.456L175.957 249.445C177.355 250.263 178.703 251.439 179.897 252.819L176.486 254.829C175.292 253.449 173.944 252.274 172.546 251.456Z" fill="#B4BCDF"/>
<path d="M176.486 254.829L179.897 252.818C181.295 254.437 182.506 256.345 183.376 258.373L179.965 260.383C179.095 258.356 177.884 256.431 176.486 254.829Z" fill="#B4BCDF"/>
<path d="M179.965 260.368L183.376 258.357C184.075 259.959 184.57 261.612 184.791 263.247L181.38 265.258C181.159 263.639 180.664 261.97 179.965 260.368Z" fill="#B4BCDF"/>
<path d="M172.546 251.456C176.912 254.012 180.63 259.805 181.398 265.257L183.905 288.037C184.365 291.377 183.649 294.086 181.926 295.466C180.204 296.863 177.68 296.761 174.985 295.193L151.603 281.512V278.513L174.985 292.195C176.895 293.319 178.703 293.387 179.931 292.399C181.159 291.411 181.67 289.452 181.346 287.066L178.839 264.286C178.276 260.401 175.633 256.278 172.529 254.455L132.637 231.13V228.131L172.546 251.456Z" fill="#7480BA"/>
<path d="M182.438 242.803L185.848 240.793L223.727 262.977L220.317 264.987L182.438 242.803Z" fill="#B4BCDF"/>
<path d="M228.315 263.437L224.904 265.447C223.694 266.163 222.056 266.009 220.317 264.987L223.728 262.977C225.467 263.999 227.105 264.152 228.315 263.437Z" fill="#7480BA"/>
<path d="M224.325 263.3C224.12 263.198 223.932 263.096 223.728 262.977L220.317 264.987C220.521 265.106 220.709 265.209 220.914 265.311C222.414 266.026 223.83 266.077 224.904 265.447L228.315 263.437C227.241 264.067 225.825 264.016 224.325 263.3Z" fill="#B4BCDF"/>
<path d="M230.123 266.624L226.712 268.635C226.9 268.533 227.07 268.413 227.241 268.277C228.963 266.897 229.68 264.188 229.219 260.848L232.63 258.838C233.091 262.177 232.374 264.887 230.652 266.267C230.481 266.403 230.311 266.522 230.123 266.624Z" fill="#B4BCDF"/>
<path d="M232.733 259.707C232.716 259.417 232.681 259.128 232.63 258.838L229.219 260.848C229.253 261.138 229.287 261.445 229.322 261.717C229.543 264.648 228.81 267.016 227.241 268.277C227.07 268.413 226.9 268.533 226.712 268.635L230.123 266.624C230.311 266.522 230.481 266.403 230.652 266.267C232.221 265.006 232.954 262.637 232.733 259.707Z" fill="#B4BCDF"/>
<path d="M177.988 200.925L181.399 198.914L221.29 222.239L217.862 224.25L177.988 200.925Z" fill="#7480BA"/>
<path d="M226.712 238.052L230.123 236.041L232.63 258.838L229.219 260.832L226.712 238.052Z" fill="#B4BCDF"/>
<path d="M217.861 224.247L221.272 222.236C225.638 224.792 229.356 230.585 230.123 236.037L226.712 238.048C225.945 232.596 222.227 226.803 217.861 224.247Z" fill="#B4BCDF"/>
<path d="M217.861 224.247L221.272 222.236C222.687 223.054 224.017 224.23 225.211 225.61L221.8 227.62C220.623 226.223 219.276 225.065 217.861 224.247Z" fill="#7480BA"/>
<path d="M221.817 227.606L225.228 225.596C226.627 227.214 227.838 229.123 228.708 231.15L225.297 233.161C224.41 231.15 223.216 229.225 221.817 227.606Z" fill="#B4BCDF"/>
<path d="M225.297 233.159L228.708 231.148C229.407 232.75 229.901 234.403 230.123 236.038L226.712 238.049C226.49 236.413 225.996 234.761 225.297 233.159Z" fill="#B4BCDF"/>
<path d="M217.861 224.247C222.227 226.803 225.945 232.596 226.712 238.048L229.219 260.828C229.68 264.168 228.963 266.877 227.241 268.257C225.518 269.654 222.994 269.552 220.3 267.984L182.421 245.801V242.802L220.3 264.986C222.21 266.11 224.018 266.178 225.263 265.19C226.491 264.202 227.002 262.243 226.678 259.857L224.171 237.077C223.608 233.192 220.965 229.069 217.861 227.246L177.969 203.921L177.986 200.922L217.861 224.247Z" fill="#7480BA"/>
<path d="M132.654 222.611L132.671 228.132L178.447 255.086L178.43 249.566L132.654 222.611Z" fill="#F1AD00"/>
<path d="M132.654 222.612L178.43 249.566L226.371 221.47L180.596 194.516L132.654 222.612Z" fill="#FFD130"/>
<path d="M185.968 190.193C183.051 188.813 180.186 187.365 177.304 185.951C171.727 183.225 166.031 180.686 159.976 179.238C156.719 178.454 153.239 178.096 150.05 179.135C142.699 181.555 142.58 189.887 145.82 195.85C148.856 201.438 162.705 205.647 181.755 220.232C183.427 221.51 185.064 222.821 186.786 224.048C187.247 224.372 187.844 224.9 188.441 225.292C189.873 214.2 190.948 203.125 191.92 191.88C189.856 191.829 187.963 191.13 185.968 190.193Z" fill="#322A36"/>
<path d="M205.018 198.215C202.375 195.114 198.128 193.751 194.086 193.956C190.044 194.16 186.207 195.779 182.693 197.806C180.749 198.931 178.856 200.209 176.741 200.975C175.837 201.299 174.985 201.469 174.132 201.52C174.081 212.8 173.944 223.943 173.416 235.12C173.774 235.324 174.149 235.495 174.473 235.546C175.206 235.665 176.264 235.018 176.946 234.728C180.442 233.212 183.666 230.997 187.332 229.889C187.912 229.719 188.509 229.565 189.106 229.446C189.976 229.276 190.88 229.208 191.75 229.429C192.244 229.565 192.688 229.787 193.148 230.025C195.962 231.44 198.486 232.581 201.488 231.627C218.475 226.277 211.602 205.967 205.018 198.215Z" fill="#1A1E23"/>
<path d="M202.511 213.225C202.511 220.5 198.265 225.628 196.372 231.473C198.009 232.035 199.646 232.222 201.471 231.643C201.522 231.626 201.556 231.609 201.607 231.592C203.074 225.731 202.511 219.478 202.511 213.225Z" fill="#322A36"/>
<path d="M195.451 234.813C194.393 235.835 193.233 236.738 191.954 237.471C187.827 239.839 182.949 240.095 178.379 239.073C175.906 238.527 173.518 237.624 171.233 236.551C168.248 235.137 165.519 233.245 162.722 231.456C142.546 218.541 128.391 215.509 124.911 210.193C121.193 204.536 120.631 196.221 127.742 193.188C130.829 191.876 134.326 191.945 137.634 192.439C143.791 193.376 149.658 195.42 155.457 197.669C158.458 198.828 161.426 200.038 164.445 201.162C167.378 202.253 170.056 202.917 173.109 201.793C175.223 201.026 177.099 199.748 179.061 198.624C181.534 197.192 184.16 195.966 186.94 195.284C188.322 194.943 189.157 195.148 190.488 195.591C191.835 196.034 193.097 196.732 194.24 197.584C202.869 204.076 205.445 225.135 195.451 234.813Z" fill="#322A36"/>
<path d="M206.553 193.068C206.195 195.863 205.939 198.708 205.837 201.519C205.956 198.691 206.195 195.88 206.553 193.068Z" fill="#E5A07D"/>
<path d="M209.606 195.814C209.043 193.616 208.464 191.418 208.122 189.169C207.543 185.182 209.555 171.313 210.169 169.064C214.637 152.639 220.504 146.437 217.349 132.295C216.479 128.376 211.448 123.078 197.685 127.695C187.639 131.069 177.884 135.294 168.538 140.32C165.144 142.143 163.404 144.137 162.705 148.056C161.784 153.15 163.797 209.649 164.223 211.642C167.191 225.801 203.159 230.674 212.147 214.266C214.467 210.024 211.994 206.565 210.323 198.71C210.101 197.739 209.862 196.768 209.606 195.814Z" fill="#B4BCDF"/>
<path d="M203.995 132.993C204.319 142.943 181.738 143.812 181.994 134.458C182.352 121.424 183.137 119.925 189.259 117.897C190.931 117.352 192.688 116.926 194.461 116.892C200.908 116.772 201.044 117.846 201.573 120.095C203.176 126.893 203.876 129.398 203.995 132.993Z" fill="#F1B599"/>
<path d="M203.211 127.166C202.818 125.36 202.29 123.162 201.556 120.095C201.028 117.846 200.908 116.789 194.444 116.892C192.671 116.926 190.914 117.352 189.243 117.897C183.478 119.805 182.455 121.253 182.045 132.379C185.149 133.742 188.253 135.361 191.374 135.361C196.542 134.475 200.584 131.391 203.211 127.166Z" fill="#F1B599"/>
<path d="M172.853 96.6698C171.812 98.118 171.045 99.7196 170.874 101.56C170.516 105.649 172.392 109.704 171.761 113.776C171.164 117.729 173.347 126.453 181.056 128.242C184.962 129.145 192.432 127.339 194.802 126.01C197.975 124.221 199.936 120.881 201.675 117.661C215.95 91.2175 182.779 82.7665 172.853 96.6698Z" fill="#F1B599"/>
<path d="M204.626 89.6661C203.808 88.9165 202.835 88.286 201.642 87.809C201.283 87.6727 200.908 87.5364 200.635 87.2637C200.448 87.0593 200.328 86.7697 200.192 86.5141C199.578 85.3725 198.452 84.6228 197.31 84.0606C192.944 81.9478 187.81 82.1523 183.086 83.1405C181.483 83.4813 179.897 83.9072 178.43 84.6399C176.758 85.4918 175.326 86.7356 174.03 88.0986C171.642 90.6373 168.828 94.505 169.203 98.2194C169.288 99.0372 169.8 99.6676 170.243 100.366C170.567 100.877 171.028 101.269 171.42 101.729C172.733 103.212 173.433 105.444 174.268 107.216C174.644 107.982 175.036 108.8 175.769 109.226C177.185 110.061 179.01 109.039 180.613 109.431C181.551 109.652 182.301 110.351 182.83 111.168C183.359 111.986 183.666 112.906 183.956 113.826C184.433 115.275 184.553 116.501 184.825 117.95C185.098 119.415 185.61 120.965 186.701 122.022C189.157 124.39 193.558 123.964 196.508 123.112C197.582 122.806 198.64 122.482 199.612 121.92C201.846 120.642 203.296 118.342 204.626 116.127C205.854 114.099 207.099 112.037 207.662 109.737C207.986 108.442 208.088 107.096 208.191 105.767C208.6 100.383 208.736 93.4657 204.626 89.6661Z" fill="#322A36"/>
<path d="M182.352 108.104C185.388 107.899 186.173 111.716 184.075 114.68C183.461 115.549 182.386 116.316 181.585 116.998C176.127 121.7 174.763 116.606 176.503 115.004C180.527 111.29 178.515 108.376 182.352 108.104Z" fill="#F1B599"/>
<path d="M181.431 113.914C181.789 113.59 185.252 111.512 182.881 110.097C182.233 109.706 181.5 110.285 181.397 110.983C181.346 111.341 181.465 111.716 181.397 112.091C181.363 112.312 181.278 112.517 181.158 112.687C180.851 113.198 179.794 113.675 179.999 114.425C180.203 115.107 181.227 114.101 181.431 113.914Z" fill="#E5A07D"/>
<path d="M174.985 158.227L175.053 247.575L178.43 249.569L178.362 160.22L174.985 158.227Z" fill="#FFD130"/>
<path d="M178.362 160.222L226.457 132.092L226.542 221.44L226.371 221.526L226.389 226.995L178.447 255.091L178.43 249.571L178.362 160.222Z" fill="#FF9501"/>
<path d="M174.985 158.226L178.362 160.219L226.457 132.089L223.08 130.096L174.985 158.226Z" fill="#FFD130"/>
<path d="M118.704 145.91C118.294 145.671 117.97 145.501 117.97 145.535C118.192 147.034 118.397 148.517 118.618 150.016C118.686 150.527 118.601 151.243 118.09 151.243C117.834 151.243 117.612 151.038 117.441 150.834C116.282 149.488 115.327 147.971 114.593 146.353C114.201 145.484 113.741 144.479 112.82 144.257C111.779 144.019 110.875 144.939 110.193 145.756C109.153 147.034 108.147 148.5 108.556 150.238C108.965 152.009 110.125 153.458 110.398 155.349C108.488 154.395 107.771 152.998 106.936 151.141C106.799 150.817 106.56 150.425 106.219 150.493C106.015 150.527 105.878 150.732 105.844 150.936C105.81 151.141 105.878 151.345 105.929 151.549C106.509 153.577 107.345 155.025 108.607 156.729C110.091 158.757 111.558 160.597 113.689 162.011C114.576 162.607 118.789 164.924 120.887 166.765C124.673 170.104 121.074 160.341 122.677 158.791C123.053 158.433 125.543 160.784 125.645 160.205C125.747 159.574 123.206 155.894 122.967 155.315C122.132 153.338 121.671 151.158 120.989 149.113C120.716 148.329 120.58 147.46 120.068 146.762C119.932 146.659 119.249 146.234 118.704 145.91Z" fill="#F1B599"/>
<path d="M117.169 165.232C117.049 164.295 123.769 155.691 126.208 158.74C129.636 163.034 144.78 167.771 147.305 166.476C152.353 163.869 153.683 160.155 155.764 155.128C156.378 153.646 164.07 134.41 175.155 140.952C175.616 141.225 176.11 141.412 176.503 141.77C185.849 150.102 174.899 162.182 169.954 169.526C167.805 172.712 159.772 180.396 153.223 182.679C146.895 184.877 138.129 183.275 129.567 176.954C126.481 174.654 117.595 168.605 117.169 165.232Z" fill="#CED3E8"/>
</svg>
