<svg width="86" height="112" viewBox="0 0 86 112" fill="none" xmlns="http://www.w3.org/2000/svg">
<path d="M74.5184 71.0362C74.0692 71.8866 73.5963 72.737 73.0997 73.5638C72.7214 74.2016 72.3667 74.8158 71.9884 75.4536C71.8229 75.7134 71.6574 75.9733 71.4918 76.2331C68.9145 80.4143 66.1244 84.2883 63.1687 87.808C62.2702 88.8946 61.348 89.9576 60.4022 90.9734C60.1894 91.2332 59.9529 91.4695 59.7401 91.7057C59.3854 92.0836 59.0308 92.4852 58.6524 92.8395C48.012 103.847 36.0475 110.533 25.5253 111.241C25.3835 111.241 25.2179 111.265 25.0524 111.265C20.5125 111.501 16.28 110.603 12.5677 108.454C10.7233 107.391 9.06818 106.044 7.62582 104.462C-3.93675 91.8947 -2.28158 64.3275 12.5677 38.6502C29.2849 9.76025 56.3825 -5.85403 73.0997 3.78383C89.3204 13.1382 89.7933 42.8549 74.5184 71.0362Z" fill="#FF9501"/>
<path d="M72.6034 35.6469C69.9078 35.2217 66.9758 35.5997 64.2329 35.5288C61.1118 35.458 57.9906 35.3635 54.8694 35.8123C53.427 36.0249 51.4408 36.1903 50.6369 37.6312C49.7147 39.3084 50.7314 41.647 51.7246 42.9935C52.0792 43.4895 52.9068 43.0407 52.5758 42.4974C51.8428 41.3399 52.3157 38.0564 53.3324 37.1352C54.0182 36.521 56.5246 36.5918 57.4467 36.521C59.2911 36.3792 61.1354 36.4029 62.9797 36.4265C66.0536 36.4737 69.2221 36.6155 72.4615 36.4737C72.6034 36.4737 72.7926 35.6706 72.6034 35.6469Z" fill="#1B151E"/>
<path d="M71.9885 75.4509C71.823 75.7107 71.6575 75.9706 71.492 76.2304C68.9146 80.4115 66.1245 84.2856 63.1688 87.8053C61.9629 86.6714 61.1353 85.136 60.9225 83.1281C60.426 78.4509 60.5679 73.8682 59.0546 69.2855C58.3925 67.3012 57.5176 65.1516 56.028 63.6162C55.0821 62.624 53.5215 62.3642 52.9777 61.0413C52.3156 59.435 53.0486 57.0256 53.5688 55.4665C54.7038 52.0649 56.0043 49.3011 56.2644 45.8523C56.288 45.4034 56.3117 44.931 56.3117 44.4822C56.2644 39.7341 55.5314 34.8915 55.957 30.1435C56.1225 28.301 56.4772 26.4348 56.9974 24.6159C57.0683 24.4033 61.9393 24.6159 62.3176 24.6159C63.9964 24.6159 68.8437 23.7182 69.3166 25.8442C69.5531 26.9545 69.0092 28.1592 68.7255 29.1986C68.1816 31.1356 67.8743 33.0963 67.4013 35.0333C66.3373 39.6632 67.1176 44.3168 68.489 48.7814C69.0801 50.6948 70.1678 52.1121 71.2319 53.7657C73.7619 57.5925 70.9954 63.2382 70.7117 67.3721C70.6171 70.0414 71.161 72.7816 71.9885 75.4509Z" fill="#043774"/>
<path d="M74.5187 71.0357C74.0694 71.8861 73.5965 72.7365 73.1 73.5632C72.5798 74.4609 72.0595 75.3585 71.4921 76.2325C67.9216 81.9964 63.9492 87.1932 59.7404 91.7051C57.3285 81.0751 52.9541 61.6104 51.3226 58.3978C49.2655 54.3348 56.4536 63.3112 60.6152 61.7285C63.6418 60.5946 67.4014 61.0671 69.7187 63.3348C71.8467 65.4136 73.4073 68.1065 74.5187 71.0357Z" fill="#8F9AD2"/>
<path d="M62.7195 86.3411V61.6086C62.6486 61.585 62.6013 61.5377 62.5304 61.5141C57.1865 59.1519 51.0387 58.8921 45.2693 60.1204C44.489 60.2858 41.9117 59.3172 41.1314 59.4826C36.3786 60.5456 34.7471 61.6795 30.2072 63.7346L29.2141 86.3411H62.7195Z" fill="#E5A07D"/>
<path d="M37.4191 63.7343C37.4191 63.7343 58.9363 73.5375 57.4703 61.8682C55.4368 45.5925 54.3255 43.8208 46.9245 41.9783C44.891 41.4822 44.0397 39.805 41.959 39.9704C34.3925 40.561 37.7265 44.3878 38.2703 47.246C39.9728 55.7028 37.1117 59.2461 37.4191 63.7343Z" fill="#E5A07D"/>
<path d="M35.0782 69.073C33.6595 67.9392 30.2073 63.7108 30.2073 63.7108C31.5551 63.0966 32.6191 62.5769 33.6122 62.1281C36.1659 66.3092 44.2526 72.2148 52.1029 71.2226C55.7679 70.7502 56.9738 66.8053 60.1895 60.7344C60.9698 60.9942 61.7738 61.1832 62.5304 61.5139C62.6014 61.5375 62.6487 61.5612 62.7196 61.6084C62.7196 61.6084 58.6762 69.5691 56.3826 71.8604C50.5423 77.6715 39.2871 72.4274 35.0782 69.073Z" fill="#DEE1EE"/>
<path d="M55.484 58.8699C55.5786 58.8699 55.6731 58.8699 55.7677 58.8935C54.9165 58.6337 54.4436 58.8463 55.484 58.8699Z" fill="#B4BCDF"/>
<path d="M71.492 76.2549C58.558 97.1842 40.2092 110.531 25.0762 111.31C24.4614 109.775 23.7993 108.239 23.1136 106.728C22.0969 104.507 21.4348 102.405 20.1579 100.302C18.8811 98.2472 17.8407 96.1448 16.5639 94.0897C15.3579 92.1526 14.2703 90.1211 13.7501 87.877C13.3244 85.9872 12.8042 84.0975 12.7333 82.1368C12.7097 81.4282 12.7097 80.7431 12.7333 80.1053C12.9698 76.3494 14.4594 73.4439 17.7934 71.0108C21.6712 68.1289 26.1402 66.2391 30.2545 63.7351C33.5176 73.3494 43.4959 77.3415 50.7314 74.8848C51.6299 74.6013 52.4575 74.1525 53.2141 73.562C56.0989 71.436 58.6998 69.3572 58.3688 62.743C58.2269 60.1446 56.7846 59.176 55.8151 58.8926C69.0328 59.3414 69.1984 67.5383 71.492 76.2549Z" fill="#B4BCDF"/>
<path d="M60.4023 90.9959C60.1895 91.2557 59.953 91.492 59.7402 91.7282C59.3855 92.1061 59.0308 92.5077 58.6525 92.862C56.7136 85.9407 54.2545 79.1848 51.4644 72.3816C51.2279 71.791 52.1501 71.4603 52.4575 71.9564C56.0279 77.7675 58.558 84.2872 60.4023 90.9959Z" fill="#DEE1EE"/>
<path d="M58.4634 61.2793C58.558 64.0903 57.5176 67.9408 55.9806 70.303C54.8693 71.9802 52.7412 72.8778 52.7412 72.8778L61.2772 79.8936C61.2772 79.8936 64.2565 73.0904 63.1451 68.6022C62.6486 66.6179 61.6319 61.3029 58.4634 61.2793Z" fill="#DEE1EE"/>
<path d="M31.8386 63.6651C31.6258 63.6415 31.4602 63.7123 31.3657 63.8541C31.342 64.799 32.7844 62.8619 33.4701 63.3108C35.7164 64.7753 37.0878 69.1218 40.942 71.4368C46.4987 74.7675 52.2681 73.0904 52.741 72.8778C52.9538 75.4998 51.0149 83.9093 50.6602 85.1377C50.4474 84.9015 38.743 79.4211 34.6996 77.3424C32.5006 76.2085 30.5381 74.2715 29.4031 72.0746C28.741 70.7754 27.8425 69.3344 28.0789 67.8226C28.1735 67.2321 29.2612 64.3974 30.207 63.7123L31.8386 63.6651Z" fill="#DEE1EE"/>
<path d="M43.7089 52.7037C43.0704 52.1604 42.503 51.688 42.0064 51.0029C41.4862 50.2943 40.966 49.6092 40.3512 48.995C39.9493 48.5935 39.5237 48.2391 39.0508 47.932C38.5779 47.6486 38.0104 47.5541 37.703 47.0816C37.1828 46.3021 36.6626 45.499 36.1897 44.6958C31.6498 37.0895 31.3897 26.8374 37.7739 20.176C42.3138 15.4515 49.5256 13.4673 55.8389 15.2153C57.5414 15.6877 59.1729 16.42 60.7572 17.2232C62.1286 17.9082 63.4764 18.6878 64.5168 19.8216C65.2025 20.5539 65.7227 21.4279 66.2192 22.302C66.9286 23.6012 67.4961 24.9949 68.0872 26.3414C68.5838 27.428 68.5365 28.6563 68.5128 29.8374C68.5128 32.3414 67.7089 34.5383 67.165 36.9477C66.6685 39.121 67.7325 41.1052 68.3946 43.1131C68.7729 44.2234 69.3641 45.5935 68.702 46.7037C68.2764 47.4124 67.6379 47.9793 67.3069 48.7588C66.9759 49.5147 66.7158 50.3179 66.5266 51.1447C66.3847 51.7116 66.0064 53.6486 65.9118 54.0738C65.8173 54.5935 65.7463 55.0896 65.6754 55.6093C65.6044 56.1998 65.4862 56.7667 65.3917 57.3573C65.1552 58.7274 64.4931 59.9557 63.169 60.4991C62.4123 60.8061 61.632 60.9951 60.8281 61.0188C60.0242 61.0424 59.2439 60.9479 58.4636 60.7589C55.1532 59.8849 47.9887 55.8927 46.901 55.1604C45.837 54.3809 44.7493 53.5778 43.7089 52.7037Z" fill="#F1BCA4"/>
<path d="M29.2851 29.625C29.5925 19.9871 32.028 18.0265 35.693 14.932C39.2161 11.9556 44.3708 10.9162 48.9817 11.0343C52.4575 11.1288 55.8861 12.0265 59.0309 13.4674C62.0812 14.8611 64.3038 16.7509 66.4319 19.3021C68.9856 22.3966 70.5935 27.1683 69.1511 31.0423C68.891 31.7274 68.6782 32.814 68.2053 33.3809C68.1107 33.4991 67.1649 31.1368 67.1176 30.9478C66.8575 30.1919 66.6684 29.3888 66.3846 28.6329C66.1482 27.9715 65.6043 27.4518 65.4388 26.7903C62.8378 26.6722 60.5206 27.7352 58.4634 29.2707C55.7679 31.2549 53.6634 33.3573 51.9846 36.3101C51.1807 37.7038 50.4477 39.0975 49.5728 40.4676C49.2181 41.0109 48.8398 41.5306 48.5088 42.0739C47.5866 43.5149 45.5767 44.6724 43.9688 45.1212C42.692 45.4519 40.895 45.4519 39.8782 46.4204C38.8142 47.4125 38.4358 48.1684 36.7097 47.8141C33.6122 47.1527 31.7442 41.6723 30.7984 39.0975C29.6634 36.0502 29.1669 32.8376 29.2851 29.625Z" fill="#043774"/>
<path d="M28.4812 101.248C27.5354 104.602 26.5659 107.933 25.5255 111.264C25.3836 111.264 25.2181 111.287 25.0526 111.287C20.5127 111.524 16.2802 110.626 12.5678 108.476C10.7235 107.413 9.06834 106.067 7.62598 104.484C7.86243 102.996 8.09887 101.508 8.33533 100.043C9.16291 95.059 10.0614 90.0984 11.1491 85.1613C11.9294 81.7125 12.6388 78.0274 14.1757 74.8148C14.3649 74.4368 14.5777 74.0825 14.8142 73.7754C16.493 71.5549 19.4486 70.8463 22.1206 72.1691C24.6506 73.4211 26.3058 75.9723 27.4408 78.5707C30.5383 85.681 30.562 93.9252 28.4812 101.248Z" fill="#DEE1EE"/>
<path d="M25.3364 50.3188C25.3128 53.1298 25.1709 55.9172 24.6744 58.7047C24.1542 61.6338 22.7355 64.87 22.9719 67.8701C24.6271 67.0197 27.4645 66.5236 28.7887 68.2008C30.8695 70.8465 31.2714 75.6418 31.8389 78.8308C32.3591 81.7835 32.5246 84.7599 32.9503 87.7127C33.6123 92.3427 37.5375 94.3505 41.8409 94.7521C47.4685 95.2954 49.3365 93.6891 50.4951 88.3033C51.4173 84.0513 50.6606 79.5867 49.1946 75.5473C47.2557 70.185 43.5434 66.0275 41.1315 60.9251C39.831 58.185 38.7434 54.1456 40.1148 51.0747C40.7532 49.6101 40.7532 49.3503 41.1315 47.6967C41.5572 45.8069 41.7227 43.8227 41.6517 41.8856C41.5572 39.6415 40.6823 37.5628 40.6823 35.295C40.6823 33.6887 40.1857 32.2478 39.5709 30.8068C38.9562 29.3895 38.8143 27.7359 38.1759 26.2714C36.9227 23.3422 32.903 17.2949 32.903 17.2949C32.9502 17.3658 31.9335 18.665 31.8626 18.7831C30.9877 20.0823 29.9473 21.2162 29.2379 22.6099C27.6064 25.8225 26.8498 29.106 26.1167 32.6021C24.8872 38.4604 25.3837 44.3896 25.3364 50.3188Z" fill="#043774"/>
<path d="M64.4221 38.249C62.365 37.6584 58.8182 38.6033 57.8487 40.7529C56.9738 42.6899 57.0921 46.5403 59.1019 47.5561C61.2773 48.6427 63.76 47.0837 64.8477 44.934C65.5807 43.4931 66.763 38.9104 64.4221 38.249ZM64.8241 42.9025C64.6113 43.8238 64.162 44.6506 63.5945 45.3356C62.4359 46.7529 59.5985 47.8868 58.6054 45.5955C57.7541 43.6112 58.3925 40.682 60.1896 39.8316C61.4428 39.2411 63.3817 38.9576 64.3275 39.4064C65.2733 39.8316 65.0842 41.745 64.8241 42.9025Z" fill="#1B151E"/>
<path d="M71.3974 35.6947C70.0496 36.238 67.9925 37.301 67.5196 38.8365C67.4486 39.0491 67.425 39.2853 67.425 39.5215C67.2831 41.1987 67.5195 43.9388 69.2457 44.3168C71.7048 44.8365 72.9107 41.0333 73.2181 39.3089C73.4782 37.8679 73.7856 34.7498 71.3974 35.6947ZM72.225 40.1593C71.9885 41.0097 70.3097 45.4034 68.6309 43.0884C68.1343 42.3798 66.5737 38.0569 70.8535 36.6868C73.289 35.9309 72.5796 38.9073 72.225 40.1593Z" fill="#1B151E"/>
<path d="M68.7729 37.1641C68.2527 37.4948 65.8645 38.6759 64.3275 38.2507C64.1384 38.2034 64.895 39.4082 65.0369 39.4554C65.2261 39.5263 67.4251 38.8412 68.0399 38.5814C68.6074 38.3688 68.7729 37.1641 68.7729 37.1641Z" fill="#1B151E"/>
<path d="M58.1559 40.5356C55.4603 40.1104 52.5283 40.4884 49.7854 40.4175C46.6642 40.3466 43.5431 40.2522 40.4219 40.701C38.9795 40.9136 36.9933 41.0789 36.1894 42.5199C35.2672 44.1971 36.284 46.5357 37.2771 47.8821C37.6317 48.3782 38.4593 47.9294 38.1283 47.3861C37.3716 46.2286 37.8682 42.9451 38.8849 42.0238C39.5707 41.4096 42.0771 41.4805 42.9992 41.4096C44.8436 41.2679 46.6879 41.2915 48.5322 41.3152C51.6061 41.3624 54.7509 41.5041 58.014 41.3624C58.1795 41.3624 58.345 40.5592 58.1559 40.5356Z" fill="#1B151E"/>
<path d="M38.4123 38.3654C35.1256 38.1528 34.3216 42.2394 36.568 45.3812C37.23 46.3025 38.3886 47.1056 39.2635 47.8379C45.1748 52.8222 46.6172 47.3891 44.7492 45.6883C40.3985 41.7434 42.5502 38.6252 38.4123 38.3654Z" fill="#F1BCA4"/>
<path d="M40.5405 45.8077C40.1621 45.4534 36.4026 43.2801 38.9562 41.7683C39.6656 41.3431 40.4459 41.9573 40.5641 42.7132C40.6114 43.0911 40.4932 43.4927 40.5641 43.8943C40.6114 44.1305 40.706 44.3431 40.8242 44.5321C41.1552 45.0754 42.2902 45.5951 42.0774 46.3746C41.8646 47.0833 40.7533 46.0203 40.5405 45.8077Z" fill="#E5A07D"/>
</svg>
