<svg width="127" height="140" viewBox="0 0 127 140" fill="none" xmlns="http://www.w3.org/2000/svg">
<path d="M31.9658 86.9922L37.9154 126.371L61.3369 139.968L61.2584 103.992L31.9658 86.9922Z" fill="#C2C8E3"/>
<path d="M90.7235 86.9922L84.774 126.371L61.3368 139.968L61.2583 103.992L90.7235 86.9922Z" fill="#A9B1D4"/>
<path d="M31.9658 86.9923L61.2584 103.992L90.7393 86.9923L61.4467 69.9766L31.9658 86.9923Z" fill="#E7E8EC"/>
<path d="M85.7473 86.9757L84.4757 87.7128L82.9687 88.591L78.8715 90.9434L78.746 91.0218L78.5105 91.163L76.925 92.0725L76.7523 92.1667L75.6534 92.794L71.6034 95.1307L71.2894 95.3189L70.0178 96.056L69.6725 96.2598L69.594 96.3069L68.9661 96.6676L68.4951 96.9342L68.1184 97.1381L67.8044 97.3263L67.3492 97.5772L67.2707 97.6242C67.2707 97.6242 67.2707 97.6242 67.255 97.6242L66.9567 97.7967L66.4701 98.079L64.7119 99.0984L64.1625 99.4277L64.0683 99.4748L61.3211 101.074L61.274 101.106L60.5519 100.682L60.5048 100.651L60.2851 100.541L60.2223 100.51L58.0088 99.2239L57.5222 98.9416L55.4658 97.7654L55.0576 97.5301L53.5506 96.6362L53.2523 96.4637L52.8599 96.2442L52.1378 95.8207L50.5523 94.8954L50.3796 94.7857L44.8068 91.555L42.7503 90.3631L40.8509 89.2654L38.7002 88.0107L36.9578 86.9914L38.4334 86.1445L39.5793 85.4701L42.7346 83.651L44.1946 82.8041L44.6184 82.5532L47.5068 80.8908L47.758 80.7496L49.422 79.7617L49.6575 79.6362L50.568 79.1187L51.5569 78.5541L53.6919 77.3152L55.9367 76.0292L56.0309 75.9664L57.6635 75.0255L57.7577 74.9784L57.8833 74.9L59.1548 74.1786L59.9554 73.7238L60.0967 73.6454L60.238 73.567L60.7403 73.269L61.431 72.877L61.6194 72.9867L64.4136 74.602L65.0102 74.9471L65.2927 75.1196L66.2974 75.6998L66.5329 75.841L67.5062 76.4056L67.7102 76.531L68.8876 77.221L69.3271 77.472L69.7667 77.7386L69.8295 77.7699L70.3318 78.0679L72.4667 79.2912L72.7964 79.4794L74.6017 80.5301L76.0773 81.3926L76.7523 81.7847L77.4116 82.1611L77.5058 82.2238L78.2593 82.6629L79.1384 83.1648L79.4367 83.3373L83.581 85.7368L84.7897 86.4425L85.7473 86.9757Z" fill="#0B122A"/>
<path d="M50.0184 66.999C43.7705 58.6714 36.7535 50.5635 33.0331 41.2323C30.4429 34.7397 29.5795 27.8863 29.7836 21.1114C29.8778 17.6142 30.2702 14.1326 30.8197 10.6824C31.2906 7.7968 31.3691 3.34293 33.0645 0.912109C39.7989 4.86415 46.5491 11.89 49.9713 18.2572C52.5144 22.9776 55.1202 27.4943 56.3761 32.6225C57.6476 37.8605 57.9302 43.224 57.8988 48.5404C57.8517 55.0331 57.3651 61.5257 57.8046 68.034C58.0087 71.0451 58.3697 74.1503 58.8407 77.1143C59.3116 80.0313 61.0384 82.8071 62.153 85.63C62.4669 86.4141 64.9001 92.4833 62.514 90.7268C60.9285 89.5663 60.5988 85.0184 59.8767 83.2619C58.7308 80.4861 57.3023 77.82 55.7011 75.2167C53.9586 72.3938 52.0277 69.6807 50.0184 66.999Z" fill="url(#paint0_linear_84_5557)"/>
<path d="M64.5705 81.3007C67.9456 77.5996 72.4352 74.9963 77.1917 73.4437C85.496 70.7306 92.5287 73.4123 99.6714 77.7564C106.029 81.6144 108.399 91.7297 107.976 98.6144C107.646 103.931 105.715 109.106 102.56 113.403C100.409 116.336 95.5899 122.907 93.6904 116.336C92.4659 112.102 92.309 107.648 91.9322 103.256C91.5555 98.8653 90.8961 94.3958 88.7926 90.5221C86.0768 85.5194 82.0267 83.5433 76.6109 83.3551C72.5922 83.214 68.3851 83.1199 64.806 84.9391C63.4717 85.6135 62.2943 86.6171 61.3995 87.8247C60.7402 88.7186 60.3163 90.6162 59.4373 90.9299C59.7041 87.511 62.31 83.7786 64.5705 81.3007Z" fill="url(#paint1_linear_84_5557)"/>
<path d="M56.0779 68.6756C54.8691 66.3389 53.6133 64.3943 52.954 61.7753C51.6196 56.4432 51.9493 50.8288 53.3464 45.6064C55.3872 37.9376 59.5157 30.9901 63.6129 24.1525C66.0461 20.075 68.495 15.9818 70.9282 11.9043C69.4212 13.4098 70.2218 15.8877 71.0067 17.8637C74.9783 27.9634 76.0144 39.0667 73.9422 49.5584C73.2829 52.8675 72.3253 56.0981 71.0852 59.2347C69.7823 62.5124 67.7729 65.4136 66.3287 68.5972C64.4135 72.8002 62.6083 77.3325 61.7606 81.8805C61.3838 83.8251 61.4309 85.8011 61.0227 87.7929C60.8815 88.4829 59.0762 93.9718 59.3588 94.2228C58.4954 93.4543 58.6837 92.1526 58.8878 91.0549C60.2221 83.982 59.5314 75.4663 56.1721 68.8325C56.125 68.7854 56.1093 68.7227 56.0779 68.6756Z" fill="#35C75A"/>
<path d="M62.2002 89.4583C62.0903 89.0819 61.9647 88.7055 61.8234 88.3448C60.8658 85.914 59.3588 83.7968 58.2914 81.4601C56.0936 76.6612 54.2413 71.8309 51.3999 67.283C46.6748 59.7396 40.1287 52.996 31.7774 49.4047C22.1074 45.2488 11.0559 45.6722 0.710938 43.4609C3.14413 44.2764 5.21628 46.0643 6.88027 48.0089C8.92101 50.3927 10.5379 53.1215 12.767 55.3327C16.9898 59.52 22.9551 61.496 28.3866 64.0994C36.581 68.0357 43.8021 73.5717 50.9447 79.0607C54.8849 82.0874 58.2443 85.4592 60.8031 89.4583H62.2002Z" fill="#35C75A"/>
<path d="M82.7488 88.2334C78.2278 83.1992 69.0602 80.6743 63.6443 85.7242C63.0321 86.2887 62.4984 86.9317 62.0431 87.6374C61.9333 87.8099 61.0856 89.833 61.2896 89.833C61.4466 89.833 61.6193 89.833 61.7763 89.833C61.9803 88.2961 65.12 87.2454 66.3915 87.0258C68.134 86.7278 69.9863 87.0415 71.5405 87.9041C74.2405 89.3939 74.3033 92.9068 74.0521 95.667C73.7696 98.7094 72.6864 101.611 71.8701 104.559C70.6457 108.95 69.9706 113.561 70.6143 118.062C71.2422 122.578 73.2829 126.985 76.7679 129.934C74.837 127.377 74.7429 123.77 75.7475 120.728C76.7522 117.686 78.7145 115.051 80.6767 112.51C82.639 109.97 84.6483 107.382 85.7786 104.387C87.8036 98.9917 86.5949 92.5148 82.7488 88.2334Z" fill="#35C75A"/>
<path d="M72.5139 58.012C76.0302 52.6799 80.3472 47.8026 85.6374 44.2113C90.9277 40.6356 97.254 38.4086 103.659 38.6125C110.786 38.8321 120.252 42.5018 123.36 49.3238C125.118 53.1817 126.123 57.3534 126.358 61.5877C126.421 62.7325 124.992 73.1145 124.992 73.1145C119.514 69.037 113.957 64.9124 107.693 62.1993C101.414 59.4862 94.2557 58.2629 87.6939 60.1762C82.5449 61.6818 78.1024 65.0222 74.4761 68.9742C68.9033 75.0591 63.6602 82.5241 61.2427 90.3968C61.9334 79.0112 66.2504 67.4844 72.5139 58.012Z" fill="url(#paint2_linear_84_5557)"/>
<path d="M32.8606 66.5752C28.2611 64.9755 23.2063 64.2385 18.6068 65.8381C13.034 67.7984 8.88972 73.0208 6.55071 78.7606C4.2274 84.5162 3.45819 90.8206 2.73608 97.031C7.31991 94.459 11.7468 91.542 15.9695 88.3271C20.4121 84.9396 24.8546 81.0974 30.2234 80.0309C37.052 78.6822 43.1742 82.054 49.2023 84.7357C54.7908 87.2293 59.4845 92.0282 61.9334 97.9562C59.7514 92.6869 57.6635 85.8178 53.5821 81.8188C49.6575 77.9765 46.0313 73.7578 41.4318 70.7625C38.7474 69.0374 35.859 67.6102 32.8606 66.5752Z" fill="url(#paint3_linear_84_5557)"/>
<path d="M35.0426 93.7062C33.1274 97.2818 32.7507 101.532 33.2687 105.547C33.7868 109.577 35.1211 113.435 36.4554 117.277C38.7159 123.801 40.9922 130.325 43.2527 136.849C43.0643 132.599 41.5887 128.506 40.6625 124.35C39.7363 120.194 39.3753 115.646 41.2904 111.835C43.6765 107.083 48.9982 104.59 54.1314 103.257C57.5222 102.379 61.6037 101.704 64.0683 98.9756C66.6428 96.1213 66.3916 91.4008 64.602 88.1545C61.3054 82.1637 50.4424 83.7006 45.2306 85.5512C41.055 87.041 37.1775 89.7228 35.0426 93.7062Z" fill="url(#paint4_linear_84_5557)"/>
<defs>
<linearGradient id="paint0_linear_84_5557" x1="62.9907" y1="87.5751" x2="37.1292" y2="10.8082" gradientUnits="userSpaceOnUse">
<stop stop-color="#3076A1"/>
<stop offset="1" stop-color="#48C9B6"/>
</linearGradient>
<linearGradient id="paint1_linear_84_5557" x1="107.217" y1="117.357" x2="101.894" y2="73.6141" gradientUnits="userSpaceOnUse">
<stop stop-color="#3076A1"/>
<stop offset="1" stop-color="#48C9B6"/>
</linearGradient>
<linearGradient id="paint2_linear_84_5557" x1="125.28" y1="88.4031" x2="120.393" y2="39.7709" gradientUnits="userSpaceOnUse">
<stop stop-color="#3076A1"/>
<stop offset="1" stop-color="#48C9B6"/>
</linearGradient>
<linearGradient id="paint3_linear_84_5557" x1="60.9511" y1="96.6857" x2="58.7566" y2="65.5335" gradientUnits="userSpaceOnUse">
<stop stop-color="#3076A1"/>
<stop offset="1" stop-color="#48C9B6"/>
</linearGradient>
<linearGradient id="paint4_linear_84_5557" x1="65.4272" y1="134.811" x2="55.6273" y2="86.5853" gradientUnits="userSpaceOnUse">
<stop stop-color="#3076A1"/>
<stop offset="1" stop-color="#48C9B6"/>
</linearGradient>
</defs>
</svg>
