<svg width="87" height="111" viewBox="0 0 87 111" fill="none" xmlns="http://www.w3.org/2000/svg">
<path d="M75.3383 70.0361C74.9127 70.8157 74.4871 71.5952 74.0379 72.3747C73.9669 72.5165 73.8724 72.6582 73.7778 72.8236C69.9709 79.4378 65.5965 85.3433 60.9384 90.4221C60.3236 91.0835 59.7088 91.745 59.094 92.3828C56.9896 94.5324 54.8379 96.5166 52.6625 98.3119C43.7009 105.706 34.2192 110.052 25.7778 110.43C21.3088 110.643 17.1472 109.745 13.4822 107.619C11.6615 106.58 10.0536 105.257 8.61127 103.721C6.57778 101.525 4.9699 98.9025 3.74034 95.8788C-2.02911 81.6583 1.23392 59.2172 13.4586 38.0044C30.1285 9.18533 57.1315 -6.40533 73.7778 3.20891C89.9039 12.5397 90.4241 42.0202 75.3383 70.0361Z" fill="#E6E7F8"/>
<path d="M75.3382 70.0337C74.9126 70.8132 74.487 71.5928 74.0377 72.3723C73.9668 72.514 73.8722 72.6558 73.7776 72.8211C69.9707 79.4353 65.5963 85.3409 60.9382 90.4196C60.5126 88.1283 60.2761 85.7897 60.2525 83.4511C60.1816 78.892 61.6239 75.0416 63.7756 70.9313C64.7451 69.0652 66.0929 67.0809 68.1737 66.6321C70.0889 66.2305 71.9333 67.3171 73.4466 68.451C74.085 68.9471 74.7234 69.4904 75.3382 70.0337Z" fill="#B4BCDF"/>
<path d="M74.0378 72.3732C73.9669 72.5149 73.8723 72.6567 73.7777 72.822C57.1078 101.665 30.1048 117.232 13.4349 107.617C11.6142 106.578 10.0063 105.255 8.56391 103.72C8.28017 102.657 8.04371 101.712 7.97278 100.956C7.12154 93.5859 11.4013 87.9166 20.954 81.4441C27.4092 77.074 40.2959 71.3338 52.8989 67.3889C65.5728 63.444 70.4201 65.6409 74.0378 72.3732Z" fill="#DEE1EE"/>
<path d="M59.094 92.3811C56.9895 94.5308 54.8378 96.515 52.6624 98.3103C52.3314 95.452 51.9767 92.6174 51.5984 89.7827C53.9866 88.1055 55.1688 87.2551 57.5334 85.6016C58.1008 87.8457 58.621 90.1134 59.094 92.3811Z" fill="#1391EE"/>
<path d="M60.0633 85.0127C60.0869 85.1071 60.1106 85.2253 60.1106 85.367C60.087 86.0757 59.6377 86.9969 59.4012 87.6583C58.881 89.1229 58.1953 90.5166 57.415 91.8631C56.9894 92.5954 56.4692 93.3513 55.6653 93.6584C54.7904 94.0127 53.75 93.7529 52.9224 93.2804C51.9766 92.7371 50.2268 91.9576 50.4396 90.7765C50.6288 89.7371 50.9835 88.6977 51.3382 87.7056C52.0239 85.6741 52.9697 83.1701 54.8377 81.9182C56.9421 80.5244 58.4318 82.6032 59.5431 84.1623C59.8032 84.5166 59.9924 84.7292 60.0633 85.0127Z" fill="#3064C7"/>
<path d="M33.3913 74.6884C32.9421 88.9326 59.6849 89.1688 59.2829 75.775C58.7391 57.1135 57.6041 54.9638 48.8081 52.0819C46.3962 51.2788 43.8662 50.6882 41.3362 50.641C32.0436 50.4756 35.6376 55.1764 35.9923 58.4599C37.0327 68.2159 33.5569 69.5624 33.3913 74.6884Z" fill="#E5A07D"/>
<path d="M33.3914 74.6896C33.5569 69.5636 37.0328 68.2171 35.9924 58.4612C35.6377 55.1777 32.0436 50.4532 41.3362 50.6422C43.8899 50.6895 46.3963 51.3036 48.8081 52.0832C57.4859 54.9415 58.7155 57.0675 59.2594 75.0203C51.8584 74.3117 45.3323 66.162 37.7894 71.0046C35.7796 72.5164 34.4318 74.4534 33.486 76.5794C33.415 75.9652 33.3678 75.351 33.3914 74.6896Z" fill="#E5A07D"/>
<path d="M37.813 70.9795C45.3558 66.137 51.8819 74.2867 59.2829 74.9953C59.2829 75.2552 59.3065 75.4914 59.3065 75.7512C59.6612 88.5308 35.3775 88.8852 33.5095 76.5544C34.4317 74.4284 35.8031 72.4914 37.813 70.9795Z" fill="#E5A07D"/>
<path d="M54.9087 83.4522C55.3816 84.964 57.3915 85.5074 58.7156 86.3814C59.3067 86.7593 60.3235 87.5152 61.0801 87.3735C61.8604 87.2082 62.3097 86.1924 62.5698 85.5546C64.4614 80.9719 65.5255 75.9403 65.5964 70.9797C65.6201 69.397 65.36 67.6489 64.1067 66.5387C62.9954 65.5466 61.0802 65.334 59.7324 65.9245C58.2664 66.5623 57.9117 69.4442 58.4319 70.7671C60.3235 75.5388 58.1954 81.0191 54.9087 83.4522Z" fill="#B4BCDF"/>
<path d="M55.1214 83.5235C55.1214 83.5235 52.8042 87.185 49.9667 89.7126C49.2574 90.3267 48.6899 91.1063 47.7677 90.7992C43.1805 89.3346 33.5096 81.2322 31.5943 76.0825C30.9086 74.24 32.2327 71.925 33.2968 70.4841C33.4859 70.2242 34.9756 68.2163 35.2357 68.0273C35.4248 68.3108 36.4179 71.9959 38.0258 74.3581C41.7618 79.8385 48.5244 82.6259 55.1214 83.5235Z" fill="#B4BCDF"/>
<path d="M25.754 110.429C21.285 110.641 17.1234 109.744 13.4584 107.618C11.6377 106.578 10.0299 105.255 8.58749 103.72C6.55399 101.523 4.94611 98.901 3.71655 95.8774C3.88207 95.5466 4.07122 95.2159 4.26039 94.8852C6.34118 91.1765 9.41509 88.7198 13.222 86.3576C14.9481 85.2946 17.0762 84.2789 19.1333 84.8694C21.0013 85.4127 22.1363 87.0899 22.9166 88.6726C26.3215 95.4522 26.8653 103.106 25.754 110.429Z" fill="#B4BCDF"/>
<path d="M68.4813 29.9467C70.3256 32.8995 71.4133 36.3011 71.366 39.9389C71.3424 41.498 71.0823 43.057 70.5621 44.5216C70.0655 45.9153 69.1906 47.2382 69.167 48.75C69.1433 50.5216 70.4438 52.5295 71.0113 54.2067C71.5315 55.7185 71.8389 57.4193 71.2242 58.9075C70.8695 59.7579 70.2783 60.4902 69.7818 61.2461C67.4173 64.9548 69.6399 70.4115 65.5256 73.0808C64.5089 73.7423 63.2793 73.884 62.0734 73.9312C60.5601 74.0021 53.703 72.0887 51.031 70.9312C48.099 69.632 45.2379 66.3013 43.1335 63.8918C41.4783 62.002 38.6882 59.5926 37.6478 57.3248C37.3168 56.6398 38.0971 56.4981 37.3877 56.1674C36.9621 55.9548 36.4419 53.2382 35.969 53.1909C35.4015 53.1201 34.6448 52.5059 34.1719 52.1752C33.2498 51.561 32.8241 53.7815 32.5167 52.7185C31.2399 48.2067 29.6084 43.6003 29.7975 38.8523C29.963 34.5058 29.8685 30.7499 32.6823 27.0412C34.7867 24.2537 37.8133 22.2222 41.0764 20.9939C46.0655 19.1041 51.7168 19.0096 56.7769 20.7104C61.5769 22.3876 65.833 25.6947 68.4813 29.9467Z" fill="#F1BCA4"/>
<path d="M29.821 38.8748C29.9865 34.5283 29.8919 30.7724 32.7057 27.0637C34.8101 24.2762 37.8367 22.2447 41.0998 21.0164C44.0791 19.8825 47.2949 19.4101 50.4634 19.5518C55.2161 29.0479 48.3353 41.237 53.5136 51.0874C55.2634 53.4024 58.7156 55.1269 58.7156 58.0324C59.8742 63.2293 54.6722 67.8592 57.5333 73.0561C55.1451 72.4183 52.4969 71.5679 51.0545 70.9301C48.1225 69.6309 45.2614 66.3002 43.1569 63.8907C41.5018 62.0009 38.7116 59.5914 37.6712 57.3237C37.3402 56.6387 38.1205 56.4969 37.4111 56.1662C36.9855 55.9536 36.4653 53.2371 35.9924 53.1898C35.4249 53.119 34.6683 52.5048 34.1717 52.1741C33.2496 51.5599 32.8239 53.7804 32.5165 52.7174C31.2633 48.2528 29.6318 43.6465 29.821 38.8748Z" fill="#F1BCA4"/>
<path d="M51.8348 36.7506C50.2979 36.7034 47.3422 36.3727 46.2545 37.7664C44.7649 39.7034 45.9235 42.4436 46.3254 44.5696C46.8693 47.5224 47.2713 50.4988 47.7205 53.4752C47.8151 54.0893 47.9097 54.7744 47.6259 55.3413C47.2476 56.1445 46.2072 56.4752 45.3323 56.3098C44.4575 56.1445 43.7008 55.6012 42.9914 55.0578C41.7855 54.113 40.6505 53.0736 39.5392 52.0106C38.6171 51.1129 37.624 50.168 36.4654 51.3255C35.1885 52.5539 35.2831 55.2941 35.7087 56.8768C35.7796 57.1602 36.3708 59.239 35.5195 59.239C34.6683 59.239 27.0782 51.4673 26.7471 38.2152C26.4161 25.5065 35.2358 23.1442 35.2358 23.1442C35.2358 23.1442 39.1136 16.5773 49.352 17.0497C59.7323 17.5458 69.3323 21.4671 74.8417 30.7506C73.8959 33.916 70.8929 36.1601 67.7008 37.0341C64.5087 37.9081 61.1038 37.6483 57.8171 37.294C55.8545 37.0814 53.8447 36.8215 51.8348 36.7506Z" fill="#1B151E"/>
<path d="M36.7964 47.6393C33.0131 47.3794 32.0673 52.0566 34.6446 55.6945C35.4013 56.7575 36.7491 57.6787 37.7185 58.5291C44.4811 64.293 46.1835 58.0567 44.0318 56.096C39.0663 51.5369 41.5491 47.97 36.7964 47.6393Z" fill="#F1BCA4"/>
<path d="M39.0662 56.5921C38.6406 56.1905 34.3372 53.6629 37.2692 51.9385C38.0731 51.4661 38.9953 52.1747 39.1135 53.0251C39.1845 53.4739 39.0426 53.9228 39.1135 54.3716C39.1608 54.6314 39.2554 54.8913 39.3973 55.1039C39.7756 55.7181 41.0761 56.3322 40.8396 57.2299C40.6032 58.033 39.3263 56.8047 39.0662 56.5921Z" fill="#E5A07D"/>
<path d="M59.7086 69.631C58.1717 69.1585 56.7293 68.4263 55.3816 67.5759C52.9225 66.064 51.3145 65.4262 49.3283 61.7412C48.4771 60.1585 47.8387 55.9065 47.6259 52.7411C47.484 50.5679 43.9609 46.4812 42.4003 45.6072C40.5796 44.5914 40.7924 50.8513 40.9343 51.749C41.7619 56.9459 41.6673 56.9459 42.2821 59.8041C42.9205 62.8042 42.5421 61.2923 43.2752 64.2451C43.7008 65.8987 45.7343 69.6782 46.3963 71.2373C47.1294 72.9853 48.0988 74.6153 49.2811 76.1035C51.5747 78.9854 54.6013 80.946 58.0771 82.2216C61.1983 83.3791 65.0998 83.7334 67.2042 80.6389C68.4101 78.8673 69.0249 76.7413 69.0249 74.6153C69.0249 72.8908 68.6229 71.0247 68.15 69.3711C67.1569 70.2688 66.2111 70.2215 64.8869 70.2924C63.1135 70.3869 61.3638 70.1507 59.7086 69.631Z" fill="#1B151E"/>
<path d="M63.8467 63.2789C62.7354 64.3891 61.9788 65.8064 60.9148 66.9639C59.9453 67.9797 58.7157 68.7592 57.3916 69.1844C57.7463 69.8695 58.4793 70.2474 59.2123 70.3891C60.2763 70.6017 61.4113 70.3655 62.3098 69.7513C63.6576 68.8064 64.3433 67.1293 65.6438 66.1371C66.164 65.7356 66.7788 65.4757 67.3463 65.145C67.9138 64.8143 68.4576 64.4127 68.765 63.8222C69.498 62.4757 68.5285 62.0032 67.3699 61.8615C66.0221 61.7198 64.7453 62.3576 63.8467 63.2789Z" fill="#1B151E"/>
</svg>
