<svg width="86" height="111" viewBox="0 0 86 111" fill="none" xmlns="http://www.w3.org/2000/svg">
<path d="M76.2455 67.7225C75.6307 68.9509 74.9687 70.2029 74.283 71.4312C73.9992 71.9037 73.7391 72.3997 73.4553 72.8958C70.0031 78.8722 66.1017 84.2817 61.9401 89.0061C61.3017 89.7384 60.6396 90.4471 60.0012 91.1321C57.9677 93.329 55.8632 95.3369 53.7115 97.203C44.7026 105.022 35.079 109.723 26.4485 110.431C23.28 110.691 20.2534 110.408 17.4396 109.534C15.9499 109.085 14.5076 108.447 13.1361 107.668C9.8258 105.754 7.20117 103.014 5.21497 99.6125C-2.84809 85.8172 -0.223462 61.2028 13.1361 38.0767C29.8061 9.25759 56.809 -6.33306 73.479 3.28118C89.1322 12.3521 90.0544 40.4389 76.2455 67.7225Z" fill="#1391EE"/>
<path d="M76.2456 67.7212C75.6308 68.9495 74.9688 70.2015 74.2831 71.4298C73.9993 71.9023 73.7392 72.3983 73.4555 72.8944C70.0033 78.8708 66.1018 84.2803 61.9402 89.0047C60.6634 85.2252 59.9304 81.2094 59.8831 77.1936C59.8358 73.0598 61.1363 69.5873 63.0752 65.855C63.9501 64.1542 65.1796 62.3589 67.0713 61.9573C68.7974 61.603 70.4762 62.5715 71.824 63.6109C73.4318 64.8392 74.9215 66.2093 76.2456 67.7212Z" fill="#B4BCDF"/>
<path d="M74.2831 71.4307C73.9994 71.9032 73.7392 72.3992 73.4555 72.8953C58.157 99.3522 34.1333 114.659 17.4161 109.557C17.1087 108.447 16.7777 107.313 16.4467 106.155C15.3353 102.092 12.8762 95.9742 12.5452 93.0687C11.7885 86.4072 15.6427 81.2576 24.2969 75.3993C30.1373 71.4307 41.8181 66.2339 53.2388 62.6669C67.0476 58.344 70.5944 62.1 74.2831 71.4307Z" fill="#DEE1EE"/>
<path d="M60.0012 91.1563C57.9677 93.3532 55.8633 95.3611 53.7115 97.2272C53.2386 92.4083 52.6711 87.6602 52.0327 82.9358C54.2081 81.424 55.2721 80.6681 57.4002 79.1562C58.417 83.1484 59.2682 87.1642 60.0012 91.1563Z" fill="#1391EE"/>
<path d="M59.7175 78.613C59.7411 78.7075 59.7648 78.8019 59.7411 78.9437C59.7175 79.6051 59.3155 80.4082 59.1027 81.0224C58.6298 82.3453 58.015 83.6209 57.3057 84.8256C56.9037 85.487 56.4308 86.1721 55.7214 86.4555C54.9175 86.7863 53.9953 86.55 53.2387 86.1248C52.3874 85.6524 50.8032 84.9201 50.9923 83.8571C51.1579 82.9122 51.4889 81.9673 51.7963 81.0697C52.4347 79.2271 53.2859 76.9594 54.9648 75.8255C56.88 74.5736 58.2278 76.4633 59.2446 77.8571C59.481 78.1641 59.6465 78.3531 59.7175 78.613Z" fill="#3064C7"/>
<path d="M35.5521 69.2589C35.1501 82.1566 59.3629 82.3693 59.0082 70.2511C58.5117 53.3612 57.4949 51.4242 49.5265 48.8021C47.3511 48.0934 45.0575 47.5265 42.7402 47.4793C34.3225 47.3139 37.5856 51.5895 37.893 54.5659C38.8624 63.4006 35.7176 64.6053 35.5521 69.2589Z" fill="#E5A07D"/>
<path d="M35.552 69.2589C35.6939 64.629 38.8387 63.4006 37.9165 54.5659C37.6091 51.5895 34.3461 47.3139 42.7638 47.4793C45.0811 47.5265 47.351 48.0698 49.55 48.8021C57.4003 51.3769 58.5116 53.3139 59.0082 69.566C52.3165 68.9282 46.3816 61.5345 39.5717 65.9282C37.751 67.2983 36.5215 69.0463 35.6702 70.9834C35.5757 70.4164 35.552 69.8495 35.552 69.2589Z" fill="#E5A07D"/>
<path d="M39.548 65.9044C46.3815 61.5107 52.2928 68.9044 58.9844 69.5422C58.9844 69.7785 59.0081 69.9911 59.0081 70.2273C59.3391 81.8022 37.3253 82.1329 35.6465 70.9596C36.4977 69.0226 37.7273 67.2745 39.548 65.9044Z" fill="#E5A07D"/>
<path d="M55.0593 77.1951C55.4849 78.5652 57.3056 79.0613 58.5115 79.8644C59.0317 80.2188 59.9539 80.9038 60.6633 80.7621C61.3726 80.6203 61.7746 79.6991 62.0111 79.1085C63.7135 74.951 64.7066 70.4155 64.7539 65.9037C64.7775 64.4864 64.5411 62.88 63.4061 61.8879C62.413 60.9903 60.6633 60.8013 59.4337 61.321C58.1096 61.8879 57.7785 64.51 58.2514 65.7147C59.9539 70.014 58.015 74.9982 55.0593 77.1951Z" fill="#B4BCDF"/>
<path d="M55.2486 77.2699C55.2486 77.2699 53.1442 80.6006 50.5905 82.8683C49.952 83.4353 49.4318 84.1203 48.5806 83.8605C44.419 82.5376 35.6703 75.1911 33.9205 70.5375C33.2821 68.8604 34.5116 66.7816 35.4575 65.4588C35.623 65.2226 36.9708 63.4036 37.2309 63.2383C37.3964 63.4981 38.2949 66.8289 39.7609 68.9785C43.1422 73.9391 49.2663 76.4431 55.2486 77.2699Z" fill="#B4BCDF"/>
<path d="M26.685 109.675C26.6141 109.935 26.5195 110.195 26.4249 110.431C23.2564 110.691 20.2298 110.408 17.416 109.534C15.9264 109.085 14.484 108.447 13.1126 107.667C9.80224 105.754 7.17761 103.014 5.19141 99.6122C5.26234 99.1397 5.35692 98.6673 5.42786 98.1712C6.04263 94.4862 7.29584 90.8484 9.16382 87.5412C11.0318 84.1869 13.8219 81.9664 17.2742 79.8168C18.8348 78.8483 20.7737 77.927 22.618 78.4703C24.3205 78.9664 25.3372 80.4782 26.0466 81.9191C30.4446 90.6121 29.617 100.935 26.685 109.675Z" fill="#B4BCDF"/>
<path d="M67.355 28.7223C69.0338 31.3917 70.0032 34.4862 69.9796 37.7697C69.9559 39.187 69.7431 40.5807 69.2702 41.9271C68.821 43.1791 68.017 44.3839 68.017 45.7539C67.9934 47.3603 69.1756 49.1792 69.6958 50.691C70.1687 52.0611 70.4288 53.6201 69.885 54.9666C69.5776 55.7461 69.0101 56.3839 68.5609 57.0926C66.4328 60.447 68.4426 65.4076 64.7067 67.8171C63.7845 68.4076 62.6732 68.5257 61.5855 68.5966C60.2141 68.6675 53.9953 66.9194 51.6072 65.8801C48.9589 64.699 46.3579 61.6989 44.4426 59.5257C42.953 57.8249 40.4229 55.628 39.4771 53.5965C39.1934 52.9587 39.8791 52.8642 39.2407 52.5335C38.8623 52.3445 38.3894 49.8642 37.9638 49.8406C37.4436 49.7934 36.7579 49.2264 36.3323 48.9429C35.5047 48.376 35.1027 50.4075 34.819 49.439C33.6604 45.3524 32.1707 41.1949 32.3599 36.872C32.5254 32.9271 32.4308 29.5491 34.9845 26.1948C36.8998 23.6672 39.619 21.8483 42.5746 20.7144C47.0909 18.99 52.1983 18.8955 56.7855 20.4546C61.0889 21.8955 64.9431 24.8956 67.355 28.7223Z" fill="#F1BCA4"/>
<path d="M32.3362 36.8243C32.5017 32.8794 32.4071 29.5015 34.9608 26.1471C36.8761 23.6195 39.5953 21.8006 42.551 20.6668C45.2465 19.651 48.1549 19.2022 51.0396 19.3439C55.3431 27.9424 49.1007 38.974 53.8061 47.9032C55.3904 50.0055 58.5352 51.5646 58.5352 54.1867C59.5756 58.8875 54.8938 63.0686 57.4712 67.7931C55.3194 67.2261 52.9076 66.4466 51.6071 65.8797C48.9588 64.6986 46.3579 61.6985 44.4426 59.5253C42.9529 57.8245 40.4229 55.6276 39.4771 53.5961C39.1933 52.9583 39.8791 52.8638 39.2406 52.5331C38.8623 52.3441 38.3894 49.8638 37.9638 49.8402C37.4436 49.7929 36.7579 49.226 36.3322 48.9425C35.5047 48.3756 35.1027 50.4071 34.8189 49.4386C33.6367 45.3047 32.147 41.1472 32.3362 36.8243Z" fill="#F1BCA4"/>
<path d="M52.3637 32.3608C51.2524 32.1719 50.1174 32.2191 49.1007 32.6679C47.3746 33.4474 46.3342 35.3372 46.0504 37.2034C45.4357 41.3373 46.878 45.4712 46.9963 49.5814C47.0199 50.1956 46.9726 50.8334 46.6652 51.3767C45.8376 52.8413 44.277 52.0381 43.4022 51.1169C42.8347 50.5263 42.4091 49.8176 41.8652 49.2035C41.3214 48.5893 40.6593 48.046 39.8554 47.9043C38.5785 47.668 37.5854 48.6838 37.3726 49.8649C37.1835 50.9515 37.3963 52.0381 37.68 53.0775C37.7509 53.3374 38.2948 55.2271 37.5145 55.2271C36.7342 55.2271 29.877 48.1877 29.5697 36.1876C29.2859 24.6836 37.2544 22.534 37.2544 22.534C37.2544 22.534 40.7775 16.5812 50.0465 17.03C54.9174 17.2662 59.6938 18.8489 63.8081 21.4237C63.9736 21.5182 64.1391 21.6363 64.3046 21.7308C66.3145 23.0301 68.2061 24.5655 69.4829 26.5734C73.0534 32.0774 68.2534 36.4711 62.4839 35.5498C59.7647 35.1246 57.2583 33.849 54.6573 32.9514C53.9243 32.7152 53.144 32.5026 52.3637 32.3608Z" fill="#1B151E"/>
<path d="M38.6259 44.7614C35.1973 44.5252 34.3461 48.7772 36.687 52.037C37.3727 52.9819 38.5786 53.8323 39.4771 54.6119C45.6012 59.8324 47.1382 54.1867 45.1993 52.415C40.683 48.3047 42.9293 45.0685 38.6259 44.7614Z" fill="#F1BCA4"/>
<path d="M40.7066 52.8645C40.3047 52.5101 36.4268 50.2188 39.0751 48.6361C39.8081 48.2109 40.6357 48.8487 40.7539 49.6282C40.8012 50.0298 40.683 50.455 40.7539 50.8566C40.7776 51.0928 40.8958 51.329 41.014 51.518C41.3687 52.0849 42.551 52.6283 42.3145 53.455C42.0781 54.1637 40.9194 53.0771 40.7066 52.8645Z" fill="#E5A07D"/>
</svg>
