<svg width="87" height="111" viewBox="0 0 87 111" fill="none" xmlns="http://www.w3.org/2000/svg">
<path d="M75.4642 69.0543C74.8495 70.2117 74.211 71.3692 73.549 72.5267C73.4544 72.6921 73.3362 72.8811 73.2416 73.0464C70.9007 77.0386 68.347 80.7945 65.6514 84.2433C64.1854 86.1331 62.6721 87.952 61.1115 89.6528C61.0406 89.7237 60.9696 89.8182 60.8987 89.889C60.3312 90.5268 59.7401 91.141 59.1726 91.7315C55.5549 95.4875 51.7716 98.7474 47.9411 101.417C41.4859 105.952 34.8652 108.858 28.6938 109.803C26.8967 110.086 25.1233 110.181 23.4209 110.133C19.7558 110.015 16.3036 109.094 13.2297 107.322C11.409 106.259 9.77751 104.96 8.35879 103.401C-3.22742 90.9048 -1.5959 63.3849 13.2297 37.7076C29.876 8.88847 56.9027 -6.7022 73.549 2.91204C89.5332 12.1719 90.1716 41.2509 75.4642 69.0543Z" fill="#E6E7F8"/>
<path d="M75.4643 69.0572C74.8495 70.2147 74.2111 71.3722 73.549 72.5297C73.4544 72.695 73.3362 72.884 73.2416 73.0494C69.6003 79.2384 65.5096 84.8368 61.1352 89.6558C58.5579 78.388 55.1293 63.7186 53.7106 60.9076C51.5352 56.6556 59.1017 66.0572 63.4761 64.4036C66.6209 63.1989 70.5934 63.7186 73.0288 66.0808C73.9273 66.9784 74.7313 67.9942 75.4643 69.0572Z" fill="#8F9AD2"/>
<path d="M38.01 68.0388C38.01 68.0388 60.1893 79.1885 59.1253 66.8814C57.6356 49.7316 56.548 47.8182 48.8632 45.5977C46.7588 44.9835 45.9312 43.2119 43.7322 43.3064C35.7637 43.6371 39.0977 47.7709 39.5942 50.7946C41.0366 59.7238 37.8681 63.3144 38.01 68.0388Z" fill="#E5A07D"/>
<path d="M65.6515 64.2827V84.2671C64.1855 86.1569 62.6722 87.9757 61.1116 89.6765C56.9028 94.3301 52.4574 98.275 47.9175 101.44H29.9944L32.3826 66.1961C37.1353 64.0465 38.0102 63.1724 42.9757 62.0386C43.7796 61.8496 46.4988 62.889 47.3028 62.7236C53.356 61.448 59.8111 61.7315 65.4387 64.1882C65.5333 64.2118 65.5806 64.2354 65.6515 64.2827Z" fill="#E5A07D"/>
<path d="M36.6386 72.1252C35.149 70.9441 31.5312 66.5031 31.5312 66.5031C32.9263 65.8653 34.0613 65.322 35.1017 64.8259C37.7973 69.196 46.2623 75.4323 54.5145 74.3929C58.3687 73.8968 59.6219 69.7629 63.0032 63.3613C63.8308 63.6212 64.6584 63.8338 65.4623 64.1881C65.5332 64.2117 65.5805 64.259 65.6515 64.2826C65.6515 64.2826 61.3953 72.6449 59.0071 75.0307C52.883 81.1489 41.0603 75.6213 36.6386 72.1252Z" fill="#DEE1EE"/>
<path d="M58.0612 61.3999C58.1558 61.3999 58.2504 61.3998 58.3686 61.4235C57.4701 61.14 56.9735 61.3762 58.0612 61.3999Z" fill="#B4BCDF"/>
<path d="M73.2416 73.0442C59.6691 96.2176 39.4287 110.698 23.4208 110.131C22.6642 108.336 22.0021 106.611 20.9381 104.887C19.6139 102.714 18.5026 100.517 17.1548 98.3672C15.878 96.312 14.743 94.1861 14.1992 91.8475C13.7499 89.8632 13.2061 87.8789 13.1115 85.8002C13.0878 85.0679 13.0878 84.3592 13.1351 83.6742C13.3952 79.7293 14.9558 76.7056 18.4317 74.1308C22.5223 71.1308 27.2041 69.1229 31.5075 66.5008C34.9361 76.5875 45.3874 80.7687 53.0012 78.1938C53.947 77.8867 54.8218 77.4379 55.6021 76.8001C58.6287 74.556 61.3716 72.3828 61.0169 65.4379C60.875 62.6977 59.3617 61.7055 58.3214 61.3984C68.8199 61.7764 71.5391 66.7371 73.2416 73.0442Z" fill="#B4BCDF"/>
<path d="M60.9223 89.8886C60.3548 90.5264 59.7637 91.1406 59.1962 91.7311C57.6829 86.7232 55.7676 81.8571 54.3962 76.8019C54.2307 76.2114 55.0346 75.9043 55.3657 76.4003C57.8248 80.4634 59.5509 85.1642 60.9223 89.8886Z" fill="#DEE1EE"/>
<path d="M61.1824 63.9495C61.277 66.9023 60.1893 70.9417 58.5814 73.422C57.8011 74.6031 55.2238 75.6425 53.8997 76.1622C54.6327 76.9417 58.9598 79.989 59.9292 80.5087C61.6317 81.4536 63.2869 81.8788 64.9893 80.7213C67.2593 79.1623 68.8908 74.2488 64.9893 67.1385C64.5637 66.3354 64.0435 65.6031 63.3814 64.9889C63.074 64.7055 62.743 64.422 62.3647 64.233C62.2701 64.1621 61.1824 63.855 61.1824 63.9495Z" fill="#DEE1EE"/>
<path d="M33.2337 66.456C33.0209 66.4324 32.8553 66.5033 32.7371 66.6686C32.6898 67.6608 34.2268 65.6293 34.9361 66.1017C37.277 67.6372 38.743 72.2199 42.7864 74.6293C48.6268 78.1254 54.0416 76.1175 54.5618 75.9049C54.7746 78.6451 54.9637 84.7869 52.6465 85.9444C47.1371 88.7082 38.1519 84.5506 34.8888 80.9601C33.1391 79.0231 31.8859 77.6293 30.7036 75.3144C29.9943 73.9679 29.0721 72.4325 29.3086 70.8498C29.4031 70.2356 30.5618 67.2592 31.5312 66.5269L33.2337 66.456Z" fill="#DEE1EE"/>
<path d="M25.6436 47.2303C25.5964 45.5058 25.6673 43.7814 25.8801 42.0806C26.353 38.4428 27.6771 30.7892 31.555 26.7734C33.4702 26.9624 33.7776 32.6317 35.6456 33.0097C37.419 33.3877 38.9796 34.5688 40.5875 35.3955C41.5806 35.9152 43.2358 36.4113 43.6614 37.5452C44.5126 39.6948 41.5333 43.2853 40.6584 45.2224C38.7195 49.4744 38.5303 54.3169 38.7668 58.8996C39.0269 63.7894 40.6821 68.632 43.5432 72.6241C45.7658 75.7186 48.6742 78.2934 50.7077 81.5061C53.7816 86.3486 54.7037 92.514 53.1432 98.0416C51.488 95.1833 49.7855 92.2778 47.3737 90.0101C44.2052 87.0337 40.02 85.3329 36.7333 82.451C33.6594 79.758 31.5313 76.1438 30.0653 72.3407C27.6771 66.1753 26.684 59.5847 26.022 53.0177C25.8564 51.1279 25.6909 49.1909 25.6436 47.2303Z" fill="#322A36"/>
<path d="M46.617 56.8453C45.9786 56.302 45.3402 55.7587 44.7254 55.1917C42.5973 53.2311 40.1855 50.9397 38.6958 48.4594C33.9431 40.4515 33.6594 29.727 40.3746 22.7112C45.1273 17.7269 52.7175 15.6718 59.3382 17.5143C61.1352 18.0104 62.8377 18.7663 64.5165 19.6167C65.9589 20.349 67.3776 21.1521 68.4653 22.3332C69.1746 23.1128 69.7421 24.0104 70.2387 24.9553C71.1608 26.6089 71.6338 28.2624 72.1539 30.0813C72.4377 31.0735 72.3431 32.1365 72.3431 33.1522C72.3431 34.9711 72.2249 36.7428 71.8702 38.5144C71.5865 39.979 71.3737 41.4672 71.35 42.9554C71.3027 44.4673 72.0594 45.7665 72.5323 47.1602C72.816 48.0342 73.3362 49.3571 73.0761 50.2311C72.7924 51.176 71.7756 51.9319 71.3027 52.8059C70.7825 53.7272 70.6407 54.4122 70.5934 55.4988C70.5697 56.1839 70.3333 56.6327 70.0732 57.2469C69.8367 57.7666 69.9786 58.1445 69.884 58.6642C69.7894 59.2784 69.3165 59.7981 69.1037 60.365C68.8672 61.0028 68.6544 61.617 68.3234 62.2312C66.3372 65.7981 63.4761 66.0343 59.9057 64.6406C55.0584 62.7981 50.5658 60.1524 46.617 56.8453Z" fill="#F1BCA4"/>
<path d="M30.5383 32.5598C30.8457 22.4495 33.825 20.725 37.6556 17.4888C41.3679 14.3471 46.3807 12.9297 51.2043 13.0478C56.1462 13.1896 60.9935 14.8431 65.1787 17.4416C65.3442 17.536 65.5098 17.6542 65.6753 17.7487C67.8507 19.1424 69.7659 20.7487 70.9246 23.0873C71.9649 25.166 72.3906 27.2684 72.5797 29.5598C72.627 30.0086 72.6507 30.5046 72.4142 30.9062C72.1778 31.3078 71.7048 31.4968 71.2556 31.6149C67.7088 32.7251 63.3817 31.9692 60.5679 29.5361C60.2605 32.0637 58.3925 34.0952 56.6191 35.9614C54.7748 37.8984 52.4576 39.7645 50.8733 41.9378C49.8093 43.3787 49.4309 44.8669 47.8231 45.9536C46.3571 46.9221 45.3403 47.0166 43.7561 46.3079C42.3373 45.6701 40.895 44.5835 39.3344 45.552C37.892 46.4496 38.4595 48.3158 38.7906 49.6622C38.8615 49.9221 39.429 51.8355 38.625 51.8355C37.892 51.8119 30.16 44.7016 30.5383 32.5598Z" fill="#39313E"/>
<path d="M30.5383 32.5616C30.7275 26.6324 31.8152 23.5852 33.4703 21.4355C33.4703 21.4355 38.1048 23.1836 42.2191 26.0891C46.0733 28.8057 50.3295 33.6955 50.3295 33.6955C49.9984 35.1837 50.8024 36.6482 51.1334 38.1364C51.3935 39.2939 50.8496 38.7034 50.5186 39.8372L46.0969 43.7113L43.9452 46.3333C43.8979 46.3097 43.827 46.2861 43.7797 46.2625C42.361 45.6247 40.9186 44.5381 39.358 45.5066C37.9157 46.4042 39.0506 48.9081 39.3817 50.2546C39.4526 50.5145 40.0201 53.4436 40.0201 53.4436C39.2634 53.4672 30.16 44.7034 30.5383 32.5616Z" fill="#39313E"/>
<path d="M40.2093 41.7264C36.7571 41.5138 35.9058 45.7894 38.294 49.0965C38.9797 50.065 40.2093 50.9154 41.1315 51.6714C47.3265 56.9155 48.8635 51.1989 46.9009 49.4272C42.2901 45.2697 44.56 42.0098 40.2093 41.7264Z" fill="#F1BCA4"/>
<path d="M42.4555 49.5441C42.0536 49.1898 38.1285 46.8748 40.8004 45.2921C41.5334 44.8433 42.361 45.5047 42.4792 46.2842C42.5501 46.6858 42.4083 47.111 42.4792 47.5126C42.5265 47.7488 42.6211 47.985 42.7393 48.1976C43.094 48.7646 44.2762 49.3079 44.0634 50.1346C43.8506 50.8669 42.692 49.7567 42.4555 49.5441Z" fill="#E5A07D"/>
<path d="M29.2614 106.306C29.0722 107.463 28.883 108.645 28.6939 109.826C26.8968 110.109 25.1234 110.204 23.421 110.156C19.7559 110.038 16.3037 109.117 13.2298 107.345C11.4091 106.282 9.77761 104.983 8.35889 103.424C8.57169 99.5264 8.83179 95.6287 9.23376 91.7311C9.61209 88.046 9.89583 84.1011 11.1017 80.5814C11.2436 80.1562 11.4328 79.7783 11.6456 79.4239C13.1116 76.8963 16.0909 75.7861 19.0466 76.8255C21.8604 77.8176 23.8939 80.2743 25.3835 82.8255C29.4505 89.8177 30.5146 98.4162 29.2614 106.306Z" fill="#DEE1EE"/>
</svg>
