<svg width="20" height="20" viewBox="0 0 20 20" fill="none" xmlns="http://www.w3.org/2000/svg">
<path d="M8.87658 4.59844L9.04092 4.57324C9.35853 4.52456 9.67941 4.50034 10.0007 4.50081M8.87658 4.59844L10 5.00081M8.87658 4.59844L8.72359 4.62189L8.61668 4.63827V4.77259V5.03305C8.64447 5.04606 8.67297 5.05755 8.70204 5.06747C8.72987 5.07697 8.75822 5.08502 8.78699 5.09159C8.80237 5.09509 8.81783 5.09817 8.83334 5.10081H9.11668L9.11101 5.06747L9.03288 4.60788C8.98818 4.61548 8.94242 4.6142 8.89821 4.60411C8.89093 4.60245 8.88372 4.60056 8.87658 4.59844ZM10.0007 4.50081L10 5.00081M10.0007 4.50081C10.0005 4.50081 10.0003 4.50081 10 4.50081V5.00081M10.0007 4.50081C12.9063 4.50115 15.5422 6.58557 17.0444 9.78849L17.1442 10.0013L17.044 10.214C16.8135 10.703 16.5531 11.1774 16.2644 11.6345L16.2617 11.6388L16.2617 11.6388C16.2265 11.6932 16.208 11.7567 16.2083 11.8214M10 5.00081C12.65 5.00081 15.1417 6.90914 16.5917 10.0008C16.3699 10.4713 16.1194 10.9277 15.8417 11.3675C15.7535 11.504 15.7071 11.6633 15.7083 11.8258M16.2083 11.8214C16.2083 11.8212 16.2083 11.8209 16.2083 11.8207L15.7083 11.8258M16.2083 11.8214C16.2083 11.8216 16.2083 11.8219 16.2083 11.8221L15.7083 11.8258M16.2083 11.8214C16.2092 11.8939 16.2337 11.9641 16.2781 12.0215C16.3227 12.079 16.3848 12.1203 16.4551 12.1392L16.3253 12.6221M15.7083 11.8258C15.7102 12.0077 15.7715 12.1839 15.8829 12.3277C15.9943 12.4715 16.1497 12.5748 16.3253 12.6221M16.3253 12.6221L16.4551 12.1392C16.5254 12.1581 16.5999 12.1535 16.6673 12.1261C16.7346 12.0986 16.7912 12.0499 16.8283 11.9874L16.8323 11.9806L16.8365 11.974C17.21 11.3872 17.5345 10.7705 17.8065 10.1303L17.8073 10.1283C17.8252 10.0867 17.8344 10.0419 17.8344 9.99664C17.8344 9.95136 17.8252 9.90656 17.8073 9.86497L8.83335 3.43414C9.21842 3.36564 9.6089 3.33217 10 3.33414C13.4167 3.33414 16.5833 5.75914 18.2667 9.66747C18.3114 9.77145 18.3344 9.88345 18.3344 9.99664C18.3344 10.1098 18.3114 10.2218 18.2667 10.3258C17.9839 10.9913 17.6466 11.6324 17.2583 12.2425C17.1656 12.3989 17.0241 12.5207 16.8557 12.5892C16.6872 12.6577 16.5009 12.6693 16.3253 12.6221ZM8.1179 10.0008H7.83334C7.83334 10.0018 7.83335 10.0027 7.83335 10.0037C7.83411 10.5773 8.0623 11.1272 8.46795 11.5329C8.8736 11.9385 9.42356 12.1667 9.99717 12.1675C10.1912 12.1694 10.3846 12.1433 10.5712 12.0898L11.3871 11.8558L10.7869 11.2556L8.74523 9.21392L8.14502 8.61371L8.12038 10.0033L8.1179 10.0008ZM8.1179 10.0008L8.03812 9.92103L8.39168 9.56747L8.1179 10.0008ZM4.83843 6.0277L5.20618 5.6737L4.84466 5.31335L2.2619 2.73892C2.26182 2.73884 2.26175 2.73877 2.26167 2.73869C2.19866 2.67556 2.16327 2.59001 2.16327 2.50081C2.16327 2.4115 2.19875 2.32584 2.2619 2.26269C2.29317 2.23142 2.33029 2.20662 2.37115 2.1897C2.412 2.17277 2.45579 2.16406 2.50001 2.16406C2.54423 2.16406 2.58802 2.17277 2.62888 2.1897C2.66973 2.20662 2.70686 2.23142 2.73813 2.26269L17.7381 17.2627L17.7396 17.2641C17.7708 17.2951 17.7956 17.332 17.8125 17.3726C17.8295 17.4132 17.8382 17.4568 17.8382 17.5008C17.8382 17.5448 17.8295 17.5884 17.8125 17.629C17.7956 17.6696 17.7708 17.7065 17.7396 17.7375L17.7367 17.7404C17.7057 17.7716 17.6688 17.7964 17.6282 17.8133C17.5876 17.8303 17.544 17.839 17.5 17.839C17.456 17.839 17.4124 17.8303 17.3718 17.8133C17.3312 17.7964 17.2943 17.7716 17.2633 17.7404L17.2624 17.7395L14.5624 15.0311L14.2735 14.7412L13.9322 14.9673C12.7651 15.7405 11.3983 16.1575 9.99835 16.1675C6.83599 16.1667 3.82045 13.9159 2.19257 10.1363L2.1916 10.1341C2.17325 10.0921 2.16377 10.0467 2.16377 10.0008C2.16377 9.95492 2.17325 9.90953 2.1916 9.86747L2.19162 9.86748L2.1933 9.86354C2.80852 8.42029 3.70812 7.11574 4.83843 6.0277ZM10 15.5008V15.5008L10.0057 15.5008C11.1458 15.4878 12.2627 15.1767 13.2453 14.5984L13.8057 14.2686L13.343 13.8117L12.018 12.5034L11.753 12.2417L11.4264 12.4206C10.8889 12.7151 10.2705 12.8274 9.66377 12.7406C9.05707 12.6538 8.49487 12.3727 8.0615 11.9393C7.62814 11.5059 7.34697 10.9437 7.26019 10.3371C7.17341 9.73036 7.28568 9.11188 7.58017 8.57439L7.75924 8.24757L7.49721 7.98258L6.02221 6.49091L5.67818 6.14299L5.32289 6.47941C4.32843 7.42108 3.52636 8.54696 2.96123 9.79449L2.8664 10.0038L2.96352 10.2121C4.45765 13.4163 7.09414 15.5008 10 15.5008Z" fill="black" stroke="#7E7D88"/>
</svg>
