<svg width="20" height="20" viewBox="0 0 20 20" fill="none" xmlns="http://www.w3.org/2000/svg">
<path d="M8.8764 4.59844L9.04074 4.57324C9.35835 4.52456 9.67923 4.50034 10.0006 4.50081M8.8764 4.59844L9.99983 5.00081M8.8764 4.59844C8.84019 4.58767 8.80594 4.57101 8.77505 4.54909C8.73806 4.52286 8.70661 4.4896 8.68248 4.4512C8.65835 4.41281 8.64202 4.37004 8.63442 4.32534C8.62682 4.28064 8.6281 4.23488 8.63819 4.19067C8.64828 4.14646 8.66697 4.10467 8.69321 4.06769C8.71944 4.0307 8.75271 3.99925 8.7911 3.97512C8.82949 3.951 8.87226 3.93467 8.91696 3.92707L8.91696 3.92708L8.92073 3.92641C9.27607 3.8632 9.6364 3.83231 9.99731 3.83414H9.99983C13.1627 3.83414 16.179 6.08489 17.8072 9.86497M8.8764 4.59844L9.99983 3.33414C13.4165 3.33414 16.5832 5.75914 18.2665 9.66747C18.3112 9.77145 18.3343 9.88345 18.3343 9.99664C18.3343 10.1098 18.3112 10.2218 18.2665 10.3258C17.9837 10.9913 17.6464 11.6324 17.2582 12.2425C17.1654 12.3989 17.024 12.5207 16.8555 12.5892C16.687 12.6577 16.5008 12.6693 16.3251 12.6221C16.1495 12.5748 15.9941 12.4715 15.8827 12.3277C15.7713 12.1839 15.71 12.0077 15.7082 11.8258M10.0006 4.50081L9.99983 5.00081M10.0006 4.50081C10.0003 4.50081 10.0001 4.50081 9.99983 4.50081V5.00081M10.0006 4.50081C12.9061 4.50115 15.542 6.58557 17.0442 9.78849L17.144 10.0013L17.0438 10.214C16.8133 10.703 16.5529 11.1774 16.2642 11.6345L16.2615 11.6388L16.2615 11.6388C16.2263 11.6932 16.2078 11.7566 16.2081 11.8214M9.99983 5.00081C12.6498 5.00081 15.1415 6.90914 16.5915 10.0008C16.3697 10.4713 16.1193 10.9277 15.8415 11.3675C15.7533 11.504 15.707 11.6633 15.7082 11.8258M16.2081 11.8214C16.2081 11.8212 16.2081 11.8209 16.2081 11.8207L15.7082 11.8258M16.2081 11.8214C16.2081 11.8216 16.2081 11.8219 16.2081 11.8221L15.7082 11.8258M16.2081 11.8214C16.209 11.8939 16.2335 11.9641 16.278 12.0215C16.3225 12.079 16.3847 12.1203 16.4549 12.1392C16.5252 12.1581 16.5997 12.1535 16.6671 12.1261C16.7344 12.0986 16.791 12.0499 16.8281 11.9874L16.8321 11.9806L16.8363 11.974C17.2098 11.3872 17.5343 10.7705 17.8063 10.1303L17.8071 10.1283C17.825 10.0867 17.8343 10.0419 17.8343 9.99664C17.8343 9.95136 17.825 9.90656 17.8072 9.86497M17.8072 9.86497C17.8072 9.86507 17.8072 9.86516 17.8073 9.86526L18.2662 9.66761L17.8072 9.86497ZM8.11772 10.0008H7.83316C7.83316 10.0018 7.83316 10.0027 7.83316 10.0037C7.83393 10.5773 8.06212 11.1272 8.46776 11.5329C8.87342 11.9385 9.42338 12.1667 9.99699 12.1675C10.1911 12.1694 10.3844 12.1433 10.571 12.0898L11.3869 11.8558L10.7867 11.2556L8.74505 9.21392L8.14484 8.61371L8.1202 10.0033L8.11772 10.0008ZM8.11772 10.0008L8.03794 9.92102L8.39149 9.56747L8.11772 10.0008ZM4.83825 6.0277L5.206 5.6737L4.84448 5.31335L2.26172 2.73892C2.26164 2.73885 2.26157 2.73878 2.2615 2.7387C2.19848 2.67557 2.16309 2.59001 2.16309 2.50081C2.16309 2.4115 2.19856 2.32584 2.26172 2.26269C2.29299 2.23142 2.33011 2.20662 2.37096 2.1897C2.41182 2.17277 2.45561 2.16406 2.49983 2.16406C2.54405 2.16406 2.58784 2.17277 2.62869 2.1897C2.66955 2.20662 2.70667 2.23142 2.73794 2.26269L17.7379 17.2627L17.7394 17.2641C17.7706 17.2951 17.7954 17.332 17.8124 17.3726C17.8293 17.4132 17.838 17.4568 17.838 17.5008C17.838 17.5448 17.8293 17.5884 17.8124 17.629C17.7954 17.6696 17.7706 17.7065 17.7394 17.7375L17.7365 17.7404C17.7055 17.7716 17.6686 17.7964 17.628 17.8133C17.5874 17.8303 17.5438 17.839 17.4998 17.839C17.4558 17.839 17.4123 17.8303 17.3716 17.8133C17.331 17.7964 17.2942 17.7716 17.2632 17.7404L17.2623 17.7395L14.5623 15.0311L14.2733 14.7412L13.932 14.9673C12.7649 15.7405 11.398 16.1575 9.99804 16.1675C6.83572 16.1666 3.82024 13.9159 2.19238 10.1363L2.19142 10.1341C2.17307 10.0921 2.16359 10.0467 2.16359 10.0008C2.16359 9.95492 2.17307 9.90953 2.19142 9.86747L2.19144 9.86748L2.19312 9.86354C2.80833 8.42029 3.70793 7.11574 4.83825 6.0277ZM9.99983 15.5008V15.5008L10.0055 15.5008C11.1456 15.4878 12.2625 15.1767 13.2451 14.5984L13.8055 14.2686L13.3428 13.8117L12.0178 12.5034L11.7528 12.2417L11.4262 12.4206C10.8888 12.7151 10.2703 12.8274 9.66358 12.7406C9.05689 12.6538 8.49469 12.3727 8.06132 11.9393C7.62795 11.5059 7.34679 10.9437 7.26001 10.3371C7.17322 9.73036 7.2855 9.11188 7.57999 8.57439L7.75906 8.24757L7.49703 7.98258L6.02203 6.49091L5.678 6.14299L5.32271 6.47941C4.32825 7.42108 3.52617 8.54696 2.96105 9.79449L2.86622 10.0038L2.96334 10.2121C4.45747 13.4163 7.09396 15.5008 9.99983 15.5008Z" fill="black" stroke="#7E7D88"/>
</svg>
