<svg width="20" height="20" viewBox="0 0 20 20" fill="none" xmlns="http://www.w3.org/2000/svg">
<path d="M8.87652 4.59844L9.04086 4.57324C9.35847 4.52456 9.67935 4.50034 10.0007 4.50081M8.87652 4.59844L9.99995 5.00081M8.87652 4.59844L8.72353 4.62189L8.61662 4.63827V4.77259V5.03305C8.64441 5.04606 8.67291 5.05755 8.70198 5.06747C8.7298 5.07697 8.75816 5.08502 8.78693 5.09159C8.80231 5.09509 8.81777 5.09817 8.83328 5.10081H9.11662L9.11095 5.06747L9.03282 4.60788C8.98812 4.61548 8.94235 4.6142 8.89815 4.60411C8.89087 4.60245 8.88366 4.60056 8.87652 4.59844ZM10.0007 4.50081L9.99995 5.00081M10.0007 4.50081C10.0004 4.50081 10.0002 4.50081 9.99995 4.50081V5.00081M10.0007 4.50081C12.9063 4.50115 15.5421 6.58557 17.0443 9.78849L17.1441 10.0013L17.0439 10.214C16.8134 10.703 16.5531 11.1774 16.2643 11.6345L16.2616 11.6388L16.2616 11.6388C16.2265 11.6932 16.2079 11.7567 16.2083 11.8214M9.99995 5.00081C12.65 5.00081 15.1416 6.90914 16.5916 10.0008C16.3699 10.4713 16.1194 10.9277 15.8416 11.3675C15.7534 11.504 15.7071 11.6633 15.7083 11.8258M16.2083 11.8214C16.2083 11.8212 16.2083 11.8209 16.2083 11.8207L15.7083 11.8258M16.2083 11.8214C16.2083 11.8216 16.2083 11.8219 16.2083 11.8221L15.7083 11.8258M16.2083 11.8214C16.2092 11.8939 16.2337 11.9641 16.2781 12.0215C16.3226 12.079 16.3848 12.1203 16.455 12.1392L16.3252 12.6221M15.7083 11.8258C15.7101 12.0077 15.7714 12.1839 15.8828 12.3277C15.9942 12.4715 16.1496 12.5748 16.3252 12.6221M16.3252 12.6221L16.455 12.1392C16.5253 12.1581 16.5998 12.1535 16.6672 12.1261C16.7346 12.0986 16.7911 12.0499 16.8283 11.9874L16.8323 11.9806L16.8365 11.974C17.21 11.3872 17.5344 10.7705 17.8064 10.1303L17.8073 10.1283C17.8252 10.0867 17.8344 10.0419 17.8344 9.99664C17.8344 9.95136 17.8252 9.90656 17.8073 9.86497L8.83328 3.43414C9.21835 3.36564 9.60884 3.33217 9.99995 3.33414C13.4166 3.33414 16.5833 5.75914 18.2666 9.66747C18.3113 9.77145 18.3344 9.88345 18.3344 9.99664C18.3344 10.1098 18.3113 10.2218 18.2666 10.3258C17.9838 10.9913 17.6466 11.6324 17.2583 12.2425C17.1655 12.3989 17.0241 12.5207 16.8556 12.5892C16.6871 12.6577 16.5009 12.6693 16.3252 12.6221ZM8.11784 10.0008H7.83328C7.83328 10.0018 7.83328 10.0027 7.83329 10.0037C7.83405 10.5773 8.06224 11.1272 8.46789 11.5329C8.87354 11.9385 9.42349 12.1667 9.9971 12.1675C10.1912 12.1694 10.3845 12.1433 10.5711 12.0898L11.387 11.8558L10.7868 11.2556L8.74517 9.21392L8.14496 8.61371L8.12032 10.0033L8.11784 10.0008ZM8.11784 10.0008L8.03806 9.92103L8.39162 9.56747L8.11784 10.0008ZM4.83837 6.0277L5.20612 5.6737L4.8446 5.31335L2.26184 2.73892C2.26176 2.73884 2.26169 2.73877 2.26161 2.73869C2.1986 2.67556 2.16321 2.59001 2.16321 2.50081C2.16321 2.4115 2.19869 2.32584 2.26184 2.26269C2.29311 2.23142 2.33023 2.20662 2.37109 2.1897C2.41194 2.17277 2.45573 2.16406 2.49995 2.16406C2.54417 2.16406 2.58796 2.17277 2.62882 2.1897C2.66967 2.20662 2.70679 2.23142 2.73806 2.26269L17.7381 17.2627L17.7395 17.2641C17.7708 17.2951 17.7956 17.332 17.8125 17.3726C17.8294 17.4132 17.8381 17.4568 17.8381 17.5008C17.8381 17.5448 17.8294 17.5884 17.8125 17.629C17.7956 17.6696 17.7708 17.7065 17.7395 17.7375L17.7366 17.7404C17.7056 17.7716 17.6688 17.7964 17.6281 17.8133C17.5875 17.8303 17.544 17.839 17.5 17.839C17.4559 17.839 17.4124 17.8303 17.3718 17.8133C17.3311 17.7964 17.2943 17.7716 17.2633 17.7404L17.2624 17.7395L14.5624 15.0311L14.2734 14.7412L13.9322 14.9673C12.765 15.7405 11.3982 16.1575 9.99829 16.1675C6.83592 16.1667 3.82038 13.9159 2.19251 10.1363L2.19154 10.1341C2.17319 10.0921 2.16371 10.0467 2.16371 10.0008C2.16371 9.95492 2.17319 9.90953 2.19154 9.86747L2.19156 9.86748L2.19324 9.86354C2.80846 8.42029 3.70805 7.11574 4.83837 6.0277ZM9.99995 15.5008V15.5008L10.0056 15.5008C11.1457 15.4878 12.2626 15.1767 13.2452 14.5984L13.8056 14.2686L13.3429 13.8117L12.0179 12.5034L11.7529 12.2417L11.4264 12.4206C10.8889 12.7151 10.2704 12.8274 9.6637 12.7406C9.05701 12.6538 8.49481 12.3727 8.06144 11.9393C7.62808 11.5059 7.34691 10.9437 7.26013 10.3371C7.17334 9.73036 7.28562 9.11188 7.58011 8.57439L7.75918 8.24757L7.49715 7.98258L6.02215 6.49091L5.67812 6.14299L5.32283 6.47941C4.32837 7.42108 3.5263 8.54696 2.96117 9.79449L2.86634 10.0038L2.96346 10.2121C4.45759 13.4163 7.09408 15.5008 9.99995 15.5008Z" fill="black" stroke="#7E7D88"/>
</svg>
