<svg width="20" height="20" viewBox="0 0 20 20" fill="none" xmlns="http://www.w3.org/2000/svg">
<path d="M8.68581 18.0427L8.68305 18.0412L4.11496 15.4083C3.16178 14.7653 2.78261 14.4683 2.59076 14.1379C2.40775 13.8227 2.3667 13.4248 2.3667 12.4077V7.59101C2.3667 6.57241 2.40562 6.17344 2.58452 5.85927C2.77035 5.53294 3.13837 5.24078 4.07398 4.60668L8.67512 1.94898L8.6762 1.94835C9.02138 1.74782 9.49266 1.63477 9.98753 1.63477C10.4824 1.63477 10.9537 1.74782 11.2989 1.94836L11.3004 1.94927L15.8851 4.59045C16.8383 5.23339 17.2175 5.53042 17.4093 5.86083C17.5923 6.17602 17.6334 6.57386 17.6334 7.59101V12.3993C17.6334 13.418 17.5944 13.8169 17.4155 14.1311C17.2297 14.4574 16.8617 14.7496 15.9261 15.3837L11.3261 18.0407C11.3259 18.0408 11.3257 18.0409 11.3255 18.0411C10.967 18.2467 10.4907 18.3577 10 18.3577C9.50802 18.3577 9.03362 18.2462 8.68581 18.0427ZM4.2331 4.81649L4.21807 4.82518L4.20367 4.83489L4.18755 4.84578C3.86167 5.06569 3.59379 5.24646 3.38779 5.40949C3.17519 5.57775 2.99258 5.75412 2.86232 5.97867C2.72905 6.20842 2.67398 6.44778 2.64868 6.70368C2.62501 6.94316 2.62502 7.23136 2.62503 7.56793L2.62503 7.59101V12.3993L2.62503 12.4228C2.62502 12.759 2.62501 13.0478 2.64931 13.2882C2.67536 13.5458 2.73206 13.7862 2.86798 14.0174C3.00034 14.2425 3.18564 14.4205 3.40209 14.5916C3.6124 14.7578 3.88617 14.9431 4.22058 15.1694L4.23649 15.1801L4.25133 15.1902L4.26684 15.1991L8.81684 17.8241L8.81705 17.8242C9.163 18.0236 9.60367 18.1035 10.0042 18.1035C10.4047 18.1035 10.8454 18.0236 11.1913 17.8242L11.192 17.8239L15.7753 15.1739L15.791 15.1648L15.8059 15.1547L15.822 15.1437C16.1458 14.9239 16.4122 14.743 16.617 14.5799C16.8285 14.4115 17.01 14.235 17.1395 14.0105C17.2718 13.781 17.3264 13.542 17.3515 13.2864C17.3751 13.0471 17.375 12.759 17.375 12.4223V12.3993V7.59101V7.56758C17.375 7.23131 17.3751 6.94261 17.3508 6.70218C17.3247 6.44454 17.268 6.20414 17.1321 5.97299C16.9997 5.7479 16.8144 5.56984 16.598 5.39875C16.3877 5.23251 16.1139 5.04727 15.7794 4.82097L15.7636 4.81024L15.7487 4.8002L15.7332 4.79126L11.1862 2.168C11.1857 2.16769 11.1852 2.16738 11.1846 2.16707C10.8382 1.96455 10.3984 1.89102 10 1.89102C9.60159 1.89102 9.16173 1.96457 8.81527 2.16717L4.2331 4.81649Z" stroke="#A9A9B0"/>
<path d="M10 12.625C8.55114 12.625 7.375 11.4489 7.375 10C7.375 8.55114 8.55114 7.375 10 7.375C11.4489 7.375 12.625 8.55114 12.625 10C12.625 11.4489 11.4489 12.625 10 12.625ZM10 7.625C8.69052 7.625 7.625 8.69052 7.625 10C7.625 11.3095 8.69052 12.375 10 12.375C11.3095 12.375 12.375 11.3095 12.375 10C12.375 8.69052 11.3095 7.625 10 7.625Z" fill="#292D32" stroke="#A9A9B0"/>
</svg>
