<svg width="20" height="20" viewBox="0 0 20 20" fill="none" xmlns="http://www.w3.org/2000/svg">
<path d="M18.3333 9.08268V3.41602C18.3333 2.16602 17.8 1.66602 16.475 1.66602H13.1083C11.7833 1.66602 11.25 2.16602 11.25 3.41602V9.08268C11.25 10.3327 11.7833 10.8327 13.1083 10.8327H16.475C17.8 10.8327 18.3333 10.3327 18.3333 9.08268Z" stroke="#A9A9B0" stroke-width="1.5" stroke-linecap="round" stroke-linejoin="round"/>
<path d="M18.3333 16.584V15.084C18.3333 13.834 17.8 13.334 16.475 13.334H13.1083C11.7833 13.334 11.25 13.834 11.25 15.084V16.584C11.25 17.834 11.7833 18.334 13.1083 18.334H16.475C17.8 18.334 18.3333 17.834 18.3333 16.584Z" stroke="#A9A9B0" stroke-width="1.5" stroke-linecap="round" stroke-linejoin="round"/>
<path d="M8.74984 10.916V16.5827C8.74984 17.8327 8.2165 18.3327 6.8915 18.3327H3.52484C2.19984 18.3327 1.6665 17.8327 1.6665 16.5827V10.916C1.6665 9.66602 2.19984 9.16602 3.52484 9.16602H6.8915C8.2165 9.16602 8.74984 9.66602 8.74984 10.916Z" stroke="#A9A9B0" stroke-width="1.5" stroke-linecap="round" stroke-linejoin="round"/>
<path d="M8.74984 3.41602V4.91602C8.74984 6.16602 8.2165 6.66602 6.8915 6.66602H3.52484C2.19984 6.66602 1.6665 6.16602 1.6665 4.91602V3.41602C1.6665 2.16602 2.19984 1.66602 3.52484 1.66602H6.8915C8.2165 1.66602 8.74984 2.16602 8.74984 3.41602Z" stroke="#A9A9B0" stroke-width="1.5" stroke-linecap="round" stroke-linejoin="round"/>
</svg>
